SplineFontDB: 3.2
FontName: Monofonto-Regular
FullName: Monofonto-Regular
FamilyName: Monofonto
Weight: Book
Copyright: (c) 1999-2012 Typodermic Fonts Inc. See attached license agreement. If agreement is missing visit typodermicfonts.com for more info.
Version: 4.000
ItalicAngle: 0
UnderlinePosition: -292
UnderlineWidth: 40
Ascent: 1556
Descent: 492
InvalidEm: 0
sfntRevision: 0x00040000
LayerCount: 2
Layer: 0 1 "Back" 1
Layer: 1 1 "Fore" 0
XUID: [1021 382 509860542 3824014]
StyleMap: 0x0040
FSType: 4
OS2Version: 3
OS2_WeightWidthSlopeOnly: 0
OS2_UseTypoMetrics: 0
CreationTime: 1332548812
ModificationTime: 1772998205
PfmFamily: 17
TTFWeight: 400
TTFWidth: 5
LineGap: 0
VLineGap: 0
Panose: 2 1 6 9 2 0 0 0 0 0
OS2TypoAscent: 1556
OS2TypoAOffset: 0
OS2TypoDescent: -492
OS2TypoDOffset: 0
OS2TypoLinegap: 410
OS2WinAscent: 1966
OS2WinAOffset: 0
OS2WinDescent: 492
OS2WinDOffset: 0
HheadAscent: 1966
HheadAOffset: 0
HheadDescent: -492
HheadDOffset: 0
OS2SubXSize: 614
OS2SubYSize: 614
OS2SubXOff: 0
OS2SubYOff: 0
OS2SupXSize: 614
OS2SupYSize: 614
OS2SupXOff: 0
OS2SupYOff: 614
OS2StrikeYSize: 102
OS2StrikeYPos: 512
OS2CapHeight: 1484
OS2XHeight: 1020
OS2Vendor: 'TYPO'
OS2CodePages: 20000083.00000000
OS2UnicodeRanges: a000002f.0000201b.00000000.00000000
Lookup: 4 0 0 "<11,2> Diagonal Fractions lookup 0" { "<11,2> Diagonal Fractions lookup 0 subtable"  } [<11,2> ('DFLT' <'dflt' > ) 'frac' ('DFLT' <'dflt' > ) ]
Lookup: 1 0 0 "<10,1> Superiors lookup 1" { "<10,1> Superiors lookup 1 subtable" ("superior") } [<10,1> ('DFLT' <'dflt' > ) 'sups' ('DFLT' <'dflt' > ) ]
MarkAttachClasses: 1
DEI: 91125
MacFeat: 0 0 0
MacName: 0 0 24 "All Typographic Features"
MacName: 0 1 24 "Fonctions typographiques"
MacName: 0 2 33 "Alle typografischen M\232glichkeiten"
MacName: 0 3 21 "Funzioni Tipografiche"
MacName: 0 4 28 "Alle typografische kenmerken"
MacSetting: 0
MacName: 0 0 17 "All Type Features"
MacName: 0 1 31 "Toutes fonctions typographiques"
MacName: 0 2 23 "Alle Auszeichnungsarten"

StartChar: .notdef
Encoding: 65536 -1 0
Width: 1024
GlyphClass: 1
Flags: W
LayerCount: 2
Fore
SplineSet
274 -306 m 2,0,1
 74 -306 74 -306 74 -132 c 2,2,-1
 74 1520 l 2,3,4
 74 1696 74 1696 274 1696 c 2,5,-1
 758 1696 l 2,6,7
 960 1696 960 1696 960 1520 c 2,8,-1
 960 -132 l 2,9,10
 960 -306 960 -306 758 -306 c 2,11,-1
 274 -306 l 2,0,1
880 1118 m 0,12,13
 880 1200 880 1200 859 1271 c 128,-1,14
 838 1342 838 1342 793 1394 c 128,-1,15
 748 1446 748 1446 678 1476 c 128,-1,16
 608 1506 608 1506 514 1506 c 0,17,18
 430 1506 430 1506 363 1477 c 128,-1,19
 296 1448 296 1448 249 1396 c 128,-1,20
 202 1344 202 1344 176 1273 c 128,-1,21
 150 1202 150 1202 148 1118 c 1,22,-1
 376 1118 l 1,23,24
 388 1274 388 1274 508 1274 c 0,25,26
 576 1274 576 1274 603 1230 c 128,-1,27
 630 1186 630 1186 630 1126 c 0,28,29
 630 1090 630 1090 624 1060 c 128,-1,30
 618 1030 618 1030 602 1004 c 128,-1,31
 586 978 586 978 559 951 c 128,-1,32
 532 924 532 924 494 888 c 0,33,34
 416 820 416 820 385 748 c 128,-1,35
 354 676 354 676 354 608 c 2,36,-1
 354 534 l 1,37,-1
 590 534 l 1,38,-1
 590 564 l 2,39,40
 590 614 590 614 607 646 c 128,-1,41
 624 678 624 678 654 710 c 128,-1,42
 684 742 684 742 723 779 c 128,-1,43
 762 816 762 816 806 870 c 0,44,45
 846 920 846 920 863 983 c 128,-1,46
 880 1046 880 1046 880 1118 c 0,12,13
610 150 m 0,47,48
 610 216 610 216 575 268 c 128,-1,49
 540 320 540 320 476 320 c 0,50,51
 410 320 410 320 376 268 c 128,-1,52
 342 216 342 216 342 150 c 0,53,54
 342 82 342 82 376 31 c 128,-1,55
 410 -20 410 -20 476 -20 c 0,56,57
 536 -20 536 -20 573 27 c 128,-1,58
 610 74 610 74 610 150 c 0,47,48
EndSplineSet
Validated: 1
EndChar

StartChar: exclam
Encoding: 33 33 5
Width: 1024
GlyphClass: 1
Flags: W
LayerCount: 2
Fore
SplineSet
630 516 m 1,0,-1
 396 516 l 1,1,-1
 396 1484 l 1,2,-1
 630 1484 l 1,3,-1
 630 516 l 1,0,-1
646 148 m 0,4,5
 646 74 646 74 610 27 c 128,-1,6
 574 -20 574 -20 514 -20 c 0,7,8
 452 -20 452 -20 415 25 c 128,-1,9
 378 70 378 70 378 148 c 0,10,11
 378 180 378 180 388 211 c 128,-1,12
 398 242 398 242 415 266 c 128,-1,13
 432 290 432 290 457 305 c 128,-1,14
 482 320 482 320 514 320 c 0,15,16
 572 320 572 320 609 270 c 128,-1,17
 646 220 646 220 646 148 c 0,4,5
EndSplineSet
Validated: 1
EndChar

StartChar: quotedbl
Encoding: 34 34 6
Width: 1024
GlyphClass: 1
Flags: W
LayerCount: 2
Fore
SplineSet
712 1006 m 1,0,-1
 584 1006 l 1,1,-1
 584 1484 l 1,2,-1
 712 1484 l 1,3,-1
 712 1006 l 1,0,-1
438 1006 m 1,4,-1
 314 1006 l 1,5,-1
 314 1484 l 1,6,-1
 438 1484 l 1,7,-1
 438 1006 l 1,4,-1
EndSplineSet
Validated: 1
EndChar

StartChar: numbersign
Encoding: 35 35 7
Width: 1024
GlyphClass: 1
Flags: W
LayerCount: 2
Fore
SplineSet
988 1074 m 1,0,-1
 948 894 l 1,1,-1
 800 894 l 1,2,-1
 738 590 l 1,3,-1
 888 590 l 1,4,-1
 852 412 l 1,5,-1
 698 412 l 1,6,-1
 608 0 l 1,7,-1
 450 0 l 1,8,-1
 540 412 l 1,9,-1
 348 412 l 1,10,-1
 260 0 l 1,11,-1
 102 0 l 1,12,-1
 188 412 l 1,13,-1
 36 412 l 1,14,-1
 76 590 l 1,15,-1
 226 590 l 1,16,-1
 294 894 l 1,17,-1
 136 894 l 1,18,-1
 174 1074 l 1,19,-1
 332 1074 l 1,20,-1
 418 1484 l 1,21,-1
 576 1484 l 1,22,-1
 492 1074 l 1,23,-1
 680 1074 l 1,24,-1
 770 1484 l 1,25,-1
 926 1484 l 1,26,-1
 838 1074 l 1,27,-1
 988 1074 l 1,0,-1
644 894 m 1,28,-1
 448 894 l 1,29,-1
 382 586 l 1,30,-1
 580 586 l 1,31,-1
 644 894 l 1,28,-1
EndSplineSet
Validated: 1
EndChar

StartChar: dollar
Encoding: 36 36 8
Width: 1024
GlyphClass: 1
Flags: W
LayerCount: 2
Fore
SplineSet
952 432 m 0,0,1
 952 240 952 240 860 121 c 128,-1,2
 768 2 768 2 594 -16 c 1,3,-1
 594 -206 l 1,4,-1
 430 -206 l 1,5,-1
 430 -12 l 1,6,7
 274 10 274 10 194 108 c 128,-1,8
 114 206 114 206 102 388 c 1,9,-1
 346 388 l 1,10,11
 356 308 356 308 402 270 c 128,-1,12
 448 232 448 232 546 232 c 0,13,14
 616 232 616 232 659 275 c 128,-1,15
 702 318 702 318 702 390 c 0,16,17
 702 452 702 452 669 496 c 128,-1,18
 636 540 636 540 548 584 c 0,19,20
 472 620 472 620 395 663 c 128,-1,21
 318 706 318 706 244 768 c 0,22,23
 176 828 176 828 144 900 c 128,-1,24
 112 972 112 972 112 1088 c 0,25,26
 112 1256 112 1256 196 1363 c 128,-1,27
 280 1470 280 1470 430 1498 c 1,28,-1
 430 1692 l 1,29,-1
 594 1692 l 1,30,-1
 594 1502 l 1,31,32
 762 1486 762 1486 842 1385 c 128,-1,33
 922 1284 922 1284 926 1114 c 1,34,-1
 686 1114 l 1,35,36
 690 1192 690 1192 643 1235 c 128,-1,37
 596 1278 596 1278 520 1278 c 0,38,39
 434 1278 434 1278 392 1240 c 128,-1,40
 350 1202 350 1202 350 1130 c 0,41,42
 350 1072 350 1072 375 1034 c 128,-1,43
 400 996 400 996 464 956 c 0,44,45
 510 928 510 928 559 906 c 128,-1,46
 608 884 608 884 655 861 c 128,-1,47
 702 838 702 838 748 809 c 128,-1,48
 794 780 794 780 834 742 c 0,49,50
 900 678 900 678 926 604 c 128,-1,51
 952 530 952 530 952 432 c 0,0,1
EndSplineSet
Validated: 33
EndChar

StartChar: ampersand
Encoding: 38 38 10
Width: 1024
GlyphClass: 1
Flags: W
LayerCount: 2
Fore
SplineSet
1016 0 m 1,0,-1
 764 0 l 1,1,-1
 680 158 l 1,2,3
 618 66 618 66 542 23 c 128,-1,4
 466 -20 466 -20 358 -20 c 0,5,6
 288 -20 288 -20 229 6 c 128,-1,7
 170 32 170 32 127 85 c 128,-1,8
 84 138 84 138 60 212 c 128,-1,9
 36 286 36 286 36 382 c 0,10,11
 36 684 36 684 286 856 c 1,12,13
 232 942 232 942 200 1022 c 128,-1,14
 168 1102 168 1102 168 1194 c 0,15,16
 168 1262 168 1262 184 1318 c 128,-1,17
 200 1374 200 1374 234 1416 c 128,-1,18
 268 1458 268 1458 321 1482 c 128,-1,19
 374 1506 374 1506 450 1506 c 0,20,21
 604 1506 604 1506 671 1423 c 128,-1,22
 738 1340 738 1340 738 1196 c 0,23,24
 738 1092 738 1092 686 1000 c 128,-1,25
 634 908 634 908 536 822 c 1,26,-1
 716 526 l 1,27,-1
 886 746 l 1,28,-1
 1012 558 l 1,29,-1
 824 328 l 1,30,-1
 1016 0 l 1,0,-1
562 1210 m 0,31,32
 562 1266 562 1266 537 1303 c 128,-1,33
 512 1340 512 1340 458 1340 c 256,34,35
 404 1340 404 1340 382 1303 c 128,-1,36
 360 1266 360 1266 360 1210 c 0,37,38
 360 1122 360 1122 442 994 c 1,39,40
 562 1100 562 1100 562 1210 c 0,31,32
380 676 m 1,41,42
 310 620 310 620 279 555 c 128,-1,43
 248 490 248 490 248 404 c 0,44,45
 248 324 248 324 283 275 c 128,-1,46
 318 226 318 226 382 226 c 0,47,48
 436 226 436 226 477 257 c 128,-1,49
 518 288 518 288 566 350 c 1,50,-1
 380 676 l 1,41,42
EndSplineSet
Validated: 1
EndChar

StartChar: quotesingle
Encoding: 39 39 11
Width: 1024
GlyphClass: 1
Flags: W
LayerCount: 2
Fore
SplineSet
578 1006 m 1,0,-1
 448 1006 l 1,1,-1
 448 1484 l 1,2,-1
 578 1484 l 1,3,-1
 578 1006 l 1,0,-1
EndSplineSet
Validated: 1
EndChar

StartChar: parenleft
Encoding: 40 40 12
Width: 1024
GlyphClass: 1
Flags: W
LayerCount: 2
Fore
SplineSet
870 1572 m 1,0,1
 814 1464 814 1464 773 1345 c 128,-1,2
 732 1226 732 1226 704 1103 c 128,-1,3
 676 980 676 980 662 860 c 128,-1,4
 648 740 648 740 648 628 c 0,5,6
 648 518 648 518 662 399 c 128,-1,7
 676 280 676 280 704 158 c 128,-1,8
 732 36 732 36 774 -82 c 128,-1,9
 816 -200 816 -200 870 -308 c 1,10,-1
 712 -410 l 1,11,12
 444 110 444 110 444 634 c 0,13,14
 444 1156 444 1156 712 1676 c 1,15,-1
 870 1572 l 1,0,1
EndSplineSet
Validated: 1
EndChar

StartChar: parenright
Encoding: 41 41 13
Width: 1024
GlyphClass: 1
Flags: W
LayerCount: 2
Fore
SplineSet
314 1676 m 1,0,1
 580 1162 580 1162 580 634 c 0,2,3
 580 108 580 108 314 -410 c 1,4,-1
 156 -308 l 1,5,6
 212 -202 212 -202 252 -83 c 128,-1,7
 292 36 292 36 320 158 c 128,-1,8
 348 280 348 280 362 399 c 128,-1,9
 376 518 376 518 376 628 c 256,10,11
 376 738 376 738 362 859 c 128,-1,12
 348 980 348 980 320 1103 c 128,-1,13
 292 1226 292 1226 251 1345 c 128,-1,14
 210 1464 210 1464 156 1572 c 1,15,-1
 314 1676 l 1,0,1
EndSplineSet
Validated: 1
EndChar

StartChar: asterisk
Encoding: 42 42 14
Width: 1024
GlyphClass: 1
Flags: W
LayerCount: 2
Fore
SplineSet
74 1242 m 1,0,-1
 454 1060 l 1,1,-1
 398 1484 l 1,2,-1
 622 1484 l 1,3,-1
 570 1070 l 1,4,-1
 954 1254 l 1,5,-1
 1024 1038 l 1,6,-1
 612 960 l 1,7,-1
 908 652 l 1,8,-1
 722 518 l 1,9,-1
 522 886 l 1,10,-1
 320 510 l 1,11,-1
 136 644 l 1,12,-1
 424 950 l 1,13,-1
 4 1026 l 1,14,-1
 74 1242 l 1,0,-1
EndSplineSet
Validated: 1
EndChar

StartChar: plus
Encoding: 43 43 15
Width: 1024
GlyphClass: 1
Flags: W
LayerCount: 2
Fore
SplineSet
430 278 m 1,0,-1
 430 656 l 1,1,-1
 56 656 l 1,2,-1
 56 820 l 1,3,-1
 430 820 l 1,4,-1
 430 1192 l 1,5,-1
 594 1192 l 1,6,-1
 594 820 l 1,7,-1
 968 820 l 1,8,-1
 968 656 l 1,9,-1
 594 656 l 1,10,-1
 594 278 l 1,11,-1
 430 278 l 1,0,-1
EndSplineSet
Validated: 1
EndChar

StartChar: comma
Encoding: 44 44 16
Width: 1024
GlyphClass: 1
Flags: W
LayerCount: 2
Fore
SplineSet
642 258 m 1,0,-1
 524 -278 l 1,1,-1
 350 -238 l 1,2,-1
 428 314 l 1,3,-1
 642 258 l 1,0,-1
EndSplineSet
Validated: 1
EndChar

StartChar: hyphen
Encoding: 45 45 17
Width: 1024
GlyphClass: 1
Flags: W
LayerCount: 2
Fore
SplineSet
828 644 m 1,0,-1
 194 644 l 1,1,-1
 194 862 l 1,2,-1
 828 862 l 1,3,-1
 828 644 l 1,0,-1
EndSplineSet
Validated: 1
EndChar

StartChar: period
Encoding: 46 46 18
Width: 1024
GlyphClass: 1
Flags: W
LayerCount: 2
Fore
SplineSet
646 140 m 0,0,1
 646 74 646 74 612 27 c 128,-1,2
 578 -20 578 -20 514 -20 c 0,3,4
 448 -20 448 -20 413 27 c 128,-1,5
 378 74 378 74 378 140 c 256,6,7
 378 206 378 206 413 255 c 128,-1,8
 448 304 448 304 514 304 c 0,9,10
 574 304 574 304 610 254 c 128,-1,11
 646 204 646 204 646 140 c 0,0,1
EndSplineSet
Validated: 1
EndChar

StartChar: slash
Encoding: 47 47 19
Width: 1024
GlyphClass: 1
Flags: W
LayerCount: 2
Fore
SplineSet
200 -346 m 1,0,-1
 16 -346 l 1,1,-1
 824 1616 l 1,2,-1
 1008 1616 l 1,3,-1
 200 -346 l 1,0,-1
EndSplineSet
Validated: 1
EndChar

StartChar: zero
Encoding: 48 48 20
Width: 1024
GlyphClass: 1
Flags: W
LayerCount: 2
Fore
SplineSet
908 360 m 2,0,1
 908 278 908 278 887 209 c 128,-1,2
 866 140 866 140 820 88 c 128,-1,3
 774 36 774 36 699 8 c 128,-1,4
 624 -20 624 -20 514 -20 c 256,5,6
 404 -20 404 -20 328 8 c 128,-1,7
 252 36 252 36 206 87 c 128,-1,8
 160 138 160 138 139 207 c 128,-1,9
 118 276 118 276 118 358 c 2,10,-1
 118 1126 l 2,11,12
 118 1208 118 1208 139 1278 c 128,-1,13
 160 1348 160 1348 206 1398 c 128,-1,14
 252 1448 252 1448 328 1477 c 128,-1,15
 404 1506 404 1506 514 1506 c 256,16,17
 624 1506 624 1506 699 1477 c 128,-1,18
 774 1448 774 1448 820 1397 c 128,-1,19
 866 1346 866 1346 887 1276 c 128,-1,20
 908 1206 908 1206 908 1124 c 2,21,-1
 908 360 l 2,0,1
366 366 m 2,22,23
 366 280 366 280 403 242 c 128,-1,24
 440 204 440 204 514 204 c 0,25,26
 586 204 586 204 622 243 c 128,-1,27
 658 282 658 282 658 374 c 2,28,-1
 658 1110 l 2,29,30
 658 1202 658 1202 622 1241 c 128,-1,31
 586 1280 586 1280 514 1280 c 0,32,33
 440 1280 440 1280 403 1242 c 128,-1,34
 366 1204 366 1204 366 1118 c 2,35,-1
 366 366 l 2,22,23
EndSplineSet
Validated: 1
Substitution2: "<10,1> Superiors lookup 1 subtable" zerosuperior
EndChar

StartChar: one
Encoding: 49 49 21
Width: 1024
GlyphClass: 1
Flags: W
LayerCount: 2
Fore
SplineSet
680 0 m 1,0,-1
 440 0 l 1,1,-1
 440 1110 l 1,2,-1
 202 970 l 1,3,-1
 202 1240 l 1,4,-1
 680 1506 l 1,5,-1
 680 0 l 1,0,-1
EndSplineSet
Validated: 1
Substitution2: "<10,1> Superiors lookup 1 subtable" onesuperior
EndChar

StartChar: two
Encoding: 50 50 22
Width: 1024
GlyphClass: 1
Flags: W
LayerCount: 2
Fore
SplineSet
914 1082 m 0,0,1
 914 918 914 918 824 770 c 2,2,-1
 526 276 l 1,3,-1
 904 276 l 1,4,-1
 904 0 l 1,5,-1
 122 0 l 1,6,-1
 598 870 l 2,7,8
 632 936 632 936 652 985 c 128,-1,9
 672 1034 672 1034 672 1070 c 0,10,11
 672 1174 672 1174 628 1216 c 128,-1,12
 584 1258 584 1258 514 1258 c 0,13,14
 358 1258 358 1258 352 1042 c 1,15,-1
 112 1042 l 1,16,17
 132 1504 132 1504 514 1506 c 0,18,19
 604 1506 604 1506 678 1474 c 128,-1,20
 752 1442 752 1442 804 1386 c 128,-1,21
 856 1330 856 1330 885 1252 c 128,-1,22
 914 1174 914 1174 914 1082 c 0,0,1
EndSplineSet
Validated: 1
Substitution2: "<10,1> Superiors lookup 1 subtable" twosuperior
EndChar

StartChar: three
Encoding: 51 51 23
Width: 1024
GlyphClass: 1
Flags: W
LayerCount: 2
Fore
SplineSet
944 434 m 0,0,1
 944 332 944 332 913 248 c 128,-1,2
 882 164 882 164 826 105 c 128,-1,3
 770 46 770 46 691 13 c 128,-1,4
 612 -20 612 -20 516 -20 c 0,5,6
 414 -20 414 -20 333 13 c 128,-1,7
 252 46 252 46 196 106 c 128,-1,8
 140 166 140 166 110 251 c 128,-1,9
 80 336 80 336 80 440 c 1,10,-1
 314 440 l 1,11,12
 314 328 314 328 364 272 c 128,-1,13
 414 216 414 216 506 216 c 0,14,15
 594 216 594 216 649 279 c 128,-1,16
 704 342 704 342 704 446 c 0,17,18
 704 500 704 500 688 540 c 128,-1,19
 672 580 672 580 646 607 c 128,-1,20
 620 634 620 634 586 651 c 128,-1,21
 552 668 552 668 520 672 c 1,22,-1
 520 862 l 1,23,24
 552 864 552 864 583 878 c 128,-1,25
 614 892 614 892 639 919 c 128,-1,26
 664 946 664 946 679 985 c 128,-1,27
 694 1024 694 1024 694 1076 c 0,28,29
 694 1180 694 1180 643 1232 c 128,-1,30
 592 1284 592 1284 516 1284 c 0,31,32
 444 1284 444 1284 397 1244 c 128,-1,33
 350 1204 350 1204 336 1122 c 1,34,-1
 120 1122 l 1,35,36
 126 1206 126 1206 154 1277 c 128,-1,37
 182 1348 182 1348 232 1398 c 128,-1,38
 282 1448 282 1448 357 1477 c 128,-1,39
 432 1506 432 1506 530 1506 c 0,40,41
 612 1506 612 1506 681 1475 c 128,-1,42
 750 1444 750 1444 801 1389 c 128,-1,43
 852 1334 852 1334 881 1258 c 128,-1,44
 910 1182 910 1182 910 1092 c 0,45,46
 910 966 910 966 866 892 c 128,-1,47
 822 818 822 818 744 776 c 1,48,49
 842 732 842 732 893 655 c 128,-1,50
 944 578 944 578 944 434 c 0,0,1
EndSplineSet
Validated: 1
Substitution2: "<10,1> Superiors lookup 1 subtable" threesuperior
EndChar

StartChar: four
Encoding: 52 52 24
Width: 1024
GlyphClass: 1
Flags: W
LayerCount: 2
Fore
SplineSet
964 324 m 1,0,-1
 806 324 l 1,1,-1
 806 0 l 1,2,-1
 574 0 l 1,3,-1
 574 324 l 1,4,-1
 68 324 l 1,5,-1
 68 582 l 1,6,-1
 484 1484 l 1,7,-1
 806 1484 l 1,8,-1
 806 560 l 1,9,-1
 964 560 l 1,10,-1
 964 324 l 1,0,-1
588 560 m 1,11,-1
 588 1304 l 1,12,-1
 242 560 l 1,13,-1
 588 560 l 1,11,-1
EndSplineSet
Validated: 1
Substitution2: "<10,1> Superiors lookup 1 subtable" foursuperior
EndChar

StartChar: five
Encoding: 53 53 25
Width: 1024
GlyphClass: 1
Flags: W
LayerCount: 2
Fore
SplineSet
938 486 m 0,0,1
 938 380 938 380 905 287 c 128,-1,2
 872 194 872 194 812 126 c 128,-1,3
 752 58 752 58 668 19 c 128,-1,4
 584 -20 584 -20 480 -20 c 0,5,6
 338 -20 338 -20 240 57 c 128,-1,7
 142 134 142 134 92 288 c 1,8,-1
 304 400 l 1,9,10
 354 248 354 248 496 248 c 0,11,12
 580 248 580 248 636 307 c 128,-1,13
 692 366 692 366 692 476 c 0,14,15
 692 592 692 592 641 649 c 128,-1,16
 590 706 590 706 502 706 c 0,17,18
 442 706 442 706 403 679 c 128,-1,19
 364 652 364 652 346 612 c 1,20,-1
 138 612 l 1,21,-1
 138 1484 l 1,22,-1
 874 1484 l 1,23,-1
 874 1224 l 1,24,-1
 346 1224 l 1,25,-1
 346 882 l 1,26,27
 398 910 398 910 454 925 c 128,-1,28
 510 940 510 940 550 940 c 0,29,30
 642 940 642 940 714 906 c 128,-1,31
 786 872 786 872 836 812 c 128,-1,32
 886 752 886 752 912 669 c 128,-1,33
 938 586 938 586 938 486 c 0,0,1
EndSplineSet
Validated: 1
Substitution2: "<10,1> Superiors lookup 1 subtable" fivesuperior
EndChar

StartChar: six
Encoding: 54 54 26
Width: 1024
GlyphClass: 1
Flags: W
LayerCount: 2
Fore
SplineSet
938 454 m 0,0,1
 938 340 938 340 904 252 c 128,-1,2
 870 164 870 164 812 104 c 128,-1,3
 754 44 754 44 676 12 c 128,-1,4
 598 -20 598 -20 508 -20 c 256,5,6
 418 -20 418 -20 341 16 c 128,-1,7
 264 52 264 52 207 116 c 128,-1,8
 150 180 150 180 118 268 c 128,-1,9
 86 356 86 356 86 458 c 0,10,11
 86 578 86 578 123 688 c 128,-1,12
 160 798 160 798 236 938 c 2,13,-1
 538 1484 l 1,14,-1
 814 1484 l 1,15,-1
 480 888 l 1,16,17
 504 892 504 892 528 896 c 128,-1,18
 552 900 552 900 576 900 c 0,19,20
 744 900 744 900 841 781 c 128,-1,21
 938 662 938 662 938 454 c 0,0,1
694 458 m 0,22,23
 694 558 694 558 641 619 c 128,-1,24
 588 680 588 680 510 680 c 0,25,26
 430 680 430 680 381 614 c 128,-1,27
 332 548 332 548 332 454 c 0,28,29
 332 362 332 362 381 297 c 128,-1,30
 430 232 430 232 510 232 c 0,31,32
 588 232 588 232 641 296 c 128,-1,33
 694 360 694 360 694 458 c 0,22,23
EndSplineSet
Validated: 1
Substitution2: "<10,1> Superiors lookup 1 subtable" sixsuperior
EndChar

StartChar: seven
Encoding: 55 55 27
Width: 1024
GlyphClass: 1
Flags: W
LayerCount: 2
Fore
SplineSet
970 1484 m 1,0,-1
 460 0 l 1,1,-1
 154 0 l 1,2,-1
 620 1224 l 1,3,-1
 78 1224 l 1,4,-1
 78 1484 l 1,5,-1
 970 1484 l 1,0,-1
EndSplineSet
Validated: 1
Substitution2: "<10,1> Superiors lookup 1 subtable" sevensuperior
EndChar

StartChar: eight
Encoding: 56 56 28
Width: 1024
GlyphClass: 1
Flags: W
LayerCount: 2
Fore
SplineSet
948 434 m 0,0,1
 948 224 948 224 843 102 c 128,-1,2
 738 -20 738 -20 514 -20 c 0,3,4
 402 -20 402 -20 320 13 c 128,-1,5
 238 46 238 46 184 105 c 128,-1,6
 130 164 130 164 103 248 c 128,-1,7
 76 332 76 332 76 436 c 0,8,9
 76 500 76 500 94 555 c 128,-1,10
 112 610 112 610 143 654 c 128,-1,11
 174 698 174 698 212 730 c 128,-1,12
 250 762 250 762 288 780 c 1,13,14
 202 838 202 838 167 909 c 128,-1,15
 132 980 132 980 132 1094 c 0,16,17
 132 1182 132 1182 155 1257 c 128,-1,18
 178 1332 178 1332 226 1387 c 128,-1,19
 274 1442 274 1442 346 1474 c 128,-1,20
 418 1506 418 1506 514 1506 c 0,21,22
 608 1506 608 1506 680 1473 c 128,-1,23
 752 1440 752 1440 800 1383 c 128,-1,24
 848 1326 848 1326 871 1251 c 128,-1,25
 894 1176 894 1176 894 1094 c 0,26,27
 894 874 894 874 740 778 c 1,28,29
 832 738 832 738 890 652 c 128,-1,30
 948 566 948 566 948 434 c 0,0,1
686 1078 m 0,31,32
 686 1116 686 1116 675 1154 c 128,-1,33
 664 1192 664 1192 642 1222 c 128,-1,34
 620 1252 620 1252 589 1269 c 128,-1,35
 558 1286 558 1286 514 1286 c 256,36,37
 470 1286 470 1286 438 1269 c 128,-1,38
 406 1252 406 1252 384 1222 c 128,-1,39
 362 1192 362 1192 352 1154 c 128,-1,40
 342 1116 342 1116 342 1078 c 0,41,42
 342 1038 342 1038 353 999 c 128,-1,43
 364 960 364 960 386 932 c 128,-1,44
 408 904 408 904 441 886 c 128,-1,45
 474 868 474 868 516 868 c 0,46,47
 602 868 602 868 644 926 c 128,-1,48
 686 984 686 984 686 1078 c 0,31,32
710 442 m 0,49,50
 710 542 710 542 660 608 c 128,-1,51
 610 674 610 674 514 674 c 0,52,53
 416 674 416 674 366 608 c 128,-1,54
 316 542 316 542 316 442 c 0,55,56
 316 344 316 344 368 280 c 128,-1,57
 420 216 420 216 516 216 c 0,58,59
 564 216 564 216 599 234 c 128,-1,60
 634 252 634 252 659 284 c 128,-1,61
 684 316 684 316 697 356 c 128,-1,62
 710 396 710 396 710 442 c 0,49,50
EndSplineSet
Validated: 1
Substitution2: "<10,1> Superiors lookup 1 subtable" eightsuperior
EndChar

StartChar: nine
Encoding: 57 57 29
Width: 1024
GlyphClass: 1
Flags: W
LayerCount: 2
Fore
SplineSet
86 1028 m 0,0,1
 86 1142 86 1142 120 1231 c 128,-1,2
 154 1320 154 1320 212 1381 c 128,-1,3
 270 1442 270 1442 349 1474 c 128,-1,4
 428 1506 428 1506 518 1506 c 0,5,6
 606 1506 606 1506 683 1470 c 128,-1,7
 760 1434 760 1434 817 1369 c 128,-1,8
 874 1304 874 1304 906 1216 c 128,-1,9
 938 1128 938 1128 938 1024 c 0,10,11
 938 964 938 964 929 908 c 128,-1,12
 920 852 920 852 901 795 c 128,-1,13
 882 738 882 738 855 677 c 128,-1,14
 828 616 828 616 788 546 c 2,15,-1
 488 0 l 1,16,-1
 210 0 l 1,17,-1
 546 596 l 1,18,19
 522 592 522 592 498 589 c 128,-1,20
 474 586 474 586 448 586 c 0,21,22
 280 586 280 586 183 704 c 128,-1,23
 86 822 86 822 86 1028 c 0,0,1
332 1024 m 0,24,25
 332 926 332 926 384 865 c 128,-1,26
 436 804 436 804 516 804 c 0,27,28
 554 804 554 804 587 822 c 128,-1,29
 620 840 620 840 644 871 c 128,-1,30
 668 902 668 902 681 941 c 128,-1,31
 694 980 694 980 694 1028 c 256,32,33
 694 1076 694 1076 681 1117 c 128,-1,34
 668 1158 668 1158 644 1188 c 128,-1,35
 620 1218 620 1218 588 1236 c 128,-1,36
 556 1254 556 1254 516 1254 c 0,37,38
 436 1254 436 1254 384 1189 c 128,-1,39
 332 1124 332 1124 332 1024 c 0,24,25
EndSplineSet
Validated: 1
Substitution2: "<10,1> Superiors lookup 1 subtable" ninesuperior
EndChar

StartChar: colon
Encoding: 58 58 30
Width: 1024
GlyphClass: 1
Flags: W
LayerCount: 2
Fore
SplineSet
646 876 m 0,0,1
 646 806 646 806 610 757 c 128,-1,2
 574 708 574 708 514 708 c 0,3,4
 452 708 452 708 415 755 c 128,-1,5
 378 802 378 802 378 876 c 0,6,7
 378 942 378 942 413 993 c 128,-1,8
 448 1044 448 1044 514 1044 c 0,9,10
 578 1044 578 1044 612 993 c 128,-1,11
 646 942 646 942 646 876 c 0,0,1
646 148 m 0,12,13
 646 76 646 76 612 28 c 128,-1,14
 578 -20 578 -20 514 -20 c 0,15,16
 448 -20 448 -20 413 29 c 128,-1,17
 378 78 378 78 378 148 c 0,18,19
 378 214 378 214 413 265 c 128,-1,20
 448 316 448 316 514 316 c 0,21,22
 574 316 574 316 610 265 c 128,-1,23
 646 214 646 214 646 148 c 0,12,13
EndSplineSet
Validated: 1
EndChar

StartChar: semicolon
Encoding: 59 59 31
Width: 1024
GlyphClass: 1
Flags: W
LayerCount: 2
Fore
SplineSet
664 876 m 0,0,1
 664 806 664 806 628 757 c 128,-1,2
 592 708 592 708 528 708 c 0,3,4
 462 708 462 708 427 757 c 128,-1,5
 392 806 392 806 392 876 c 0,6,7
 392 942 392 942 427 993 c 128,-1,8
 462 1044 462 1044 528 1044 c 0,9,10
 588 1044 588 1044 626 993 c 128,-1,11
 664 942 664 942 664 876 c 0,0,1
614 268 m 1,12,-1
 498 -278 l 1,13,-1
 324 -236 l 1,14,-1
 400 324 l 1,15,-1
 614 268 l 1,12,-1
EndSplineSet
Validated: 1
EndChar

StartChar: less
Encoding: 60 60 32
Width: 1024
GlyphClass: 1
Flags: W
LayerCount: 2
Fore
SplineSet
966 190 m 1,0,-1
 56 644 l 1,1,-1
 56 832 l 1,2,-1
 966 1286 l 1,3,-1
 966 1104 l 1,4,-1
 224 738 l 1,5,-1
 966 372 l 1,6,-1
 966 190 l 1,0,-1
EndSplineSet
Validated: 1
EndChar

StartChar: equal
Encoding: 61 61 33
Width: 1024
GlyphClass: 1
Flags: W
LayerCount: 2
Fore
SplineSet
56 428 m 1,0,-1
 56 592 l 1,1,-1
 968 592 l 1,2,-1
 968 428 l 1,3,-1
 56 428 l 1,0,-1
56 884 m 1,4,-1
 56 1048 l 1,5,-1
 968 1048 l 1,6,-1
 968 884 l 1,7,-1
 56 884 l 1,4,-1
EndSplineSet
Validated: 1
EndChar

StartChar: greater
Encoding: 62 62 34
Width: 1024
GlyphClass: 1
Flags: W
LayerCount: 2
Fore
SplineSet
56 372 m 1,0,-1
 798 738 l 1,1,-1
 56 1104 l 1,2,-1
 56 1286 l 1,3,-1
 966 832 l 1,4,-1
 966 644 l 1,5,-1
 56 190 l 1,6,-1
 56 372 l 1,0,-1
EndSplineSet
Validated: 1
EndChar

StartChar: question
Encoding: 63 63 35
Width: 1024
GlyphClass: 1
Flags: W
LayerCount: 2
Fore
SplineSet
880 1118 m 0,0,1
 880 1046 880 1046 864 983 c 128,-1,2
 848 920 848 920 806 870 c 0,3,4
 760 814 760 814 722 778 c 128,-1,5
 684 742 684 742 654 710 c 128,-1,6
 624 678 624 678 607 645 c 128,-1,7
 590 612 590 612 590 564 c 2,8,-1
 590 534 l 1,9,-1
 354 534 l 1,10,-1
 354 608 l 2,11,12
 354 676 354 676 385 749 c 128,-1,13
 416 822 416 822 494 888 c 0,14,15
 532 922 532 922 559 950 c 128,-1,16
 586 978 586 978 602 1004 c 128,-1,17
 618 1030 618 1030 624 1060 c 128,-1,18
 630 1090 630 1090 630 1126 c 0,19,20
 630 1186 630 1186 603 1230 c 128,-1,21
 576 1274 576 1274 508 1274 c 0,22,23
 390 1274 390 1274 376 1118 c 1,24,-1
 148 1118 l 1,25,26
 150 1202 150 1202 176 1273 c 128,-1,27
 202 1344 202 1344 249 1396 c 128,-1,28
 296 1448 296 1448 363 1477 c 128,-1,29
 430 1506 430 1506 514 1506 c 0,30,31
 608 1506 608 1506 678 1476 c 128,-1,32
 748 1446 748 1446 793 1394 c 128,-1,33
 838 1342 838 1342 859 1271 c 128,-1,34
 880 1200 880 1200 880 1118 c 0,0,1
610 150 m 0,35,36
 610 74 610 74 572 27 c 128,-1,37
 534 -20 534 -20 476 -20 c 0,38,39
 410 -20 410 -20 376 31 c 128,-1,40
 342 82 342 82 342 150 c 0,41,42
 342 216 342 216 376 268 c 128,-1,43
 410 320 410 320 476 320 c 256,44,45
 542 320 542 320 576 268 c 128,-1,46
 610 216 610 216 610 150 c 0,35,36
EndSplineSet
Validated: 1
EndChar

StartChar: at
Encoding: 64 64 36
Width: 1024
GlyphClass: 1
Flags: W
LayerCount: 2
Fore
SplineSet
718 724 m 1,0,-1
 718 392 l 2,1,2
 718 334 718 334 733 304 c 128,-1,3
 748 274 748 274 784 274 c 0,4,5
 802 274 802 274 822 287 c 128,-1,6
 842 300 842 300 858 338 c 128,-1,7
 874 376 874 376 886 448 c 128,-1,8
 898 520 898 520 898 642 c 0,9,10
 898 766 898 766 873 853 c 128,-1,11
 848 940 848 940 804 993 c 128,-1,12
 760 1046 760 1046 697 1071 c 128,-1,13
 634 1096 634 1096 560 1096 c 0,14,15
 476 1096 476 1096 405 1060 c 128,-1,16
 334 1024 334 1024 284 950 c 128,-1,17
 234 876 234 876 206 763 c 128,-1,18
 178 650 178 650 178 494 c 0,19,20
 178 382 178 382 203 282 c 128,-1,21
 228 182 228 182 270 102 c 128,-1,22
 312 22 312 22 367 -37 c 128,-1,23
 422 -96 422 -96 484 -130 c 1,24,-1
 410 -274 l 1,25,26
 234 -170 234 -170 132 14 c 128,-1,27
 30 198 30 198 30 480 c 0,28,29
 30 682 30 682 65 827 c 128,-1,30
 100 972 100 972 169 1065 c 128,-1,31
 238 1158 238 1158 338 1202 c 128,-1,32
 438 1246 438 1246 568 1246 c 0,33,34
 786 1246 786 1246 896 1106 c 128,-1,35
 1006 966 1006 966 1006 676 c 0,36,37
 1006 580 1006 580 999 492 c 128,-1,38
 992 404 992 404 969 337 c 128,-1,39
 946 270 946 270 901 231 c 128,-1,40
 856 192 856 192 782 192 c 0,41,42
 742 192 742 192 705 211 c 128,-1,43
 668 230 668 230 644 262 c 1,44,45
 620 234 620 234 585 220 c 128,-1,46
 550 206 550 206 518 206 c 0,47,48
 438 206 438 206 387 272 c 128,-1,49
 336 338 336 338 336 462 c 0,50,51
 336 588 336 588 382 658 c 128,-1,52
 428 728 428 728 518 728 c 0,53,54
 586 728 586 728 628 684 c 1,55,-1
 638 724 l 1,56,-1
 718 724 l 1,0,-1
628 550 m 1,57,58
 592 602 592 602 534 602 c 0,59,60
 488 602 488 602 463 568 c 128,-1,61
 438 534 438 534 438 462 c 0,62,63
 438 330 438 330 528 332 c 0,64,65
 592 332 592 332 628 398 c 1,66,-1
 628 550 l 1,57,58
EndSplineSet
Validated: 33
EndChar

StartChar: A
Encoding: 65 65 37
Width: 1024
GlyphClass: 1
Flags: W
LayerCount: 2
Fore
SplineSet
958 0 m 1,0,-1
 676 0 l 1,1,-1
 624 240 l 1,2,-1
 382 240 l 1,3,-1
 332 0 l 1,4,-1
 66 0 l 1,5,-1
 378 1484 l 1,6,-1
 644 1484 l 1,7,-1
 958 0 l 1,0,-1
584 472 m 1,8,-1
 506 942 l 1,9,-1
 422 472 l 1,10,-1
 584 472 l 1,8,-1
EndSplineSet
Validated: 1
EndChar

StartChar: B
Encoding: 66 66 38
Width: 1024
GlyphClass: 1
Flags: W
LayerCount: 2
Fore
SplineSet
918 422 m 0,0,1
 918 204 918 204 814 102 c 128,-1,2
 710 0 710 0 488 0 c 2,3,-1
 108 0 l 1,4,-1
 108 1484 l 1,5,-1
 520 1484 l 2,6,7
 704 1484 704 1484 797 1378 c 128,-1,8
 890 1272 890 1272 890 1100 c 0,9,10
 890 964 890 964 841 886 c 128,-1,11
 792 808 792 808 692 762 c 1,12,13
 796 728 796 728 857 643 c 128,-1,14
 918 558 918 558 918 422 c 0,0,1
636 1058 m 0,15,16
 636 1126 636 1126 623 1168 c 128,-1,17
 610 1210 610 1210 586 1234 c 128,-1,18
 562 1258 562 1258 526 1266 c 128,-1,19
 490 1274 490 1274 444 1274 c 2,20,-1
 348 1274 l 1,21,-1
 348 842 l 1,22,-1
 440 842 l 2,23,24
 536 842 536 842 586 890 c 128,-1,25
 636 938 636 938 636 1058 c 0,15,16
664 452 m 0,26,27
 664 552 664 552 608 616 c 128,-1,28
 552 680 552 680 466 680 c 2,29,-1
 348 680 l 1,30,-1
 348 230 l 1,31,-1
 476 230 l 2,32,33
 524 230 524 230 558 247 c 128,-1,34
 592 264 592 264 615 295 c 128,-1,35
 638 326 638 326 651 366 c 128,-1,36
 664 406 664 406 664 452 c 0,26,27
EndSplineSet
Validated: 1
EndChar

StartChar: C
Encoding: 67 67 39
Width: 1024
GlyphClass: 1
Flags: W
LayerCount: 2
Fore
SplineSet
352 422 m 2,0,1
 352 320 352 320 395 271 c 128,-1,2
 438 222 438 222 514 222 c 0,3,4
 572 222 572 222 616 256 c 128,-1,5
 660 290 660 290 666 372 c 1,6,-1
 922 372 l 1,7,8
 884 -22 884 -22 514 -20 c 0,9,10
 312 -20 312 -20 206 87 c 128,-1,11
 100 194 100 194 100 414 c 2,12,-1
 100 1072 l 2,13,14
 100 1292 100 1292 206 1399 c 128,-1,15
 312 1506 312 1506 514 1506 c 0,16,17
 882 1506 882 1506 922 1112 c 1,18,-1
 666 1112 l 1,19,20
 660 1192 660 1192 616 1228 c 128,-1,21
 572 1264 572 1264 514 1264 c 0,22,23
 438 1264 438 1264 395 1215 c 128,-1,24
 352 1166 352 1166 352 1062 c 2,25,-1
 352 422 l 2,0,1
EndSplineSet
Validated: 33
EndChar

StartChar: D
Encoding: 68 68 40
Width: 1024
GlyphClass: 1
Flags: W
LayerCount: 2
Fore
SplineSet
926 454 m 2,0,1
 926 8 926 8 520 8 c 2,2,-1
 100 8 l 1,3,-1
 100 1484 l 1,4,-1
 520 1484 l 2,5,6
 926 1484 926 1484 926 1030 c 2,7,-1
 926 454 l 2,0,1
680 1014 m 2,8,9
 680 1120 680 1120 638 1190 c 128,-1,10
 596 1260 596 1260 520 1260 c 2,11,-1
 346 1260 l 1,12,-1
 346 244 l 1,13,-1
 520 244 l 2,14,15
 680 244 680 244 680 468 c 2,16,-1
 680 1014 l 2,8,9
EndSplineSet
Validated: 1
EndChar

StartChar: E
Encoding: 69 69 41
Width: 1024
GlyphClass: 1
Flags: W
LayerCount: 2
Fore
SplineSet
890 0 m 1,0,-1
 138 0 l 1,1,-1
 138 1484 l 1,2,-1
 890 1484 l 1,3,-1
 890 1250 l 1,4,-1
 402 1250 l 1,5,-1
 402 870 l 1,6,-1
 788 870 l 1,7,-1
 788 630 l 1,8,-1
 402 630 l 1,9,-1
 402 250 l 1,10,-1
 890 250 l 1,11,-1
 890 0 l 1,0,-1
EndSplineSet
Validated: 1
EndChar

StartChar: F
Encoding: 70 70 42
Width: 1024
GlyphClass: 1
Flags: W
LayerCount: 2
Fore
SplineSet
890 1250 m 1,0,-1
 402 1250 l 1,1,-1
 402 870 l 1,2,-1
 806 870 l 1,3,-1
 806 630 l 1,4,-1
 402 630 l 1,5,-1
 402 0 l 1,6,-1
 138 0 l 1,7,-1
 138 1484 l 1,8,-1
 890 1484 l 1,9,-1
 890 1250 l 1,0,-1
EndSplineSet
Validated: 1
EndChar

StartChar: G
Encoding: 71 71 43
Width: 1024
GlyphClass: 1
Flags: W
LayerCount: 2
Fore
SplineSet
906 0 m 1,0,-1
 710 0 l 1,1,-1
 710 132 l 1,2,3
 694 74 694 74 632 27 c 128,-1,4
 570 -20 570 -20 438 -20 c 0,5,6
 370 -20 370 -20 309 7 c 128,-1,7
 248 34 248 34 202 86 c 128,-1,8
 156 138 156 138 129 209 c 128,-1,9
 102 280 102 280 102 368 c 2,10,-1
 102 1074 l 2,11,12
 102 1294 102 1294 211 1400 c 128,-1,13
 320 1506 320 1506 516 1506 c 0,14,15
 690 1506 690 1506 800 1410 c 128,-1,16
 910 1314 910 1314 922 1112 c 1,17,-1
 666 1112 l 1,18,19
 666 1190 666 1190 622 1227 c 128,-1,20
 578 1264 578 1264 516 1264 c 0,21,22
 442 1264 442 1264 398 1210 c 128,-1,23
 354 1156 354 1156 354 1062 c 2,24,-1
 354 406 l 2,25,26
 354 308 354 308 398 265 c 128,-1,27
 442 222 442 222 516 222 c 0,28,29
 588 222 588 222 629 265 c 128,-1,30
 670 308 670 308 670 406 c 2,31,-1
 670 626 l 1,32,-1
 548 626 l 1,33,-1
 548 840 l 1,34,-1
 906 840 l 1,35,-1
 906 0 l 1,0,-1
EndSplineSet
Validated: 1
EndChar

StartChar: H
Encoding: 72 72 44
Width: 1024
GlyphClass: 1
Flags: W
LayerCount: 2
Fore
SplineSet
920 0 m 5,0,-1
 654 0 l 5,1,-1
 654 626 l 5,2,-1
 366 626 l 5,3,-1
 366 0 l 5,4,-1
 104 0 l 5,5,-1
 104 1484 l 5,6,-1
 366 1484 l 5,7,-1
 366 880 l 5,8,-1
 654 880 l 5,9,-1
 654 1484 l 5,10,-1
 920 1484 l 5,11,-1
 920 0 l 5,0,-1
EndSplineSet
Validated: 1
EndChar

StartChar: I
Encoding: 73 73 45
Width: 1024
GlyphClass: 1
Flags: W
LayerCount: 2
Fore
SplineSet
860 0 m 1,0,-1
 166 0 l 1,1,-1
 166 238 l 1,2,-1
 390 238 l 1,3,-1
 390 1250 l 1,4,-1
 166 1250 l 1,5,-1
 166 1484 l 1,6,-1
 860 1484 l 1,7,-1
 860 1250 l 1,8,-1
 642 1250 l 1,9,-1
 642 238 l 1,10,-1
 860 238 l 1,11,-1
 860 0 l 1,0,-1
EndSplineSet
Validated: 1
EndChar

StartChar: J
Encoding: 74 74 46
Width: 1024
GlyphClass: 1
Flags: W
LayerCount: 2
Fore
SplineSet
894 514 m 6,0,1
 894 272 894 272 786 136 c 132,-1,2
 678 0 678 0 456 0 c 6,3,-1
 142 0 l 5,4,-1
 142 250 l 5,5,-1
 422 250 l 6,6,7
 460 250 460 250 497 262 c 132,-1,8
 534 274 534 274 563 303 c 132,-1,9
 592 332 592 332 609 381 c 132,-1,10
 626 430 626 430 626 502 c 6,11,-1
 626 1250 l 5,12,-1
 488 1250 l 5,13,-1
 488 1484 l 5,14,-1
 894 1484 l 5,15,-1
 894 514 l 6,0,1
EndSplineSet
Validated: 1
EndChar

StartChar: K
Encoding: 75 75 47
Width: 1024
GlyphClass: 1
Flags: W
LayerCount: 2
Fore
SplineSet
964 0 m 1,0,-1
 684 0 l 1,1,-1
 390 696 l 1,2,-1
 390 0 l 1,3,-1
 122 0 l 1,4,-1
 122 1484 l 1,5,-1
 390 1484 l 1,6,-1
 390 820 l 1,7,-1
 680 1484 l 1,8,-1
 940 1484 l 1,9,-1
 614 814 l 1,10,-1
 964 0 l 1,0,-1
EndSplineSet
Validated: 1
EndChar

StartChar: L
Encoding: 76 76 48
Width: 1024
GlyphClass: 1
Flags: W
LayerCount: 2
Fore
SplineSet
916 0 m 1,0,-1
 138 0 l 1,1,-1
 138 1484 l 1,2,-1
 400 1484 l 1,3,-1
 400 250 l 1,4,-1
 916 250 l 1,5,-1
 916 0 l 1,0,-1
EndSplineSet
Validated: 1
EndChar

StartChar: M
Encoding: 77 77 49
Width: 1024
GlyphClass: 1
Flags: W
LayerCount: 2
Fore
SplineSet
946 0 m 1,0,-1
 730 0 l 1,1,-1
 730 912 l 1,2,-1
 514 260 l 1,3,-1
 300 912 l 1,4,-1
 300 0 l 1,5,-1
 78 0 l 1,6,-1
 78 1484 l 1,7,-1
 346 1484 l 1,8,-1
 514 914 l 1,9,-1
 696 1484 l 1,10,-1
 946 1484 l 1,11,-1
 946 0 l 1,0,-1
EndSplineSet
Validated: 1
EndChar

StartChar: N
Encoding: 78 78 50
Width: 1024
GlyphClass: 1
Flags: W
LayerCount: 2
Fore
SplineSet
932 0 m 1,0,-1
 672 0 l 1,1,-1
 334 868 l 1,2,-1
 334 0 l 1,3,-1
 92 0 l 1,4,-1
 92 1484 l 1,5,-1
 396 1484 l 1,6,-1
 696 616 l 1,7,-1
 696 1484 l 1,8,-1
 932 1484 l 1,9,-1
 932 0 l 1,0,-1
EndSplineSet
Validated: 1
EndChar

StartChar: O
Encoding: 79 79 51
Width: 1024
GlyphClass: 1
Flags: W
LayerCount: 2
Fore
SplineSet
940 452 m 2,0,1
 940 226 940 226 829 103 c 128,-1,2
 718 -20 718 -20 514 -20 c 0,3,4
 302 -20 302 -20 193 109 c 128,-1,5
 84 238 84 238 84 452 c 2,6,-1
 84 1030 l 2,7,8
 84 1248 84 1248 193 1377 c 128,-1,9
 302 1506 302 1506 514 1506 c 0,10,11
 718 1506 718 1506 829 1382 c 128,-1,12
 940 1258 940 1258 940 1030 c 2,13,-1
 940 452 l 2,0,1
336 414 m 2,14,15
 336 306 336 306 387 255 c 128,-1,16
 438 204 438 204 514 204 c 0,17,18
 588 204 588 204 639 257 c 128,-1,19
 690 310 690 310 690 414 c 2,20,-1
 690 1072 l 2,21,22
 690 1176 690 1176 639 1228 c 128,-1,23
 588 1280 588 1280 514 1280 c 0,24,25
 438 1280 438 1280 387 1229 c 128,-1,26
 336 1178 336 1178 336 1072 c 2,27,-1
 336 414 l 2,14,15
EndSplineSet
Validated: 1
EndChar

StartChar: P
Encoding: 80 80 52
Width: 1024
GlyphClass: 1
Flags: W
LayerCount: 2
Fore
SplineSet
960 1000 m 0,0,1
 960 752 960 752 853 629 c 128,-1,2
 746 506 746 506 520 506 c 2,3,-1
 366 506 l 1,4,-1
 366 0 l 1,5,-1
 104 0 l 1,6,-1
 104 1484 l 1,7,-1
 524 1484 l 2,8,9
 630 1484 630 1484 711 1450 c 128,-1,10
 792 1416 792 1416 848 1352 c 128,-1,11
 904 1288 904 1288 932 1199 c 128,-1,12
 960 1110 960 1110 960 1000 c 0,0,1
692 1004 m 0,13,14
 692 1128 692 1128 644 1188 c 128,-1,15
 596 1248 596 1248 490 1248 c 2,16,-1
 366 1248 l 1,17,-1
 366 756 l 1,18,-1
 490 756 l 2,19,20
 692 756 692 756 692 1004 c 0,13,14
EndSplineSet
Validated: 1
EndChar

StartChar: Q
Encoding: 81 81 53
Width: 1024
GlyphClass: 1
Flags: W
LayerCount: 2
Fore
SplineSet
940 482 m 2,0,1
 940 174 940 174 746 62 c 1,2,-1
 854 -238 l 1,3,-1
 634 -238 l 1,4,-1
 544 6 l 1,5,-1
 514 6 l 2,6,7
 302 6 302 6 193 135 c 128,-1,8
 84 264 84 264 84 482 c 2,9,-1
 84 1030 l 2,10,11
 84 1248 84 1248 193 1377 c 128,-1,12
 302 1506 302 1506 514 1506 c 0,13,14
 718 1506 718 1506 829 1382 c 128,-1,15
 940 1258 940 1258 940 1030 c 2,16,-1
 940 482 l 2,0,1
336 440 m 2,17,18
 336 334 336 334 387 283 c 128,-1,19
 438 232 438 232 514 232 c 0,20,21
 588 232 588 232 639 284 c 128,-1,22
 690 336 690 336 690 440 c 2,23,-1
 690 1072 l 2,24,25
 690 1176 690 1176 639 1228 c 128,-1,26
 588 1280 588 1280 514 1280 c 0,27,28
 438 1280 438 1280 387 1229 c 128,-1,29
 336 1178 336 1178 336 1072 c 2,30,-1
 336 440 l 2,17,18
EndSplineSet
Validated: 1
EndChar

StartChar: R
Encoding: 82 82 54
Width: 1024
GlyphClass: 1
Flags: W
LayerCount: 2
Fore
SplineSet
976 0 m 1,0,-1
 646 0 l 1,1,-1
 362 588 l 1,2,-1
 362 0 l 1,3,-1
 96 0 l 1,4,-1
 96 1484 l 1,5,-1
 508 1484 l 2,6,7
 712 1484 712 1484 829 1369 c 128,-1,8
 946 1254 946 1254 946 1042 c 0,9,10
 946 858 946 858 865 761 c 128,-1,11
 784 664 784 664 652 626 c 1,12,-1
 976 0 l 1,0,-1
676 1004 m 0,13,14
 676 1146 676 1146 621 1197 c 128,-1,15
 566 1248 566 1248 454 1248 c 2,16,-1
 362 1248 l 1,17,-1
 362 756 l 1,18,-1
 486 756 l 2,19,20
 576 756 576 756 626 826 c 128,-1,21
 676 896 676 896 676 1004 c 0,13,14
EndSplineSet
Validated: 1
EndChar

StartChar: S
Encoding: 83 83 55
Width: 1024
GlyphClass: 1
Flags: W
LayerCount: 2
Fore
SplineSet
952 432 m 0,0,1
 952 226 952 226 844 103 c 128,-1,2
 736 -20 736 -20 532 -20 c 0,3,4
 326 -20 326 -20 222 81 c 128,-1,5
 118 182 118 182 102 388 c 1,6,-1
 346 388 l 1,7,8
 356 308 356 308 402 270 c 128,-1,9
 448 232 448 232 546 232 c 0,10,11
 616 232 616 232 659 275 c 128,-1,12
 702 318 702 318 702 390 c 0,13,14
 702 452 702 452 669 496 c 128,-1,15
 636 540 636 540 548 584 c 0,16,17
 472 620 472 620 395 663 c 128,-1,18
 318 706 318 706 244 768 c 0,19,20
 176 828 176 828 144 900 c 128,-1,21
 112 972 112 972 112 1088 c 0,22,23
 112 1282 112 1282 223 1394 c 128,-1,24
 334 1506 334 1506 526 1506 c 0,25,26
 730 1506 730 1506 826 1403 c 128,-1,27
 922 1300 922 1300 926 1114 c 1,28,-1
 686 1114 l 1,29,30
 690 1192 690 1192 643 1235 c 128,-1,31
 596 1278 596 1278 520 1278 c 0,32,33
 434 1278 434 1278 392 1240 c 128,-1,34
 350 1202 350 1202 350 1130 c 0,35,36
 350 1072 350 1072 375 1034 c 128,-1,37
 400 996 400 996 464 956 c 0,38,39
 510 928 510 928 559 906 c 128,-1,40
 608 884 608 884 655 861 c 128,-1,41
 702 838 702 838 748 809 c 128,-1,42
 794 780 794 780 834 742 c 0,43,44
 900 678 900 678 926 604 c 128,-1,45
 952 530 952 530 952 432 c 0,0,1
EndSplineSet
Validated: 33
EndChar

StartChar: T
Encoding: 84 84 56
Width: 1024
GlyphClass: 1
Flags: W
LayerCount: 2
Fore
SplineSet
968 1234 m 1,0,-1
 646 1234 l 1,1,-1
 646 0 l 1,2,-1
 378 0 l 1,3,-1
 378 1234 l 1,4,-1
 56 1234 l 1,5,-1
 56 1484 l 1,6,-1
 968 1484 l 1,7,-1
 968 1234 l 1,0,-1
EndSplineSet
Validated: 1
EndChar

StartChar: U
Encoding: 85 85 57
Width: 1024
GlyphClass: 1
Flags: W
LayerCount: 2
Fore
SplineSet
946 422 m 2,0,1
 946 192 946 192 830 86 c 128,-1,2
 714 -20 714 -20 514 -20 c 0,3,4
 308 -20 308 -20 193 88 c 128,-1,5
 78 196 78 196 78 422 c 2,6,-1
 78 1484 l 1,7,-1
 332 1484 l 1,8,-1
 332 436 l 2,9,10
 332 326 332 326 385 268 c 128,-1,11
 438 210 438 210 514 210 c 0,12,13
 588 210 588 210 642 268 c 128,-1,14
 696 326 696 326 696 436 c 2,15,-1
 696 1484 l 1,16,-1
 946 1484 l 1,17,-1
 946 422 l 2,0,1
EndSplineSet
Validated: 1
EndChar

StartChar: V
Encoding: 86 86 58
Width: 1024
GlyphClass: 1
Flags: W
LayerCount: 2
Fore
SplineSet
986 1484 m 1,0,-1
 646 0 l 1,1,-1
 382 0 l 1,2,-1
 38 1484 l 1,3,-1
 312 1484 l 1,4,-1
 520 516 l 1,5,-1
 734 1484 l 1,6,-1
 986 1484 l 1,0,-1
EndSplineSet
Validated: 1
EndChar

StartChar: W
Encoding: 87 87 59
Width: 1024
GlyphClass: 1
Flags: W
LayerCount: 2
Fore
SplineSet
1006 1484 m 1,0,-1
 816 0 l 1,1,-1
 636 0 l 1,2,-1
 514 626 l 1,3,-1
 388 0 l 1,4,-1
 202 0 l 1,5,-1
 20 1484 l 1,6,-1
 290 1484 l 1,7,-1
 358 670 l 1,8,-1
 514 1234 l 1,9,-1
 668 670 l 1,10,-1
 738 1484 l 1,11,-1
 1006 1484 l 1,0,-1
EndSplineSet
Validated: 1
EndChar

StartChar: X
Encoding: 88 88 60
Width: 1024
GlyphClass: 1
Flags: W
LayerCount: 2
Fore
SplineSet
964 0 m 1,0,-1
 650 0 l 1,1,-1
 506 476 l 1,2,-1
 360 0 l 1,3,-1
 60 0 l 1,4,-1
 358 744 l 1,5,-1
 60 1484 l 1,6,-1
 370 1484 l 1,7,-1
 522 1028 l 1,8,-1
 672 1484 l 1,9,-1
 964 1484 l 1,10,-1
 664 742 l 1,11,-1
 964 0 l 1,0,-1
EndSplineSet
Validated: 1
EndChar

StartChar: Y
Encoding: 89 89 61
Width: 1024
GlyphClass: 1
Flags: W
LayerCount: 2
Fore
SplineSet
1002 1484 m 1,0,-1
 646 592 l 1,1,-1
 646 0 l 1,2,-1
 378 0 l 1,3,-1
 378 592 l 1,4,-1
 24 1484 l 1,5,-1
 338 1484 l 1,6,-1
 518 942 l 1,7,-1
 696 1484 l 1,8,-1
 1002 1484 l 1,0,-1
EndSplineSet
Validated: 1
EndChar

StartChar: Z
Encoding: 90 90 62
Width: 1024
GlyphClass: 1
Flags: W
LayerCount: 2
Fore
SplineSet
964 1484 m 1,0,-1
 448 250 l 1,1,-1
 944 250 l 1,2,-1
 944 0 l 1,3,-1
 46 0 l 1,4,-1
 582 1248 l 1,5,-1
 82 1248 l 1,6,-1
 82 1484 l 1,7,-1
 964 1484 l 1,0,-1
EndSplineSet
Validated: 1
EndChar

StartChar: bracketleft
Encoding: 91 91 63
Width: 1024
GlyphClass: 1
Flags: W
LayerCount: 2
Fore
SplineSet
916 -408 m 1,0,-1
 526 -408 l 1,1,-1
 526 1676 l 1,2,-1
 916 1676 l 1,3,-1
 916 1512 l 1,4,-1
 724 1512 l 1,5,-1
 724 -244 l 1,6,-1
 916 -244 l 1,7,-1
 916 -408 l 1,0,-1
EndSplineSet
Validated: 1
EndChar

StartChar: backslash
Encoding: 92 92 64
Width: 1024
GlyphClass: 1
Flags: W
LayerCount: 2
Fore
SplineSet
16 1616 m 1,0,-1
 200 1616 l 1,1,-1
 1008 -346 l 1,2,-1
 824 -346 l 1,3,-1
 16 1616 l 1,0,-1
EndSplineSet
Validated: 1
EndChar

StartChar: bracketright
Encoding: 93 93 65
Width: 1024
GlyphClass: 1
Flags: W
LayerCount: 2
Fore
SplineSet
110 -244 m 1,0,-1
 302 -244 l 1,1,-1
 302 1512 l 1,2,-1
 110 1512 l 1,3,-1
 110 1676 l 1,4,-1
 500 1676 l 1,5,-1
 500 -408 l 1,6,-1
 110 -408 l 1,7,-1
 110 -244 l 1,0,-1
EndSplineSet
Validated: 1
EndChar

StartChar: asciicircum
Encoding: 94 94 66
Width: 1024
GlyphClass: 1
Flags: W
LayerCount: 2
Fore
SplineSet
260 820 m 1,0,-1
 80 820 l 1,1,-1
 418 1484 l 1,2,-1
 606 1484 l 1,3,-1
 944 820 l 1,4,-1
 762 820 l 1,5,-1
 512 1316 l 1,6,-1
 260 820 l 1,0,-1
EndSplineSet
Validated: 1
EndChar

StartChar: underscore
Encoding: 95 95 67
Width: 1024
GlyphClass: 1
Flags: W
LayerCount: 2
Fore
SplineSet
1024 -408 m 1,0,-1
 0 -408 l 1,1,-1
 0 -248 l 1,2,-1
 1024 -248 l 1,3,-1
 1024 -408 l 1,0,-1
EndSplineSet
Validated: 1
EndChar

StartChar: grave
Encoding: 96 96 68
Width: 1024
GlyphClass: 1
Flags: W
LayerCount: 2
Fore
SplineSet
268 1504 m 1,0,-1
 546 1504 l 1,1,-1
 758 1140 l 1,2,-1
 542 1140 l 1,3,-1
 268 1504 l 1,0,-1
EndSplineSet
Validated: 1
EndChar

StartChar: a
Encoding: 97 97 69
Width: 1024
GlyphClass: 1
Flags: W
LayerCount: 2
Fore
SplineSet
692 392 m 1,0,1
 662 410 662 410 615 424 c 128,-1,2
 568 438 568 438 514 438 c 0,3,4
 424 438 424 438 386 398 c 128,-1,5
 348 358 348 358 348 300 c 0,6,7
 348 232 348 232 390 202 c 128,-1,8
 432 172 432 172 504 172 c 0,9,10
 568 172 568 172 621 218 c 128,-1,11
 674 264 674 264 692 322 c 1,12,-1
 692 392 l 1,0,1
928 0 m 1,13,-1
 716 0 l 1,14,-1
 716 176 l 1,15,16
 682 96 682 96 613 38 c 128,-1,17
 544 -20 544 -20 432 -20 c 0,18,19
 342 -20 342 -20 279 3 c 128,-1,20
 216 26 216 26 176 68 c 128,-1,21
 136 110 136 110 117 169 c 128,-1,22
 98 228 98 228 98 300 c 0,23,24
 98 466 98 466 180 543 c 128,-1,25
 262 620 262 620 426 620 c 0,26,27
 536 620 536 620 598 605 c 128,-1,28
 660 590 660 590 692 562 c 1,29,-1
 692 672 l 2,30,31
 692 752 692 752 646 795 c 128,-1,32
 600 838 600 838 520 838 c 0,33,34
 396 838 396 838 356 724 c 1,35,-1
 140 794 l 1,36,37
 162 866 162 866 203 914 c 128,-1,38
 244 962 244 962 295 991 c 128,-1,39
 346 1020 346 1020 404 1031 c 128,-1,40
 462 1042 462 1042 518 1042 c 0,41,42
 628 1042 628 1042 706 1017 c 128,-1,43
 784 992 784 992 833 943 c 128,-1,44
 882 894 882 894 905 827 c 128,-1,45
 928 760 928 760 928 678 c 2,46,-1
 928 0 l 1,13,-1
EndSplineSet
Validated: 1
EndChar

StartChar: b
Encoding: 98 98 70
Width: 1024
GlyphClass: 1
Flags: W
LayerCount: 2
Fore
SplineSet
956 506 m 0,0,1
 956 364 956 364 931 264 c 128,-1,2
 906 164 906 164 862 101 c 128,-1,3
 818 38 818 38 756 9 c 128,-1,4
 694 -20 694 -20 620 -20 c 0,5,6
 534 -20 534 -20 455 37 c 128,-1,7
 376 94 376 94 330 218 c 1,8,-1
 330 0 l 1,9,-1
 102 0 l 1,10,-1
 102 1484 l 1,11,-1
 338 1484 l 1,12,-1
 338 804 l 1,13,14
 386 938 386 938 461 990 c 128,-1,15
 536 1042 536 1042 618 1042 c 0,16,17
 712 1042 712 1042 777 1006 c 128,-1,18
 842 970 842 970 882 901 c 128,-1,19
 922 832 922 832 939 732 c 128,-1,20
 956 632 956 632 956 506 c 0,0,1
708 516 m 256,21,22
 708 672 708 672 659 754 c 128,-1,23
 610 836 610 836 524 836 c 0,24,25
 484 836 484 836 449 811 c 128,-1,26
 414 786 414 786 389 743 c 128,-1,27
 364 700 364 700 351 641 c 128,-1,28
 338 582 338 582 338 514 c 0,29,30
 338 442 338 442 351 383 c 128,-1,31
 364 324 364 324 389 280 c 128,-1,32
 414 236 414 236 449 211 c 128,-1,33
 484 186 484 186 524 186 c 0,34,35
 606 186 606 186 657 273 c 128,-1,36
 708 360 708 360 708 516 c 256,21,22
EndSplineSet
Validated: 1
EndChar

StartChar: c
Encoding: 99 99 71
Width: 1024
GlyphClass: 1
Flags: W
LayerCount: 2
Fore
SplineSet
936 138 m 1,0,1
 874 56 874 56 789 18 c 128,-1,2
 704 -20 704 -20 588 -20 c 256,3,4
 472 -20 472 -20 377 19 c 128,-1,5
 282 58 282 58 216 127 c 128,-1,6
 150 196 150 196 114 295 c 128,-1,7
 78 394 78 394 78 510 c 256,8,9
 78 626 78 626 116 724 c 128,-1,10
 154 822 154 822 223 892 c 128,-1,11
 292 962 292 962 391 1002 c 128,-1,12
 490 1042 490 1042 610 1042 c 0,13,14
 668 1042 668 1042 719 1029 c 128,-1,15
 770 1016 770 1016 810 996 c 128,-1,16
 850 976 850 976 878 954 c 128,-1,17
 906 932 906 932 918 912 c 1,18,-1
 782 728 l 1,19,20
 754 762 754 762 709 783 c 128,-1,21
 664 804 664 804 590 804 c 0,22,23
 478 804 478 804 401 733 c 128,-1,24
 324 662 324 662 324 508 c 0,25,26
 324 364 324 364 398 290 c 128,-1,27
 472 216 472 216 590 216 c 0,28,29
 644 216 644 216 703 242 c 128,-1,30
 762 268 762 268 796 322 c 1,31,-1
 936 138 l 1,0,1
EndSplineSet
Validated: 1
EndChar

StartChar: d
Encoding: 100 100 72
Width: 1024
GlyphClass: 1
Flags: W
LayerCount: 2
Fore
SplineSet
68 506 m 0,0,1
 68 632 68 632 86 732 c 128,-1,2
 104 832 104 832 144 901 c 128,-1,3
 184 970 184 970 249 1006 c 128,-1,4
 314 1042 314 1042 406 1042 c 0,5,6
 488 1042 488 1042 563 990 c 128,-1,7
 638 938 638 938 688 804 c 1,8,-1
 688 1484 l 1,9,-1
 924 1484 l 1,10,-1
 924 0 l 1,11,-1
 696 0 l 1,12,-1
 696 218 l 1,13,14
 646 96 646 96 568 38 c 128,-1,15
 490 -20 490 -20 404 -20 c 0,16,17
 330 -20 330 -20 268 9 c 128,-1,18
 206 38 206 38 162 101 c 128,-1,19
 118 164 118 164 93 264 c 128,-1,20
 68 364 68 364 68 506 c 0,0,1
318 516 m 256,21,22
 318 360 318 360 368 273 c 128,-1,23
 418 186 418 186 502 186 c 0,24,25
 542 186 542 186 576 211 c 128,-1,26
 610 236 610 236 635 280 c 128,-1,27
 660 324 660 324 674 383 c 128,-1,28
 688 442 688 442 688 514 c 0,29,30
 688 582 688 582 674 641 c 128,-1,31
 660 700 660 700 635 743 c 128,-1,32
 610 786 610 786 576 811 c 128,-1,33
 542 836 542 836 502 836 c 0,34,35
 414 836 414 836 366 754 c 128,-1,36
 318 672 318 672 318 516 c 256,21,22
EndSplineSet
Validated: 1
EndChar

StartChar: e
Encoding: 101 101 73
Width: 1024
GlyphClass: 1
Flags: W
LayerCount: 2
Fore
SplineSet
314 458 m 1,0,1
 324 322 324 322 380 259 c 128,-1,2
 436 196 436 196 534 196 c 0,3,4
 650 196 650 196 698 308 c 1,5,-1
 926 252 l 1,6,7
 872 114 872 114 770 47 c 128,-1,8
 668 -20 668 -20 524 -20 c 0,9,10
 422 -20 422 -20 337 18 c 128,-1,11
 252 56 252 56 192 125 c 128,-1,12
 132 194 132 194 98 291 c 128,-1,13
 64 388 64 388 64 504 c 0,14,15
 64 630 64 630 98 731 c 128,-1,16
 132 832 132 832 192 900 c 128,-1,17
 252 968 252 968 335 1005 c 128,-1,18
 418 1042 418 1042 518 1042 c 0,19,20
 724 1042 724 1042 838 891 c 128,-1,21
 952 740 952 740 960 458 c 1,22,-1
 314 458 l 1,0,1
722 564 m 1,23,24
 718 688 718 688 662 756 c 128,-1,25
 606 824 606 824 520 824 c 0,26,27
 426 824 426 824 373 756 c 128,-1,28
 320 688 320 688 310 564 c 1,29,-1
 722 564 l 1,23,24
EndSplineSet
Validated: 1
EndChar

StartChar: f
Encoding: 102 102 74
Width: 1024
GlyphClass: 1
Flags: W
LayerCount: 2
Fore
SplineSet
950 1244 m 1,0,-1
 672 1244 l 2,1,2
 600 1244 600 1244 573 1214 c 128,-1,3
 546 1184 546 1184 546 1118 c 2,4,-1
 546 1020 l 1,5,-1
 790 1020 l 1,6,-1
 790 800 l 1,7,-1
 546 800 l 1,8,-1
 546 0 l 1,9,-1
 310 0 l 1,10,-1
 310 800 l 1,11,-1
 92 800 l 1,12,-1
 92 1020 l 1,13,-1
 310 1020 l 1,14,-1
 310 1136 l 2,15,16
 310 1324 310 1324 388 1404 c 128,-1,17
 466 1484 466 1484 626 1484 c 2,18,-1
 950 1484 l 1,19,-1
 950 1244 l 1,0,-1
EndSplineSet
Validated: 1
EndChar

StartChar: g
Encoding: 103 103 75
Width: 1024
GlyphClass: 1
Flags: W
LayerCount: 2
Fore
SplineSet
924 18 m 2,0,1
 924 -188 924 -188 809 -308 c 128,-1,2
 694 -428 694 -428 450 -428 c 0,3,4
 200 -428 200 -428 68 -270 c 1,5,-1
 168 -106 l 1,6,7
 292 -238 292 -238 450 -238 c 0,8,9
 560 -238 560 -238 628 -177 c 128,-1,10
 696 -116 696 -116 696 28 c 2,11,-1
 696 230 l 1,12,13
 646 96 646 96 580 38 c 128,-1,14
 514 -20 514 -20 424 -20 c 0,15,16
 348 -20 348 -20 284 18 c 128,-1,17
 220 56 220 56 171 124 c 128,-1,18
 122 192 122 192 96 290 c 128,-1,19
 70 388 70 388 70 508 c 0,20,21
 70 622 70 622 94 721 c 128,-1,22
 118 820 118 820 165 891 c 128,-1,23
 212 962 212 962 278 1002 c 128,-1,24
 344 1042 344 1042 428 1042 c 0,25,26
 536 1042 536 1042 597 988 c 128,-1,27
 658 934 658 934 700 816 c 1,28,-1
 700 1020 l 1,29,-1
 924 1020 l 1,30,-1
 924 18 l 2,0,1
692 508 m 0,31,32
 692 578 692 578 678 637 c 128,-1,33
 664 696 664 696 638 740 c 128,-1,34
 612 784 612 784 577 809 c 128,-1,35
 542 834 542 834 504 834 c 0,36,37
 464 834 464 834 429 809 c 128,-1,38
 394 784 394 784 369 740 c 128,-1,39
 344 696 344 696 331 637 c 128,-1,40
 318 578 318 578 318 510 c 256,41,42
 318 442 318 442 331 385 c 128,-1,43
 344 328 344 328 369 285 c 128,-1,44
 394 242 394 242 428 218 c 128,-1,45
 462 194 462 194 504 194 c 0,46,47
 544 194 544 194 579 219 c 128,-1,48
 614 244 614 244 639 286 c 128,-1,49
 664 328 664 328 678 385 c 128,-1,50
 692 442 692 442 692 508 c 0,31,32
EndSplineSet
Validated: 1
EndChar

StartChar: h
Encoding: 104 104 76
Width: 1024
GlyphClass: 1
Flags: W
LayerCount: 2
Fore
SplineSet
930 0 m 5,0,-1
 692 0 l 5,1,-1
 692 618 l 6,2,3
 692 716 692 716 651 769 c 132,-1,4
 610 822 610 822 526 822 c 4,5,6
 440 822 440 822 398 770 c 132,-1,7
 356 718 356 718 356 620 c 6,8,-1
 356 0 l 5,9,-1
 118 0 l 5,10,-1
 118 1484 l 5,11,-1
 356 1484 l 5,12,-1
 356 808 l 5,13,14
 410 934 410 934 493 988 c 132,-1,15
 576 1042 576 1042 672 1042 c 4,16,17
 802 1042 802 1042 866 958 c 132,-1,18
 930 874 930 874 930 722 c 6,19,-1
 930 0 l 5,0,-1
EndSplineSet
EndChar

StartChar: i
Encoding: 105 105 77
Width: 1024
GlyphClass: 1
Flags: W
LayerCount: 2
Fore
SplineSet
838 0 m 1,0,-1
 186 0 l 1,1,-1
 186 238 l 1,2,-1
 408 238 l 1,3,-1
 408 782 l 1,4,-1
 186 782 l 1,5,-1
 186 1020 l 1,6,-1
 644 1020 l 1,7,-1
 644 238 l 1,8,-1
 838 238 l 1,9,-1
 838 0 l 1,0,-1
658 1342 m 0,10,11
 658 1278 658 1278 624 1230 c 128,-1,12
 590 1182 590 1182 526 1182 c 0,13,14
 460 1182 460 1182 426 1230 c 128,-1,15
 392 1278 392 1278 392 1342 c 0,16,17
 392 1410 392 1410 426 1458 c 128,-1,18
 460 1506 460 1506 526 1506 c 0,19,20
 586 1506 586 1506 622 1457 c 128,-1,21
 658 1408 658 1408 658 1342 c 0,10,11
EndSplineSet
Validated: 1
EndChar

StartChar: j
Encoding: 106 106 78
Width: 1024
GlyphClass: 1
Flags: W
LayerCount: 2
Fore
SplineSet
774 -16 m 6,0,1
 770 -408 770 -408 468 -408 c 6,2,-1
 164 -408 l 5,3,-1
 164 -160 l 5,4,-1
 440 -160 l 6,5,6
 536 -160 536 -160 536 -16 c 6,7,-1
 536 782 l 5,8,-1
 244 782 l 5,9,-1
 244 1020 l 5,10,-1
 774 1020 l 5,11,-1
 774 -16 l 6,0,1
788 1342 m 4,12,13
 788 1278 788 1278 754 1230 c 132,-1,14
 720 1182 720 1182 656 1182 c 132,-1,15
 592 1182 592 1182 557 1230 c 132,-1,16
 522 1278 522 1278 522 1342 c 4,17,18
 522 1410 522 1410 557 1458 c 132,-1,19
 592 1506 592 1506 656 1506 c 4,20,21
 718 1506 718 1506 753 1457 c 132,-1,22
 788 1408 788 1408 788 1342 c 4,12,13
EndSplineSet
Validated: 1
EndChar

StartChar: k
Encoding: 107 107 79
Width: 1024
GlyphClass: 1
Flags: W
LayerCount: 2
Fore
SplineSet
934 0 m 1,0,-1
 636 0 l 1,1,-1
 350 492 l 1,2,-1
 350 0 l 1,3,-1
 112 0 l 1,4,-1
 112 1484 l 1,5,-1
 350 1484 l 1,6,-1
 350 590 l 1,7,-1
 632 1020 l 1,8,-1
 890 1020 l 1,9,-1
 586 572 l 1,10,-1
 934 0 l 1,0,-1
EndSplineSet
Validated: 1
EndChar

StartChar: l
Encoding: 108 108 80
Width: 1024
GlyphClass: 1
Flags: W
LayerCount: 2
Fore
SplineSet
676 0 m 1,0,-1
 438 0 l 1,1,-1
 438 1250 l 1,2,-1
 222 1250 l 1,3,-1
 222 1484 l 1,4,-1
 676 1484 l 1,5,-1
 676 0 l 1,0,-1
EndSplineSet
Validated: 1
EndChar

StartChar: m
Encoding: 109 109 81
Width: 1024
GlyphClass: 1
Flags: W
LayerCount: 2
Fore
SplineSet
968 0 m 1,0,-1
 732 0 l 1,1,-1
 732 742 l 2,2,3
 732 824 732 824 666 824 c 0,4,5
 594 824 594 824 594 742 c 2,6,-1
 594 0 l 1,7,-1
 430 0 l 1,8,-1
 430 742 l 2,9,10
 430 824 430 824 364 824 c 0,11,12
 294 824 294 824 294 742 c 2,13,-1
 294 0 l 1,14,-1
 56 0 l 1,15,-1
 56 1020 l 1,16,-1
 280 1020 l 1,17,-1
 280 858 l 1,18,19
 286 892 286 892 300 925 c 128,-1,20
 314 958 314 958 334 985 c 128,-1,21
 354 1012 354 1012 380 1027 c 128,-1,22
 406 1042 406 1042 438 1042 c 0,23,24
 506 1042 506 1042 540 996 c 128,-1,25
 574 950 574 950 590 868 c 1,26,27
 612 946 612 946 660 994 c 128,-1,28
 708 1042 708 1042 794 1042 c 0,29,30
 876 1042 876 1042 922 979 c 128,-1,31
 968 916 968 916 968 808 c 2,32,-1
 968 0 l 1,0,-1
EndSplineSet
Validated: 1
EndChar

StartChar: n
Encoding: 110 110 82
Width: 1024
GlyphClass: 1
Flags: W
LayerCount: 2
Fore
SplineSet
930 0 m 1,0,-1
 692 0 l 1,1,-1
 692 618 l 2,2,3
 692 716 692 716 651 769 c 128,-1,4
 610 822 610 822 526 822 c 0,5,6
 440 822 440 822 398 770 c 128,-1,7
 356 718 356 718 356 620 c 2,8,-1
 356 0 l 1,9,-1
 118 0 l 1,10,-1
 118 1020 l 1,11,-1
 356 1020 l 1,12,-1
 356 808 l 1,13,14
 410 934 410 934 493 988 c 128,-1,15
 576 1042 576 1042 672 1042 c 0,16,17
 802 1042 802 1042 866 958 c 128,-1,18
 930 874 930 874 930 722 c 2,19,-1
 930 0 l 1,0,-1
EndSplineSet
Validated: 1
EndChar

StartChar: o
Encoding: 111 111 83
Width: 1024
GlyphClass: 1
Flags: W
LayerCount: 2
Fore
SplineSet
950 510 m 0,0,1
 950 398 950 398 918 300 c 128,-1,2
 886 202 886 202 829 132 c 128,-1,3
 772 62 772 62 691 21 c 128,-1,4
 610 -20 610 -20 514 -20 c 0,5,6
 416 -20 416 -20 334 20 c 128,-1,7
 252 60 252 60 195 130 c 128,-1,8
 138 200 138 200 106 298 c 128,-1,9
 74 396 74 396 74 510 c 0,10,11
 74 622 74 622 105 720 c 128,-1,12
 136 818 136 818 193 889 c 128,-1,13
 250 960 250 960 332 1001 c 128,-1,14
 414 1042 414 1042 514 1042 c 0,15,16
 612 1042 612 1042 693 1001 c 128,-1,17
 774 960 774 960 830 888 c 128,-1,18
 886 816 886 816 918 718 c 128,-1,19
 950 620 950 620 950 510 c 0,0,1
702 510 m 0,20,21
 702 640 702 640 650 722 c 128,-1,22
 598 804 598 804 514 804 c 0,23,24
 470 804 470 804 435 782 c 128,-1,25
 400 760 400 760 375 720 c 128,-1,26
 350 680 350 680 337 626 c 128,-1,27
 324 572 324 572 324 508 c 0,28,29
 324 446 324 446 338 392 c 128,-1,30
 352 338 352 338 378 299 c 128,-1,31
 404 260 404 260 439 238 c 128,-1,32
 474 216 474 216 514 216 c 0,33,34
 600 216 600 216 651 297 c 128,-1,35
 702 378 702 378 702 510 c 0,20,21
EndSplineSet
Validated: 1
EndChar

StartChar: p
Encoding: 112 112 84
Width: 1024
GlyphClass: 1
Flags: W
LayerCount: 2
Fore
SplineSet
932 516 m 0,0,1
 932 390 932 390 913 289 c 128,-1,2
 894 188 894 188 855 120 c 128,-1,3
 816 52 816 52 751 16 c 128,-1,4
 686 -20 686 -20 594 -20 c 0,5,6
 512 -20 512 -20 436 31 c 128,-1,7
 360 82 360 82 314 216 c 1,8,-1
 314 -408 l 1,9,-1
 76 -408 l 1,10,-1
 76 1020 l 1,11,-1
 306 1020 l 1,12,-1
 306 802 l 1,13,14
 354 924 354 924 432 983 c 128,-1,15
 510 1042 510 1042 596 1042 c 0,16,17
 670 1042 670 1042 731 1013 c 128,-1,18
 792 984 792 984 836 921 c 128,-1,19
 880 858 880 858 906 758 c 128,-1,20
 932 658 932 658 932 516 c 0,0,1
684 506 m 256,21,22
 684 662 684 662 633 748 c 128,-1,23
 582 834 582 834 500 834 c 0,24,25
 460 834 460 834 425 809 c 128,-1,26
 390 784 390 784 365 741 c 128,-1,27
 340 698 340 698 327 638 c 128,-1,28
 314 578 314 578 314 508 c 0,29,30
 314 440 314 440 327 381 c 128,-1,31
 340 322 340 322 365 278 c 128,-1,32
 390 234 390 234 424 209 c 128,-1,33
 458 184 458 184 500 184 c 0,34,35
 586 184 586 184 635 267 c 128,-1,36
 684 350 684 350 684 506 c 256,21,22
EndSplineSet
Validated: 1
EndChar

StartChar: q
Encoding: 113 113 85
Width: 1024
GlyphClass: 1
Flags: W
LayerCount: 2
Fore
SplineSet
68 516 m 0,0,1
 68 658 68 658 93 758 c 128,-1,2
 118 858 118 858 162 921 c 128,-1,3
 206 984 206 984 268 1013 c 128,-1,4
 330 1042 330 1042 404 1042 c 0,5,6
 490 1042 490 1042 569 984 c 128,-1,7
 648 926 648 926 696 802 c 1,8,-1
 696 1020 l 1,9,-1
 924 1020 l 1,10,-1
 924 -408 l 1,11,-1
 688 -408 l 1,12,-1
 688 216 l 1,13,14
 638 82 638 82 563 31 c 128,-1,15
 488 -20 488 -20 406 -20 c 0,16,17
 314 -20 314 -20 249 16 c 128,-1,18
 184 52 184 52 144 120 c 128,-1,19
 104 188 104 188 86 289 c 128,-1,20
 68 390 68 390 68 516 c 0,0,1
318 506 m 256,21,22
 318 350 318 350 366 267 c 128,-1,23
 414 184 414 184 502 184 c 0,24,25
 542 184 542 184 576 209 c 128,-1,26
 610 234 610 234 635 278 c 128,-1,27
 660 322 660 322 674 381 c 128,-1,28
 688 440 688 440 688 508 c 0,29,30
 688 578 688 578 674 638 c 128,-1,31
 660 698 660 698 635 741 c 128,-1,32
 610 784 610 784 576 809 c 128,-1,33
 542 834 542 834 502 834 c 0,34,35
 418 834 418 834 368 748 c 128,-1,36
 318 662 318 662 318 506 c 256,21,22
EndSplineSet
Validated: 1
EndChar

StartChar: r
Encoding: 114 114 86
Width: 1024
GlyphClass: 1
Flags: W
LayerCount: 2
Fore
SplineSet
652 1042 m 0,0,1
 768 1042 768 1042 831 976 c 128,-1,2
 894 910 894 910 904 804 c 1,3,-1
 668 686 l 1,4,5
 642 804 642 804 528 804 c 0,6,7
 450 804 450 804 406 751 c 128,-1,8
 362 698 362 698 362 616 c 2,9,-1
 362 0 l 1,10,-1
 122 0 l 1,11,-1
 122 1020 l 1,12,-1
 348 1020 l 1,13,-1
 348 796 l 1,14,15
 406 932 406 932 480 987 c 128,-1,16
 554 1042 554 1042 652 1042 c 0,0,1
EndSplineSet
Validated: 1
EndChar

StartChar: s
Encoding: 115 115 87
Width: 1024
GlyphClass: 1
Flags: W
LayerCount: 2
Fore
SplineSet
898 310 m 256,0,1
 898 234 898 234 869 173 c 128,-1,2
 840 112 840 112 790 69 c 128,-1,3
 740 26 740 26 669 3 c 128,-1,4
 598 -20 598 -20 514 -20 c 0,5,6
 340 -20 340 -20 241 50 c 128,-1,7
 142 120 142 120 138 268 c 1,8,-1
 388 268 l 1,9,10
 388 208 388 208 422 180 c 128,-1,11
 456 152 456 152 520 152 c 0,12,13
 596 152 596 152 624 185 c 128,-1,14
 652 218 652 218 652 252 c 0,15,16
 652 300 652 300 621 331 c 128,-1,17
 590 362 590 362 508 398 c 0,18,19
 430 428 430 428 365 456 c 128,-1,20
 300 484 300 484 244 528 c 0,21,22
 196 564 196 564 169 617 c 128,-1,23
 142 670 142 670 142 736 c 0,24,25
 142 816 142 816 170 874 c 128,-1,26
 198 932 198 932 247 970 c 128,-1,27
 296 1008 296 1008 364 1025 c 128,-1,28
 432 1042 432 1042 510 1042 c 0,29,30
 654 1042 654 1042 753 974 c 128,-1,31
 852 906 852 906 868 774 c 1,32,-1
 626 774 l 1,33,34
 622 828 622 828 593 855 c 128,-1,35
 564 882 564 882 496 882 c 0,36,37
 430 882 430 882 402 854 c 128,-1,38
 374 826 374 826 374 788 c 0,39,40
 374 736 374 736 406 708 c 128,-1,41
 438 680 438 680 524 644 c 0,42,43
 628 600 628 600 691 573 c 128,-1,44
 754 546 754 546 794 518 c 0,45,46
 842 488 842 488 870 437 c 128,-1,47
 898 386 898 386 898 310 c 256,0,1
EndSplineSet
Validated: 1
EndChar

StartChar: t
Encoding: 116 116 88
Width: 1024
GlyphClass: 1
Flags: W
LayerCount: 2
Fore
SplineSet
884 0 m 1,0,-1
 588 0 l 2,1,2
 446 0 446 0 386 68 c 128,-1,3
 326 136 326 136 326 274 c 2,4,-1
 326 800 l 1,5,-1
 104 800 l 1,6,-1
 104 1020 l 1,7,-1
 326 1020 l 1,8,-1
 326 1300 l 1,9,-1
 562 1300 l 1,10,-1
 562 1020 l 1,11,-1
 796 1020 l 1,12,-1
 796 800 l 1,13,-1
 562 800 l 1,14,-1
 562 334 l 2,15,16
 562 288 562 288 579 264 c 128,-1,17
 596 240 596 240 644 240 c 2,18,-1
 884 240 l 1,19,-1
 884 0 l 1,0,-1
EndSplineSet
Validated: 1
EndChar

StartChar: u
Encoding: 117 117 89
Width: 1024
GlyphClass: 1
Flags: W
LayerCount: 2
Fore
SplineSet
928 376 m 2,0,1
 928 188 928 188 815 84 c 128,-1,2
 702 -20 702 -20 514 -20 c 0,3,4
 324 -20 324 -20 211 84 c 128,-1,5
 98 188 98 188 98 376 c 2,6,-1
 98 1020 l 1,7,-1
 336 1020 l 1,8,-1
 336 396 l 2,9,10
 336 344 336 344 351 309 c 128,-1,11
 366 274 366 274 391 252 c 128,-1,12
 416 230 416 230 448 219 c 128,-1,13
 480 208 480 208 514 208 c 0,14,15
 546 208 546 208 578 219 c 128,-1,16
 610 230 610 230 635 252 c 128,-1,17
 660 274 660 274 675 309 c 128,-1,18
 690 344 690 344 690 396 c 2,19,-1
 690 1020 l 1,20,-1
 928 1020 l 1,21,-1
 928 376 l 2,0,1
EndSplineSet
Validated: 1
EndChar

StartChar: v
Encoding: 118 118 90
Width: 1024
GlyphClass: 1
Flags: W
LayerCount: 2
Fore
SplineSet
974 1020 m 1,0,-1
 652 0 l 1,1,-1
 374 0 l 1,2,-1
 52 1020 l 1,3,-1
 320 1020 l 1,4,-1
 524 336 l 1,5,-1
 724 1020 l 1,6,-1
 974 1020 l 1,0,-1
EndSplineSet
Validated: 1
EndChar

StartChar: w
Encoding: 119 119 91
Width: 1024
GlyphClass: 1
Flags: W
LayerCount: 2
Fore
SplineSet
998 1020 m 1,0,-1
 794 0 l 1,1,-1
 608 0 l 1,2,-1
 512 396 l 1,3,-1
 414 0 l 1,4,-1
 230 0 l 1,5,-1
 28 1020 l 1,6,-1
 288 1020 l 1,7,-1
 392 460 l 1,8,-1
 520 1020 l 1,9,-1
 648 460 l 1,10,-1
 750 1020 l 1,11,-1
 998 1020 l 1,0,-1
EndSplineSet
Validated: 1
EndChar

StartChar: x
Encoding: 120 120 92
Width: 1024
GlyphClass: 1
Flags: W
LayerCount: 2
Fore
SplineSet
942 0 m 1,0,-1
 680 0 l 1,1,-1
 510 354 l 1,2,-1
 348 0 l 1,3,-1
 82 0 l 1,4,-1
 360 516 l 1,5,-1
 98 1020 l 1,6,-1
 356 1020 l 1,7,-1
 514 690 l 1,8,-1
 674 1020 l 1,9,-1
 932 1020 l 1,10,-1
 660 526 l 1,11,-1
 942 0 l 1,0,-1
EndSplineSet
Validated: 1
EndChar

StartChar: y
Encoding: 121 121 93
Width: 1024
GlyphClass: 1
Flags: W
LayerCount: 2
Fore
SplineSet
972 1020 m 1,0,-1
 544 -408 l 1,1,-1
 280 -408 l 1,2,-1
 392 -52 l 1,3,-1
 52 1020 l 1,4,-1
 320 1020 l 1,5,-1
 524 310 l 1,6,-1
 728 1020 l 1,7,-1
 972 1020 l 1,0,-1
EndSplineSet
Validated: 1
EndChar

StartChar: z
Encoding: 122 122 94
Width: 1024
GlyphClass: 1
Flags: W
LayerCount: 2
Fore
SplineSet
924 1020 m 1,0,-1
 484 222 l 1,1,-1
 910 222 l 1,2,-1
 910 0 l 1,3,-1
 82 0 l 1,4,-1
 534 798 l 1,5,-1
 122 798 l 1,6,-1
 122 1020 l 1,7,-1
 924 1020 l 1,0,-1
EndSplineSet
Validated: 1
EndChar

StartChar: braceleft
Encoding: 123 123 95
Width: 1024
GlyphClass: 1
Flags: W
LayerCount: 2
Fore
SplineSet
376 736 m 2,0,1
 476 736 476 736 525 793 c 128,-1,2
 574 850 574 850 574 1000 c 0,3,4
 574 1044 574 1044 571 1096 c 128,-1,5
 568 1148 568 1148 564 1204 c 128,-1,6
 560 1260 560 1260 556 1313 c 128,-1,7
 552 1366 552 1366 552 1412 c 0,8,9
 552 1542 552 1542 623 1609 c 128,-1,10
 694 1676 694 1676 854 1676 c 0,11,12
 866 1676 866 1676 882 1676 c 128,-1,13
 898 1676 898 1676 914 1674 c 1,14,-1
 914 1496 l 1,15,-1
 892 1496 l 2,16,17
 816 1496 816 1496 779 1451 c 128,-1,18
 742 1406 742 1406 742 1328 c 0,19,20
 742 1224 742 1224 749 1119 c 128,-1,21
 756 1014 756 1014 756 910 c 0,22,23
 756 800 756 800 700 728 c 128,-1,24
 644 656 644 656 552 632 c 1,25,26
 642 610 642 610 699 539 c 128,-1,27
 756 468 756 468 756 358 c 0,28,29
 756 254 756 254 749 150 c 128,-1,30
 742 46 742 46 742 -60 c 0,31,32
 742 -140 742 -140 780 -184 c 128,-1,33
 818 -228 818 -228 892 -228 c 2,34,-1
 914 -228 l 1,35,-1
 914 -406 l 1,36,37
 898 -408 898 -408 882 -408 c 128,-1,38
 866 -408 866 -408 854 -408 c 0,39,40
 694 -408 694 -408 623 -341 c 128,-1,41
 552 -274 552 -274 552 -146 c 0,42,43
 552 -100 552 -100 556 -46 c 128,-1,44
 560 8 560 8 564 63 c 128,-1,45
 568 118 568 118 571 171 c 128,-1,46
 574 224 574 224 574 266 c 0,47,48
 574 416 574 416 526 474 c 128,-1,49
 478 532 478 532 376 532 c 2,50,-1
 368 532 l 1,51,-1
 368 736 l 1,52,-1
 376 736 l 2,0,1
EndSplineSet
Validated: 1
EndChar

StartChar: bar
Encoding: 124 124 96
Width: 1024
GlyphClass: 1
Flags: W
LayerCount: 2
Fore
SplineSet
594 -346 m 1,0,-1
 430 -346 l 1,1,-1
 430 1616 l 1,2,-1
 594 1616 l 1,3,-1
 594 -346 l 1,0,-1
EndSplineSet
Validated: 1
EndChar

StartChar: braceright
Encoding: 125 125 97
Width: 1024
GlyphClass: 1
Flags: W
LayerCount: 2
Fore
SplineSet
656 736 m 1,0,-1
 656 532 l 1,1,-1
 648 532 l 2,2,3
 550 532 550 532 500 474 c 128,-1,4
 450 416 450 416 450 266 c 0,5,6
 450 222 450 222 453 170 c 128,-1,7
 456 118 456 118 460 63 c 128,-1,8
 464 8 464 8 468 -46 c 128,-1,9
 472 -100 472 -100 472 -146 c 0,10,11
 472 -276 472 -276 401 -342 c 128,-1,12
 330 -408 330 -408 172 -408 c 0,13,14
 160 -408 160 -408 145 -408 c 128,-1,15
 130 -408 130 -408 112 -406 c 1,16,-1
 112 -228 l 1,17,-1
 134 -228 l 2,18,19
 208 -228 208 -228 246 -184 c 128,-1,20
 284 -140 284 -140 284 -60 c 0,21,22
 284 44 284 44 276 149 c 128,-1,23
 268 254 268 254 268 358 c 0,24,25
 268 468 268 468 325 539 c 128,-1,26
 382 610 382 610 472 632 c 1,27,28
 384 654 384 654 326 726 c 128,-1,29
 268 798 268 798 268 910 c 0,30,31
 268 1014 268 1014 276 1118 c 128,-1,32
 284 1222 284 1222 284 1328 c 0,33,34
 284 1408 284 1408 245 1452 c 128,-1,35
 206 1496 206 1496 134 1496 c 2,36,-1
 112 1496 l 1,37,-1
 112 1674 l 1,38,39
 128 1676 128 1676 144 1676 c 128,-1,40
 160 1676 160 1676 172 1676 c 0,41,42
 330 1676 330 1676 401 1608 c 128,-1,43
 472 1540 472 1540 472 1412 c 0,44,45
 472 1366 472 1366 468 1313 c 128,-1,46
 464 1260 464 1260 460 1204 c 128,-1,47
 456 1148 456 1148 453 1095 c 128,-1,48
 450 1042 450 1042 450 1000 c 0,49,50
 450 850 450 850 499 793 c 128,-1,51
 548 736 548 736 648 736 c 2,52,-1
 656 736 l 1,0,-1
EndSplineSet
Validated: 1
EndChar

StartChar: asciitilde
Encoding: 126 126 98
Width: 1024
GlyphClass: 1
Flags: W
LayerCount: 2
Fore
SplineSet
46 768 m 1,0,1
 92 828 92 828 149 856 c 128,-1,2
 206 884 206 884 272 884 c 0,3,4
 308 884 308 884 374 865 c 128,-1,5
 440 846 440 846 513 822 c 128,-1,6
 586 798 586 798 652 779 c 128,-1,7
 718 760 718 760 756 760 c 0,8,9
 814 760 814 760 863 783 c 128,-1,10
 912 806 912 806 978 878 c 1,11,-1
 978 710 l 1,12,13
 934 650 934 650 876 622 c 128,-1,14
 818 594 818 594 752 594 c 0,15,16
 716 594 716 594 650 613 c 128,-1,17
 584 632 584 632 511 656 c 128,-1,18
 438 680 438 680 372 699 c 128,-1,19
 306 718 306 718 268 718 c 0,20,21
 240 718 240 718 214 713 c 128,-1,22
 188 708 188 708 162 695 c 128,-1,23
 136 682 136 682 108 659 c 128,-1,24
 80 636 80 636 46 600 c 1,25,-1
 46 768 l 1,0,1
EndSplineSet
Validated: 1
EndChar

StartChar: exclamdown
Encoding: 161 161 100
Width: 1024
GlyphClass: 1
Flags: W
LayerCount: 2
Fore
SplineSet
394 562 m 1,0,-1
 628 562 l 1,1,-1
 628 -408 l 1,2,-1
 394 -408 l 1,3,-1
 394 562 l 1,0,-1
378 930 m 0,4,5
 378 1002 378 1002 414 1050 c 128,-1,6
 450 1098 450 1098 512 1098 c 0,7,8
 572 1098 572 1098 609 1052 c 128,-1,9
 646 1006 646 1006 646 930 c 0,10,11
 646 862 646 862 611 810 c 128,-1,12
 576 758 576 758 512 758 c 0,13,14
 452 758 452 758 415 807 c 128,-1,15
 378 856 378 856 378 930 c 0,4,5
EndSplineSet
Validated: 1
EndChar

StartChar: cent
Encoding: 162 162 101
Width: 1024
GlyphClass: 1
Flags: W
LayerCount: 2
Fore
SplineSet
594 1500 m 1,0,1
 884 1464 884 1464 922 1112 c 1,2,-1
 666 1112 l 1,3,4
 660 1192 660 1192 616 1228 c 128,-1,5
 572 1264 572 1264 514 1264 c 0,6,7
 438 1264 438 1264 395 1215 c 128,-1,8
 352 1166 352 1166 352 1062 c 2,9,-1
 352 422 l 2,10,11
 352 320 352 320 395 271 c 128,-1,12
 438 222 438 222 514 222 c 0,13,14
 572 222 572 222 616 256 c 128,-1,15
 660 290 660 290 666 372 c 1,16,-1
 922 372 l 1,17,18
 886 22 886 22 594 -14 c 1,19,-1
 594 -206 l 1,20,-1
 430 -206 l 1,21,-1
 430 -14 l 1,22,23
 268 6 268 6 184 112 c 128,-1,24
 100 218 100 218 100 414 c 2,25,-1
 100 1072 l 2,26,27
 100 1266 100 1266 184 1372 c 128,-1,28
 268 1478 268 1478 430 1500 c 1,29,-1
 430 1692 l 1,30,-1
 594 1692 l 1,31,-1
 594 1500 l 1,0,1
EndSplineSet
Validated: 1
EndChar

StartChar: sterling
Encoding: 163 163 102
Width: 1024
GlyphClass: 1
Flags: W
LayerCount: 2
Fore
SplineSet
488 656 m 1,0,1
 504 606 504 606 515 552 c 128,-1,2
 526 498 526 498 526 424 c 0,3,4
 526 388 526 388 523 345 c 128,-1,5
 520 302 520 302 512 250 c 1,6,-1
 952 250 l 1,7,-1
 952 0 l 1,8,-1
 76 0 l 1,9,-1
 76 250 l 1,10,-1
 284 250 l 1,11,12
 298 320 298 320 300 382 c 0,13,14
 300 460 300 460 280 526 c 128,-1,15
 260 592 260 592 236 656 c 1,16,-1
 92 656 l 1,17,-1
 92 820 l 1,18,-1
 176 820 l 1,19,20
 160 876 160 876 149 936 c 128,-1,21
 138 996 138 996 138 1072 c 0,22,23
 138 1292 138 1292 244 1399 c 128,-1,24
 350 1506 350 1506 550 1506 c 0,25,26
 918 1506 918 1506 958 1112 c 1,27,-1
 702 1112 l 1,28,29
 698 1192 698 1192 653 1228 c 128,-1,30
 608 1264 608 1264 550 1264 c 0,31,32
 472 1264 472 1264 431 1215 c 128,-1,33
 390 1166 390 1166 390 1062 c 0,34,35
 390 984 390 984 400 926 c 128,-1,36
 410 868 410 868 426 820 c 1,37,-1
 838 820 l 1,38,-1
 838 656 l 1,39,-1
 488 656 l 1,0,1
EndSplineSet
Validated: 1
EndChar

StartChar: currency
Encoding: 164 164 103
Width: 1024
GlyphClass: 1
Flags: W
LayerCount: 2
Fore
SplineSet
876 736 m 0,0,1
 876 616 876 616 838 524 c 1,2,-1
 1038 326 l 1,3,-1
 924 208 l 1,4,-1
 750 380 l 1,5,6
 704 332 704 332 644 305 c 128,-1,7
 584 278 584 278 514 278 c 0,8,9
 440 278 440 278 379 306 c 128,-1,10
 318 334 318 334 270 382 c 1,11,-1
 100 210 l 1,12,-1
 -16 328 l 1,13,-1
 184 528 l 1,14,15
 150 620 150 620 150 736 c 0,16,17
 150 850 150 850 184 944 c 1,18,-1
 -16 1146 l 1,19,-1
 100 1264 l 1,20,-1
 270 1090 l 1,21,22
 318 1138 318 1138 379 1165 c 128,-1,23
 440 1192 440 1192 514 1192 c 0,24,25
 584 1192 584 1192 643 1165 c 128,-1,26
 702 1138 702 1138 748 1092 c 1,27,-1
 922 1266 l 1,28,-1
 1036 1148 l 1,29,-1
 836 948 l 1,30,31
 876 854 876 854 876 736 c 0,0,1
702 736 m 0,32,33
 702 866 702 866 650 948 c 128,-1,34
 598 1030 598 1030 514 1030 c 0,35,36
 470 1030 470 1030 435 1008 c 128,-1,37
 400 986 400 986 375 946 c 128,-1,38
 350 906 350 906 337 851 c 128,-1,39
 324 796 324 796 324 734 c 128,-1,40
 324 672 324 672 338 618 c 128,-1,41
 352 564 352 564 378 525 c 128,-1,42
 404 486 404 486 439 463 c 128,-1,43
 474 440 474 440 514 440 c 0,44,45
 600 440 600 440 651 522 c 128,-1,46
 702 604 702 604 702 736 c 0,32,33
EndSplineSet
Validated: 1
EndChar

StartChar: yen
Encoding: 165 165 104
Width: 1024
GlyphClass: 1
Flags: W
LayerCount: 2
Fore
SplineSet
646 200 m 1,0,-1
 646 0 l 1,1,-1
 378 0 l 1,2,-1
 378 200 l 1,3,-1
 56 200 l 1,4,-1
 56 364 l 1,5,-1
 378 364 l 1,6,-1
 378 552 l 1,7,-1
 56 552 l 1,8,-1
 56 716 l 1,9,-1
 330 716 l 1,10,-1
 24 1484 l 1,11,-1
 338 1484 l 1,12,-1
 518 942 l 1,13,-1
 696 1484 l 1,14,-1
 1002 1484 l 1,15,-1
 696 716 l 1,16,-1
 968 716 l 1,17,-1
 968 552 l 1,18,-1
 646 552 l 1,19,-1
 646 364 l 1,20,-1
 968 364 l 1,21,-1
 968 200 l 1,22,-1
 646 200 l 1,0,-1
EndSplineSet
Validated: 1
EndChar

StartChar: brokenbar
Encoding: 166 166 105
Width: 1024
GlyphClass: 1
Flags: W
LayerCount: 2
Fore
SplineSet
594 898 m 1,0,-1
 430 898 l 1,1,-1
 430 1616 l 1,2,-1
 594 1616 l 1,3,-1
 594 898 l 1,0,-1
594 -346 m 1,4,-1
 430 -346 l 1,5,-1
 430 372 l 1,6,-1
 594 372 l 1,7,-1
 594 -346 l 1,4,-1
EndSplineSet
Validated: 1
EndChar

StartChar: section
Encoding: 167 167 106
Width: 1024
GlyphClass: 1
Flags: W
LayerCount: 2
Fore
SplineSet
948 532 m 0,0,1
 948 416 948 416 911 329 c 128,-1,2
 874 242 874 242 802 190 c 1,3,4
 852 100 852 100 852 -16 c 0,5,6
 852 -204 852 -204 755 -316 c 128,-1,7
 658 -428 658 -428 476 -428 c 0,8,9
 290 -428 290 -428 196 -337 c 128,-1,10
 102 -246 102 -246 86 -58 c 1,11,-1
 308 -58 l 1,12,13
 318 -130 318 -130 359 -164 c 128,-1,14
 400 -198 400 -198 488 -198 c 0,15,16
 552 -198 552 -198 589 -159 c 128,-1,17
 626 -120 626 -120 626 -56 c 0,18,19
 626 0 626 0 597 40 c 128,-1,20
 568 80 568 80 490 120 c 0,21,22
 422 154 422 154 351 193 c 128,-1,23
 280 232 280 232 216 288 c 0,24,25
 154 342 154 342 125 408 c 128,-1,26
 96 474 96 474 96 578 c 0,27,28
 96 688 96 688 137 770 c 128,-1,29
 178 852 178 852 252 902 c 1,30,31
 192 982 192 982 192 1126 c 0,32,33
 192 1302 192 1302 292 1404 c 128,-1,34
 392 1506 392 1506 566 1506 c 0,35,36
 750 1506 750 1506 836 1412 c 128,-1,37
 922 1318 922 1318 924 1148 c 1,38,-1
 708 1148 l 1,39,40
 708 1220 708 1220 668 1259 c 128,-1,41
 628 1298 628 1298 560 1298 c 0,42,43
 406 1298 406 1298 406 1166 c 0,44,45
 406 1112 406 1112 428 1077 c 128,-1,46
 450 1042 450 1042 512 1006 c 0,47,48
 550 982 550 982 594 962 c 128,-1,49
 638 942 638 942 681 921 c 128,-1,50
 724 900 724 900 765 873 c 128,-1,51
 806 846 806 846 842 812 c 0,52,53
 902 754 902 754 925 686 c 128,-1,54
 948 618 948 618 948 532 c 0,0,1
414 456 m 0,55,56
 466 426 466 426 518 403 c 128,-1,57
 570 380 570 380 618 354 c 1,58,59
 666 364 666 364 694 400 c 128,-1,60
 722 436 722 436 722 494 c 0,61,62
 722 550 722 550 693 589 c 128,-1,63
 664 628 664 628 586 670 c 0,64,65
 548 688 548 688 511 706 c 128,-1,66
 474 724 474 724 434 748 c 1,67,68
 312 738 312 738 312 616 c 0,69,70
 312 562 312 562 333 527 c 128,-1,71
 354 492 354 492 414 456 c 0,55,56
EndSplineSet
Validated: 1
EndChar

StartChar: dieresis
Encoding: 168 168 107
Width: 1024
GlyphClass: 1
Flags: W
LayerCount: 2
Fore
SplineSet
864 1294 m 0,0,1
 864 1228 864 1228 829 1181 c 128,-1,2
 794 1134 794 1134 732 1134 c 0,3,4
 666 1134 666 1134 631 1181 c 128,-1,5
 596 1228 596 1228 596 1294 c 256,6,7
 596 1360 596 1360 631 1409 c 128,-1,8
 666 1458 666 1458 732 1458 c 0,9,10
 792 1458 792 1458 828 1408 c 128,-1,11
 864 1358 864 1358 864 1294 c 0,0,1
428 1294 m 0,12,13
 428 1228 428 1228 394 1181 c 128,-1,14
 360 1134 360 1134 296 1134 c 0,15,16
 230 1134 230 1134 196 1181 c 128,-1,17
 162 1228 162 1228 162 1294 c 256,18,19
 162 1360 162 1360 197 1409 c 128,-1,20
 232 1458 232 1458 296 1458 c 0,21,22
 356 1458 356 1458 392 1408 c 128,-1,23
 428 1358 428 1358 428 1294 c 0,12,13
EndSplineSet
Validated: 1
EndChar

StartChar: copyright
Encoding: 169 169 108
Width: 1024
GlyphClass: 1
Flags: W
LayerCount: 2
Fore
SplineSet
990 452 m 2,0,1
 990 226 990 226 867 103 c 128,-1,2
 744 -20 744 -20 514 -20 c 0,3,4
 276 -20 276 -20 155 109 c 128,-1,5
 34 238 34 238 34 452 c 2,6,-1
 34 1030 l 2,7,8
 34 1248 34 1248 155 1377 c 128,-1,9
 276 1506 276 1506 514 1506 c 0,10,11
 744 1506 744 1506 867 1382 c 128,-1,12
 990 1258 990 1258 990 1030 c 2,13,-1
 990 452 l 2,0,1
866 1030 m 2,14,15
 866 1198 866 1198 775 1289 c 128,-1,16
 684 1380 684 1380 514 1380 c 0,17,18
 336 1380 336 1380 248 1286 c 128,-1,19
 160 1192 160 1192 160 1030 c 2,20,-1
 160 452 l 2,21,22
 160 292 160 292 248 198 c 128,-1,23
 336 104 336 104 514 104 c 0,24,25
 684 104 684 104 775 195 c 128,-1,26
 866 286 866 286 866 452 c 2,27,-1
 866 1030 l 2,14,15
434 584 m 2,28,29
 434 484 434 484 516 484 c 0,30,31
 544 484 544 484 566 501 c 128,-1,32
 588 518 588 518 590 560 c 1,33,-1
 718 560 l 1,34,35
 698 364 698 364 516 362 c 0,36,37
 310 362 310 362 310 580 c 2,38,-1
 310 908 l 2,39,40
 310 1126 310 1126 516 1124 c 0,41,42
 698 1124 698 1124 718 928 c 1,43,-1
 590 928 l 1,44,45
 588 968 588 968 566 986 c 128,-1,46
 544 1004 544 1004 516 1004 c 0,47,48
 434 1004 434 1004 434 904 c 2,49,-1
 434 584 l 2,28,29
EndSplineSet
Validated: 33
EndChar

StartChar: ordfeminine
Encoding: 170 170 109
Width: 1024
GlyphClass: 1
Flags: W
LayerCount: 2
Fore
SplineSet
596 1138 m 1,0,1
 566 1158 566 1158 512 1160 c 0,2,3
 434 1160 434 1160 434 1096 c 0,4,5
 434 1068 434 1068 454 1055 c 128,-1,6
 474 1042 474 1042 508 1042 c 0,7,8
 536 1042 536 1042 561 1064 c 128,-1,9
 586 1086 586 1086 596 1112 c 1,10,-1
 596 1138 l 1,0,1
748 924 m 1,11,-1
 608 924 l 1,12,-1
 608 980 l 1,13,14
 588 952 588 952 554 932 c 128,-1,15
 520 912 520 912 468 912 c 0,16,17
 364 912 364 912 320 962 c 128,-1,18
 276 1012 276 1012 276 1096 c 0,19,20
 276 1282 276 1282 464 1282 c 0,21,22
 556 1282 556 1282 596 1260 c 1,23,-1
 596 1296 l 2,24,25
 596 1374 596 1374 516 1374 c 0,26,27
 458 1374 458 1374 436 1308 c 1,28,-1
 296 1354 l 1,29,30
 310 1400 310 1400 334 1429 c 128,-1,31
 358 1458 358 1458 388 1475 c 128,-1,32
 418 1492 418 1492 451 1500 c 128,-1,33
 484 1508 484 1508 514 1508 c 0,34,35
 644 1508 644 1508 696 1452 c 128,-1,36
 748 1396 748 1396 748 1300 c 2,37,-1
 748 924 l 1,11,-1
EndSplineSet
Validated: 1
EndChar

StartChar: guillemotleft
Encoding: 171 171 110
Width: 1024
GlyphClass: 1
Flags: W
LayerCount: 2
Fore
SplineSet
544 528 m 1,0,-1
 544 862 l 1,1,-1
 892 1088 l 1,2,-1
 892 872 l 1,3,-1
 672 692 l 1,4,-1
 892 516 l 1,5,-1
 892 304 l 1,6,-1
 544 528 l 1,0,-1
132 528 m 1,7,-1
 132 862 l 1,8,-1
 480 1088 l 1,9,-1
 480 872 l 1,10,-1
 256 692 l 1,11,-1
 480 516 l 1,12,-1
 480 304 l 1,13,-1
 132 528 l 1,7,-1
EndSplineSet
Validated: 1
EndChar

StartChar: logicalnot
Encoding: 172 172 111
Width: 1024
GlyphClass: 1
Flags: W
LayerCount: 2
Fore
SplineSet
804 72 m 1,0,-1
 804 656 l 1,1,-1
 56 656 l 1,2,-1
 56 820 l 1,3,-1
 968 820 l 1,4,-1
 968 72 l 1,5,-1
 804 72 l 1,0,-1
EndSplineSet
Validated: 1
EndChar

StartChar: registered
Encoding: 174 174 112
Width: 1024
GlyphClass: 1
Flags: W
LayerCount: 2
Fore
SplineSet
990 452 m 2,0,1
 990 226 990 226 867 103 c 128,-1,2
 744 -20 744 -20 514 -20 c 0,3,4
 276 -20 276 -20 155 109 c 128,-1,5
 34 238 34 238 34 452 c 2,6,-1
 34 1030 l 2,7,8
 34 1248 34 1248 155 1377 c 128,-1,9
 276 1506 276 1506 514 1506 c 0,10,11
 744 1506 744 1506 867 1382 c 128,-1,12
 990 1258 990 1258 990 1030 c 2,13,-1
 990 452 l 2,0,1
866 1030 m 2,14,15
 866 1198 866 1198 775 1289 c 128,-1,16
 684 1380 684 1380 514 1380 c 0,17,18
 336 1380 336 1380 248 1286 c 128,-1,19
 160 1192 160 1192 160 1030 c 2,20,-1
 160 452 l 2,21,22
 160 292 160 292 248 198 c 128,-1,23
 336 104 336 104 514 104 c 0,24,25
 684 104 684 104 775 195 c 128,-1,26
 866 286 866 286 866 452 c 2,27,-1
 866 1030 l 2,14,15
748 372 m 1,28,-1
 582 372 l 1,29,-1
 438 668 l 1,30,-1
 438 372 l 1,31,-1
 308 372 l 1,32,-1
 308 1114 l 1,33,-1
 512 1114 l 2,34,35
 614 1114 614 1114 673 1056 c 128,-1,36
 732 998 732 998 732 892 c 0,37,38
 732 800 732 800 692 752 c 128,-1,39
 652 704 652 704 584 686 c 1,40,-1
 748 372 l 1,28,-1
596 874 m 0,41,42
 596 944 596 944 568 969 c 128,-1,43
 540 994 540 994 488 994 c 2,44,-1
 438 994 l 1,45,-1
 438 750 l 1,46,-1
 502 750 l 2,47,48
 548 750 548 750 572 784 c 128,-1,49
 596 818 596 818 596 874 c 0,41,42
EndSplineSet
Validated: 1
EndChar

StartChar: macron
Encoding: 175 175 113
Width: 1024
GlyphClass: 1
Flags: W
LayerCount: 2
Fore
SplineSet
140 1166 m 1,0,-1
 140 1330 l 1,1,-1
 886 1330 l 1,2,-1
 886 1166 l 1,3,-1
 140 1166 l 1,0,-1
EndSplineSet
Validated: 1
EndChar

StartChar: degree
Encoding: 176 176 114
Width: 1024
GlyphClass: 1
Flags: W
LayerCount: 2
Fore
SplineSet
512 1506 m 256,0,1
 572 1506 572 1506 624 1485 c 128,-1,2
 676 1464 676 1464 716 1424 c 128,-1,3
 756 1384 756 1384 778 1324 c 128,-1,4
 800 1264 800 1264 800 1184 c 256,5,6
 800 1104 800 1104 778 1045 c 128,-1,7
 756 986 756 986 716 947 c 128,-1,8
 676 908 676 908 624 888 c 128,-1,9
 572 868 572 868 512 868 c 256,10,11
 452 868 452 868 400 888 c 128,-1,12
 348 908 348 908 308 947 c 128,-1,13
 268 986 268 986 245 1045 c 128,-1,14
 222 1104 222 1104 222 1184 c 256,15,16
 222 1264 222 1264 245 1324 c 128,-1,17
 268 1384 268 1384 308 1424 c 128,-1,18
 348 1464 348 1464 400 1485 c 128,-1,19
 452 1506 452 1506 512 1506 c 256,0,1
512 1380 m 256,20,21
 434 1380 434 1380 390 1334 c 128,-1,22
 346 1288 346 1288 346 1184 c 256,23,24
 346 1080 346 1080 390 1038 c 128,-1,25
 434 996 434 996 512 996 c 256,26,27
 590 996 590 996 634 1038 c 128,-1,28
 678 1080 678 1080 678 1184 c 256,29,30
 678 1288 678 1288 634 1334 c 128,-1,31
 590 1380 590 1380 512 1380 c 256,20,21
EndSplineSet
Validated: 1
EndChar

StartChar: acute
Encoding: 180 180 118
Width: 1024
GlyphClass: 1
Flags: W
LayerCount: 2
Fore
SplineSet
480 1140 m 1,0,-1
 266 1140 l 1,1,-1
 476 1504 l 1,2,-1
 754 1504 l 1,3,-1
 480 1140 l 1,0,-1
EndSplineSet
Validated: 1
EndChar

StartChar: paragraph
Encoding: 182 182 119
Width: 1024
GlyphClass: 1
Flags: W
LayerCount: 2
Fore
SplineSet
40 1180 m 0,0,1
 40 1320 40 1320 111 1402 c 128,-1,2
 182 1484 182 1484 318 1484 c 2,3,-1
 928 1484 l 1,4,-1
 928 -276 l 1,5,-1
 764 -276 l 1,6,-1
 764 1336 l 1,7,-1
 580 1336 l 1,8,-1
 580 -276 l 1,9,-1
 416 -276 l 1,10,-1
 416 868 l 1,11,-1
 320 868 l 2,12,13
 40 868 40 868 40 1180 c 0,0,1
210 1182 m 0,14,15
 210 1026 210 1026 338 1026 c 2,16,-1
 416 1026 l 1,17,-1
 416 1336 l 1,18,-1
 338 1336 l 2,19,20
 270 1336 270 1336 240 1298 c 128,-1,21
 210 1260 210 1260 210 1182 c 0,14,15
EndSplineSet
Validated: 1
EndChar

StartChar: cedilla
Encoding: 184 184 121
Width: 1024
GlyphClass: 1
Flags: W
LayerCount: 2
Fore
SplineSet
642 -88 m 1,0,-1
 524 -492 l 1,1,-1
 350 -448 l 1,2,-1
 428 -34 l 1,3,-1
 642 -88 l 1,0,-1
EndSplineSet
Validated: 1
EndChar

StartChar: ordmasculine
Encoding: 186 186 123
Width: 1024
GlyphClass: 1
Flags: W
LayerCount: 2
Fore
SplineSet
758 1204 m 0,0,1
 758 1142 758 1142 740 1088 c 128,-1,2
 722 1034 722 1034 690 994 c 128,-1,3
 658 954 658 954 613 931 c 128,-1,4
 568 908 568 908 512 908 c 256,5,6
 456 908 456 908 410 930 c 128,-1,7
 364 952 364 952 333 992 c 128,-1,8
 302 1032 302 1032 283 1086 c 128,-1,9
 264 1140 264 1140 264 1204 c 256,10,11
 264 1268 264 1268 282 1323 c 128,-1,12
 300 1378 300 1378 331 1418 c 128,-1,13
 362 1458 362 1458 408 1481 c 128,-1,14
 454 1504 454 1504 512 1504 c 256,15,16
 570 1504 570 1504 615 1480 c 128,-1,17
 660 1456 660 1456 691 1416 c 128,-1,18
 722 1376 722 1376 740 1322 c 128,-1,19
 758 1268 758 1268 758 1204 c 0,0,1
600 1204 m 0,20,21
 600 1270 600 1270 576 1311 c 128,-1,22
 552 1352 552 1352 512 1352 c 256,23,24
 472 1352 472 1352 447 1311 c 128,-1,25
 422 1270 422 1270 422 1204 c 0,26,27
 422 1142 422 1142 447 1100 c 128,-1,28
 472 1058 472 1058 512 1058 c 256,29,30
 552 1058 552 1058 576 1099 c 128,-1,31
 600 1140 600 1140 600 1204 c 0,20,21
EndSplineSet
Validated: 1
EndChar

StartChar: guillemotright
Encoding: 187 187 124
Width: 1024
GlyphClass: 1
Flags: W
LayerCount: 2
Fore
SplineSet
544 304 m 1,0,-1
 544 516 l 1,1,-1
 766 692 l 1,2,-1
 544 872 l 1,3,-1
 544 1088 l 1,4,-1
 892 862 l 1,5,-1
 892 528 l 1,6,-1
 544 304 l 1,0,-1
132 304 m 1,7,-1
 132 516 l 1,8,-1
 352 692 l 1,9,-1
 132 872 l 1,10,-1
 132 1088 l 1,11,-1
 480 862 l 1,12,-1
 480 528 l 1,13,-1
 132 304 l 1,7,-1
EndSplineSet
Validated: 1
EndChar

StartChar: questiondown
Encoding: 191 191 128
Width: 1024
GlyphClass: 1
Flags: W
LayerCount: 2
Fore
SplineSet
148 -40 m 0,0,1
 148 32 148 32 163 95 c 128,-1,2
 178 158 178 158 220 206 c 0,3,4
 266 262 266 262 305 299 c 128,-1,5
 344 336 344 336 373 368 c 128,-1,6
 402 400 402 400 419 432 c 128,-1,7
 436 464 436 464 436 514 c 2,8,-1
 436 542 l 1,9,-1
 674 542 l 1,10,-1
 674 466 l 2,11,12
 674 400 674 400 642 327 c 128,-1,13
 610 254 610 254 534 188 c 0,14,15
 494 154 494 154 467 126 c 128,-1,16
 440 98 440 98 424 72 c 128,-1,17
 408 46 408 46 402 17 c 128,-1,18
 396 -12 396 -12 396 -50 c 0,19,20
 396 -112 396 -112 423 -154 c 128,-1,21
 450 -196 450 -196 520 -196 c 0,22,23
 636 -196 636 -196 650 -40 c 1,24,-1
 880 -40 l 1,25,26
 878 -124 878 -124 852 -195 c 128,-1,27
 826 -266 826 -266 779 -318 c 128,-1,28
 732 -370 732 -370 665 -399 c 128,-1,29
 598 -428 598 -428 514 -428 c 0,30,31
 418 -428 418 -428 349 -398 c 128,-1,32
 280 -368 280 -368 235 -316 c 128,-1,33
 190 -264 190 -264 169 -193 c 128,-1,34
 148 -122 148 -122 148 -40 c 0,0,1
416 928 m 0,35,36
 416 1002 416 1002 454 1050 c 128,-1,37
 492 1098 492 1098 552 1098 c 0,38,39
 616 1098 616 1098 651 1046 c 128,-1,40
 686 994 686 994 686 928 c 0,41,42
 686 860 686 860 651 809 c 128,-1,43
 616 758 616 758 552 758 c 0,44,45
 484 758 484 758 450 809 c 128,-1,46
 416 860 416 860 416 928 c 0,35,36
EndSplineSet
Validated: 1
EndChar

StartChar: AE
Encoding: 198 198 135
Width: 1024
GlyphClass: 1
Flags: W
LayerCount: 2
Fore
SplineSet
508 0 m 1,0,-1
 508 238 l 1,1,-1
 290 238 l 1,2,-1
 256 0 l 1,3,-1
 10 0 l 1,4,-1
 220 1484 l 1,5,-1
 1006 1484 l 1,6,-1
 1006 1250 l 1,7,-1
 748 1250 l 1,8,-1
 748 870 l 1,9,-1
 1006 870 l 1,10,-1
 1006 630 l 1,11,-1
 748 630 l 1,12,-1
 748 250 l 1,13,-1
 1006 250 l 1,14,-1
 1006 0 l 1,15,-1
 508 0 l 1,0,-1
508 1250 m 1,16,-1
 408 1250 l 1,17,-1
 318 482 l 1,18,-1
 508 482 l 1,19,-1
 508 1250 l 1,16,-1
EndSplineSet
Validated: 1
EndChar

StartChar: Eth
Encoding: 208 208 145
Width: 1024
GlyphClass: 1
Flags: W
LayerCount: 2
Fore
SplineSet
948 454 m 2,0,1
 948 8 948 8 544 8 c 2,2,-1
 120 8 l 1,3,-1
 120 614 l 1,4,-1
 52 614 l 1,5,-1
 52 854 l 1,6,-1
 120 854 l 1,7,-1
 120 1484 l 1,8,-1
 544 1484 l 2,9,10
 948 1484 948 1484 948 1030 c 2,11,-1
 948 454 l 2,0,1
578 614 m 1,12,-1
 368 614 l 1,13,-1
 368 244 l 1,14,-1
 544 244 l 2,15,16
 702 244 702 244 702 468 c 2,17,-1
 702 1014 l 2,18,19
 702 1120 702 1120 660 1190 c 128,-1,20
 618 1260 618 1260 544 1260 c 2,21,-1
 368 1260 l 1,22,-1
 368 854 l 1,23,-1
 578 854 l 1,24,-1
 578 614 l 1,12,-1
EndSplineSet
Validated: 1
EndChar

StartChar: multiply
Encoding: 215 215 152
Width: 1024
GlyphClass: 1
Flags: W
LayerCount: 2
Fore
SplineSet
134 468 m 1,0,-1
 400 738 l 1,1,-1
 136 1002 l 1,2,-1
 248 1118 l 1,3,-1
 514 854 l 1,4,-1
 778 1116 l 1,5,-1
 894 1000 l 1,6,-1
 628 738 l 1,7,-1
 894 472 l 1,8,-1
 778 356 l 1,9,-1
 514 620 l 1,10,-1
 248 354 l 1,11,-1
 134 468 l 1,0,-1
EndSplineSet
Validated: 1
EndChar

StartChar: Oslash
Encoding: 216 216 153
Width: 1024
GlyphClass: 1
Flags: W
LayerCount: 2
Fore
SplineSet
878 1308 m 1,0,1
 940 1198 940 1198 940 1030 c 2,2,-1
 940 452 l 2,3,4
 940 226 940 226 829 103 c 128,-1,5
 718 -20 718 -20 514 -20 c 0,6,7
 360 -20 360 -20 260 48 c 1,8,-1
 178 -124 l 1,9,-1
 0 -124 l 1,10,-1
 148 176 l 1,11,12
 84 290 84 290 84 452 c 2,13,-1
 84 1030 l 2,14,15
 84 1248 84 1248 193 1377 c 128,-1,16
 302 1506 302 1506 514 1506 c 0,17,18
 664 1506 664 1506 762 1438 c 1,19,-1
 846 1610 l 1,20,-1
 1024 1610 l 1,21,-1
 878 1308 l 1,0,1
336 562 m 1,22,-1
 652 1208 l 1,23,24
 628 1244 628 1244 592 1262 c 128,-1,25
 556 1280 556 1280 514 1280 c 0,26,27
 438 1280 438 1280 387 1229 c 128,-1,28
 336 1178 336 1178 336 1072 c 2,29,-1
 336 562 l 1,22,-1
514 204 m 0,30,31
 588 204 588 204 639 257 c 128,-1,32
 690 310 690 310 690 414 c 2,33,-1
 690 922 l 1,34,-1
 372 272 l 1,35,36
 394 238 394 238 431 221 c 128,-1,37
 468 204 468 204 514 204 c 0,30,31
EndSplineSet
Validated: 1
EndChar

StartChar: Thorn
Encoding: 222 222 159
Width: 1024
GlyphClass: 1
Flags: W
LayerCount: 2
Fore
SplineSet
960 754 m 256,0,1
 960 506 960 506 853 382 c 128,-1,2
 746 258 746 258 520 258 c 2,3,-1
 366 258 l 1,4,-1
 366 0 l 1,5,-1
 104 0 l 1,6,-1
 104 1484 l 1,7,-1
 366 1484 l 1,8,-1
 366 1250 l 1,9,-1
 520 1250 l 2,10,11
 746 1250 746 1250 853 1126 c 128,-1,12
 960 1002 960 1002 960 754 c 256,0,1
692 754 m 256,13,14
 692 998 692 998 490 998 c 2,15,-1
 366 998 l 1,16,-1
 366 510 l 1,17,-1
 490 510 l 2,18,19
 692 510 692 510 692 754 c 256,13,14
EndSplineSet
Validated: 1
EndChar

StartChar: germandbls
Encoding: 223 223 160
Width: 1024
GlyphClass: 1
Flags: W
LayerCount: 2
Fore
SplineSet
342 0 m 1,0,-1
 126 0 l 1,1,-1
 126 1126 l 2,2,3
 126 1210 126 1210 155 1280 c 128,-1,4
 184 1350 184 1350 235 1400 c 128,-1,5
 286 1450 286 1450 358 1478 c 128,-1,6
 430 1506 430 1506 514 1506 c 0,7,8
 600 1506 600 1506 673 1478 c 128,-1,9
 746 1450 746 1450 797 1397 c 128,-1,10
 848 1344 848 1344 877 1268 c 128,-1,11
 906 1192 906 1192 906 1096 c 0,12,13
 906 966 906 966 860 896 c 128,-1,14
 814 826 814 826 742 782 c 1,15,16
 836 742 836 742 887 660 c 128,-1,17
 938 578 938 578 938 436 c 0,18,19
 938 334 938 334 909 249 c 128,-1,20
 880 164 880 164 827 105 c 128,-1,21
 774 46 774 46 695 13 c 128,-1,22
 616 -20 616 -20 516 -20 c 1,23,-1
 516 218 l 1,24,25
 594 218 594 218 649 278 c 128,-1,26
 704 338 704 338 704 448 c 256,27,28
 704 558 704 558 654 621 c 128,-1,29
 604 684 604 684 536 684 c 1,30,-1
 536 868 l 1,31,32
 604 868 604 868 649 922 c 128,-1,33
 694 976 694 976 694 1076 c 0,34,35
 694 1168 694 1168 650 1225 c 128,-1,36
 606 1282 606 1282 514 1282 c 0,37,38
 440 1282 440 1282 391 1235 c 128,-1,39
 342 1188 342 1188 342 1092 c 2,40,-1
 342 0 l 1,0,-1
EndSplineSet
Validated: 1
EndChar

StartChar: ae
Encoding: 230 230 167
Width: 1024
GlyphClass: 1
Flags: W
LayerCount: 2
Fore
SplineSet
500 176 m 1,0,1
 472 78 472 78 407 29 c 128,-1,2
 342 -20 342 -20 260 -20 c 0,3,4
 156 -20 156 -20 85 53 c 128,-1,5
 14 126 14 126 14 300 c 0,6,7
 14 366 14 366 26 425 c 128,-1,8
 38 484 38 484 66 528 c 128,-1,9
 94 572 94 572 137 597 c 128,-1,10
 180 622 180 622 244 622 c 0,11,12
 334 622 334 622 402 538 c 1,13,-1
 402 672 l 2,14,15
 402 754 402 754 381 791 c 128,-1,16
 360 828 360 828 320 828 c 0,17,18
 282 828 282 828 259 806 c 128,-1,19
 236 784 236 784 220 724 c 1,20,-1
 48 794 l 1,21,22
 88 928 88 928 154 985 c 128,-1,23
 220 1042 220 1042 306 1042 c 0,24,25
 380 1042 380 1042 428 1009 c 128,-1,26
 476 976 476 976 510 908 c 1,27,28
 550 974 550 974 604 1008 c 128,-1,29
 658 1042 658 1042 732 1042 c 0,30,31
 864 1042 864 1042 936 903 c 128,-1,32
 1008 764 1008 764 1012 458 c 1,33,-1
 604 458 l 1,34,35
 604 310 604 310 635 246 c 128,-1,36
 666 182 666 182 712 182 c 0,37,38
 746 182 746 182 768 207 c 128,-1,39
 790 232 790 232 806 294 c 1,40,-1
 984 240 l 1,41,42
 968 192 968 192 946 146 c 128,-1,43
 924 100 924 100 892 63 c 128,-1,44
 860 26 860 26 817 3 c 128,-1,45
 774 -20 774 -20 712 -20 c 0,46,47
 630 -20 630 -20 573 30 c 128,-1,48
 516 80 516 80 500 176 c 1,0,1
826 564 m 1,49,50
 822 706 822 706 796 764 c 128,-1,51
 770 822 770 822 722 822 c 0,52,53
 672 822 672 822 640 763 c 128,-1,54
 608 704 608 704 602 564 c 1,55,-1
 826 564 l 1,49,50
402 392 m 1,56,57
 350 438 350 438 300 436 c 0,58,59
 214 436 214 436 212 300 c 0,60,61
 212 244 212 244 233 208 c 128,-1,62
 254 172 254 172 288 172 c 0,63,64
 320 172 320 172 351 210 c 128,-1,65
 382 248 382 248 402 308 c 1,66,-1
 402 392 l 1,56,57
EndSplineSet
Validated: 33
EndChar

StartChar: eth
Encoding: 240 240 177
Width: 1024
GlyphClass: 1
Flags: W
LayerCount: 2
Fore
SplineSet
922 1380 m 1,0,-1
 768 1298 l 1,1,2
 792 1246 792 1246 814 1196 c 128,-1,3
 836 1146 836 1146 856 1096 c 0,4,5
 908 948 908 948 929 798 c 128,-1,6
 950 648 950 648 950 486 c 0,7,8
 950 378 950 378 918 285 c 128,-1,9
 886 192 886 192 829 125 c 128,-1,10
 772 58 772 58 691 19 c 128,-1,11
 610 -20 610 -20 514 -20 c 0,12,13
 416 -20 416 -20 334 18 c 128,-1,14
 252 56 252 56 195 123 c 128,-1,15
 138 190 138 190 106 283 c 128,-1,16
 74 376 74 376 74 486 c 0,17,18
 74 592 74 592 105 684 c 128,-1,19
 136 776 136 776 193 844 c 128,-1,20
 250 912 250 912 332 951 c 128,-1,21
 414 990 414 990 514 990 c 0,22,23
 584 990 584 990 648 966 c 1,24,25
 632 1026 632 1026 613 1082 c 128,-1,26
 594 1138 594 1138 572 1194 c 1,27,-1
 414 1110 l 1,28,-1
 360 1212 l 1,29,-1
 524 1300 l 1,30,31
 504 1338 504 1338 481 1376 c 128,-1,32
 458 1414 458 1414 436 1450 c 1,33,-1
 624 1546 l 1,34,35
 646 1510 646 1510 670 1474 c 128,-1,36
 694 1438 694 1438 714 1400 c 1,37,-1
 866 1482 l 1,38,-1
 922 1380 l 1,0,-1
702 492 m 0,39,40
 702 612 702 612 650 690 c 128,-1,41
 598 768 598 768 514 768 c 0,42,43
 426 768 426 768 375 688 c 128,-1,44
 324 608 324 608 324 490 c 0,45,46
 324 430 324 430 338 380 c 128,-1,47
 352 330 352 330 378 293 c 128,-1,48
 404 256 404 256 439 236 c 128,-1,49
 474 216 474 216 514 216 c 0,50,51
 600 216 600 216 651 293 c 128,-1,52
 702 370 702 370 702 492 c 0,39,40
EndSplineSet
Validated: 1
EndChar

StartChar: oslash
Encoding: 248 248 185
Width: 1024
GlyphClass: 1
Flags: W
LayerCount: 2
Fore
SplineSet
842 870 m 1,0,1
 896 798 896 798 923 706 c 128,-1,2
 950 614 950 614 950 510 c 0,3,4
 950 398 950 398 918 300 c 128,-1,5
 886 202 886 202 829 132 c 128,-1,6
 772 62 772 62 691 21 c 128,-1,7
 610 -20 610 -20 514 -20 c 0,8,9
 388 -20 388 -20 294 40 c 1,10,-1
 184 -124 l 1,11,-1
 0 -124 l 1,12,-1
 180 150 l 1,13,14
 128 220 128 220 101 311 c 128,-1,15
 74 402 74 402 74 510 c 0,16,17
 74 622 74 622 105 720 c 128,-1,18
 136 818 136 818 193 889 c 128,-1,19
 250 960 250 960 332 1001 c 128,-1,20
 414 1042 414 1042 514 1042 c 0,21,22
 574 1042 574 1042 628 1025 c 128,-1,23
 682 1008 682 1008 730 976 c 1,24,-1
 840 1144 l 1,25,-1
 1024 1144 l 1,26,-1
 842 870 l 1,0,1
702 510 m 0,27,28
 702 574 702 574 686 632 c 1,29,-1
 428 244 l 1,30,31
 466 216 466 216 514 216 c 0,32,33
 600 216 600 216 651 297 c 128,-1,34
 702 378 702 378 702 510 c 0,27,28
324 508 m 0,35,36
 324 436 324 436 338 388 c 1,37,-1
 596 778 l 1,38,39
 556 804 556 804 514 804 c 0,40,41
 470 804 470 804 435 782 c 128,-1,42
 400 760 400 760 375 720 c 128,-1,43
 350 680 350 680 337 626 c 128,-1,44
 324 572 324 572 324 508 c 0,35,36
EndSplineSet
Validated: 1
EndChar

StartChar: thorn
Encoding: 254 254 191
Width: 1024
GlyphClass: 1
Flags: W
LayerCount: 2
Fore
SplineSet
84 1484 m 1,0,-1
 322 1484 l 1,1,-1
 322 804 l 1,2,3
 370 938 370 938 445 990 c 128,-1,4
 520 1042 520 1042 602 1042 c 0,5,6
 694 1042 694 1042 758 1006 c 128,-1,7
 822 970 822 970 863 903 c 128,-1,8
 904 836 904 836 922 737 c 128,-1,9
 940 638 940 638 940 514 c 0,10,11
 940 258 940 258 863 119 c 128,-1,12
 786 -20 786 -20 602 -20 c 0,13,14
 520 -20 520 -20 444 31 c 128,-1,15
 368 82 368 82 322 216 c 1,16,-1
 322 -408 l 1,17,-1
 84 -408 l 1,18,-1
 84 1484 l 1,0,-1
692 516 m 0,19,20
 692 672 692 672 643 754 c 128,-1,21
 594 836 594 836 508 836 c 0,22,23
 468 836 468 836 433 811 c 128,-1,24
 398 786 398 786 373 743 c 128,-1,25
 348 700 348 700 335 641 c 128,-1,26
 322 582 322 582 322 514 c 2,27,-1
 322 508 l 2,28,29
 322 440 322 440 335 381 c 128,-1,30
 348 322 348 322 373 278 c 128,-1,31
 398 234 398 234 432 209 c 128,-1,32
 466 184 466 184 508 184 c 0,33,34
 594 184 594 184 643 268 c 128,-1,35
 692 352 692 352 692 516 c 0,19,20
EndSplineSet
Validated: 1
EndChar

StartChar: Aogonek
Encoding: 260 260 197
Width: 1024
GlyphClass: 1
Flags: W
LayerCount: 2
Fore
SplineSet
958 -492 m 1,0,-1
 594 -492 l 2,1,2
 536 -492 536 -492 495 -475 c 128,-1,3
 454 -458 454 -458 428 -433 c 128,-1,4
 402 -408 402 -408 389 -374 c 128,-1,5
 376 -340 376 -340 376 -306 c 0,6,7
 376 -252 376 -252 403 -204 c 128,-1,8
 430 -156 430 -156 480 -130 c 2,9,-1
 678 -22 l 1,10,-1
 624 240 l 1,11,-1
 382 240 l 1,12,-1
 332 0 l 1,13,-1
 66 0 l 1,14,-1
 378 1484 l 1,15,-1
 644 1484 l 1,16,-1
 958 0 l 1,17,-1
 650 -164 l 2,18,19
 624 -178 624 -178 622 -206 c 0,20,21
 622 -222 622 -222 635 -236 c 128,-1,22
 648 -250 648 -250 674 -250 c 2,23,-1
 958 -250 l 1,24,-1
 958 -492 l 1,0,-1
584 472 m 1,25,-1
 506 942 l 1,26,-1
 422 472 l 1,27,-1
 584 472 l 1,25,-1
EndSplineSet
Validated: 1
EndChar

StartChar: aogonek
Encoding: 261 261 198
Width: 1024
GlyphClass: 1
Flags: W
LayerCount: 2
Fore
SplineSet
928 -492 m 1,0,-1
 564 -492 l 2,1,2
 506 -492 506 -492 465 -475 c 128,-1,3
 424 -458 424 -458 397 -433 c 128,-1,4
 370 -408 370 -408 358 -374 c 128,-1,5
 346 -340 346 -340 346 -306 c 0,6,7
 346 -252 346 -252 373 -203 c 128,-1,8
 400 -154 400 -154 446 -130 c 2,9,-1
 716 12 l 1,10,-1
 716 176 l 1,11,12
 682 96 682 96 613 38 c 128,-1,13
 544 -20 544 -20 432 -20 c 0,14,15
 342 -20 342 -20 279 3 c 128,-1,16
 216 26 216 26 176 68 c 128,-1,17
 136 110 136 110 117 169 c 128,-1,18
 98 228 98 228 98 300 c 0,19,20
 98 466 98 466 180 543 c 128,-1,21
 262 620 262 620 426 620 c 0,22,23
 536 620 536 620 598 605 c 128,-1,24
 660 590 660 590 692 562 c 1,25,-1
 692 672 l 2,26,27
 692 752 692 752 646 795 c 128,-1,28
 600 838 600 838 520 838 c 0,29,30
 396 838 396 838 356 724 c 1,31,-1
 140 794 l 1,32,33
 162 866 162 866 203 914 c 128,-1,34
 244 962 244 962 295 991 c 128,-1,35
 346 1020 346 1020 404 1031 c 128,-1,36
 462 1042 462 1042 518 1042 c 0,37,38
 628 1042 628 1042 706 1017 c 128,-1,39
 784 992 784 992 833 943 c 128,-1,40
 882 894 882 894 905 827 c 128,-1,41
 928 760 928 760 928 678 c 2,42,-1
 928 0 l 1,43,-1
 618 -164 l 2,44,45
 592 -178 592 -178 592 -206 c 0,46,47
 592 -222 592 -222 604 -236 c 128,-1,48
 616 -250 616 -250 642 -250 c 2,49,-1
 928 -250 l 1,50,-1
 928 -492 l 1,0,-1
692 392 m 1,51,52
 662 410 662 410 615 424 c 128,-1,53
 568 438 568 438 514 438 c 0,54,55
 424 438 424 438 386 398 c 128,-1,56
 348 358 348 358 348 300 c 0,57,58
 348 232 348 232 390 202 c 128,-1,59
 432 172 432 172 504 172 c 0,60,61
 568 172 568 172 621 218 c 128,-1,62
 674 264 674 264 692 322 c 1,63,-1
 692 392 l 1,51,52
EndSplineSet
Validated: 1
EndChar

StartChar: dmacron
Encoding: 273 273 208
Width: 1024
GlyphClass: 1
Flags: W
LayerCount: 2
Fore
SplineSet
924 1250 m 1,0,-1
 924 0 l 1,1,-1
 696 0 l 1,2,-1
 696 218 l 1,3,4
 646 96 646 96 568 38 c 128,-1,5
 490 -20 490 -20 404 -20 c 0,6,7
 330 -20 330 -20 268 9 c 128,-1,8
 206 38 206 38 162 101 c 128,-1,9
 118 164 118 164 93 264 c 128,-1,10
 68 364 68 364 68 506 c 0,11,12
 68 632 68 632 86 732 c 128,-1,13
 104 832 104 832 144 901 c 128,-1,14
 184 970 184 970 249 1006 c 128,-1,15
 314 1042 314 1042 406 1042 c 0,16,17
 488 1042 488 1042 563 990 c 128,-1,18
 638 938 638 938 688 804 c 1,19,-1
 688 1250 l 1,20,-1
 276 1250 l 1,21,-1
 276 1412 l 1,22,-1
 688 1412 l 1,23,-1
 688 1484 l 1,24,-1
 924 1484 l 1,25,-1
 924 1412 l 1,26,-1
 1024 1412 l 1,27,-1
 1024 1250 l 1,28,-1
 924 1250 l 1,0,-1
318 516 m 256,29,30
 318 360 318 360 368 273 c 128,-1,31
 418 186 418 186 502 186 c 0,32,33
 542 186 542 186 576 211 c 128,-1,34
 610 236 610 236 635 280 c 128,-1,35
 660 324 660 324 674 383 c 128,-1,36
 688 442 688 442 688 514 c 0,37,38
 688 582 688 582 674 641 c 128,-1,39
 660 700 660 700 635 743 c 128,-1,40
 610 786 610 786 576 811 c 128,-1,41
 542 836 542 836 502 836 c 0,42,43
 414 836 414 836 366 754 c 128,-1,44
 318 672 318 672 318 516 c 256,29,30
EndSplineSet
Validated: 1
EndChar

StartChar: Eogonek
Encoding: 280 280 215
Width: 1024
GlyphClass: 1
Flags: W
LayerCount: 2
Fore
SplineSet
890 -492 m 1,0,-1
 526 -492 l 2,1,2
 468 -492 468 -492 428 -475 c 128,-1,3
 388 -458 388 -458 361 -433 c 128,-1,4
 334 -408 334 -408 322 -374 c 128,-1,5
 310 -340 310 -340 310 -306 c 0,6,7
 310 -252 310 -252 336 -204 c 128,-1,8
 362 -156 362 -156 410 -130 c 2,9,-1
 654 0 l 1,10,-1
 138 0 l 1,11,-1
 138 1484 l 1,12,-1
 890 1484 l 1,13,-1
 890 1250 l 1,14,-1
 402 1250 l 1,15,-1
 402 870 l 1,16,-1
 788 870 l 1,17,-1
 788 630 l 1,18,-1
 402 630 l 1,19,-1
 402 250 l 1,20,-1
 890 250 l 1,21,-1
 890 0 l 1,22,-1
 582 -164 l 2,23,24
 556 -178 556 -178 556 -206 c 0,25,26
 556 -222 556 -222 568 -236 c 128,-1,27
 580 -250 580 -250 604 -250 c 2,28,-1
 890 -250 l 1,29,-1
 890 -492 l 1,0,-1
EndSplineSet
Validated: 1
EndChar

StartChar: eogonek
Encoding: 281 281 216
Width: 1024
GlyphClass: 1
Flags: W
LayerCount: 2
Fore
SplineSet
712 -492 m 1,0,-1
 348 -492 l 2,1,2
 290 -492 290 -492 249 -475 c 128,-1,3
 208 -458 208 -458 182 -433 c 128,-1,4
 156 -408 156 -408 144 -374 c 128,-1,5
 132 -340 132 -340 132 -306 c 0,6,7
 132 -252 132 -252 158 -204 c 128,-1,8
 184 -156 184 -156 232 -130 c 2,9,-1
 432 -12 l 1,10,11
 348 2 348 2 280 46 c 128,-1,12
 212 90 212 90 164 158 c 128,-1,13
 116 226 116 226 90 313 c 128,-1,14
 64 400 64 400 64 504 c 0,15,16
 64 630 64 630 98 731 c 128,-1,17
 132 832 132 832 192 900 c 128,-1,18
 252 968 252 968 335 1005 c 128,-1,19
 418 1042 418 1042 518 1042 c 0,20,21
 724 1042 724 1042 838 891 c 128,-1,22
 952 740 952 740 960 458 c 1,23,-1
 314 458 l 1,24,25
 324 322 324 322 380 259 c 128,-1,26
 436 196 436 196 534 196 c 0,27,28
 650 196 650 196 698 308 c 1,29,-1
 926 252 l 1,30,31
 898 184 898 184 860 131 c 128,-1,32
 822 78 822 78 768 48 c 2,33,-1
 404 -164 l 2,34,35
 378 -178 378 -178 376 -206 c 0,36,37
 376 -222 376 -222 389 -236 c 128,-1,38
 402 -250 402 -250 426 -250 c 2,39,-1
 712 -250 l 1,40,-1
 712 -492 l 1,0,-1
722 564 m 1,41,42
 718 688 718 688 662 756 c 128,-1,43
 606 824 606 824 520 824 c 0,44,45
 426 824 426 824 373 756 c 128,-1,46
 320 688 320 688 310 564 c 1,47,-1
 722 564 l 1,41,42
EndSplineSet
Validated: 1
EndChar

StartChar: Hbar
Encoding: 294 294 225
Width: 1024
GlyphClass: 1
Flags: W
LayerCount: 2
Fore
SplineSet
920 0 m 1,0,-1
 654 0 l 1,1,-1
 654 626 l 1,2,-1
 366 626 l 1,3,-1
 366 0 l 1,4,-1
 104 0 l 1,5,-1
 104 1484 l 1,6,-1
 366 1484 l 1,7,-1
 366 1276 l 1,8,-1
 654 1276 l 1,9,-1
 654 1484 l 1,10,-1
 920 1484 l 1,11,-1
 920 0 l 1,0,-1
654 880 m 1,12,-1
 654 1112 l 1,13,-1
 366 1112 l 1,14,-1
 366 880 l 1,15,-1
 654 880 l 1,12,-1
EndSplineSet
Validated: 1
EndChar

StartChar: hbar
Encoding: 295 295 226
Width: 1024
GlyphClass: 1
Flags: W
LayerCount: 2
Fore
SplineSet
356 1250 m 1,0,-1
 356 808 l 1,1,2
 410 934 410 934 493 988 c 128,-1,3
 576 1042 576 1042 672 1042 c 0,4,5
 802 1042 802 1042 866 958 c 128,-1,6
 930 874 930 874 930 722 c 2,7,-1
 930 0 l 1,8,-1
 692 0 l 1,9,-1
 692 618 l 2,10,11
 692 716 692 716 651 769 c 128,-1,12
 610 822 610 822 526 822 c 0,13,14
 440 822 440 822 398 770 c 128,-1,15
 356 718 356 718 356 620 c 2,16,-1
 356 0 l 1,17,-1
 118 0 l 1,18,-1
 118 1250 l 1,19,-1
 0 1250 l 1,20,-1
 0 1412 l 1,21,-1
 118 1412 l 1,22,-1
 118 1484 l 1,23,-1
 356 1484 l 1,24,-1
 356 1412 l 1,25,-1
 748 1412 l 1,26,-1
 748 1250 l 1,27,-1
 356 1250 l 1,0,-1
EndSplineSet
Validated: 1
EndChar

StartChar: Iogonek
Encoding: 302 302 231
Width: 1024
GlyphClass: 1
Flags: W
LayerCount: 2
Fore
SplineSet
802 -492 m 1,0,-1
 438 -492 l 2,1,2
 382 -492 382 -492 342 -475 c 128,-1,3
 302 -458 302 -458 275 -433 c 128,-1,4
 248 -408 248 -408 235 -374 c 128,-1,5
 222 -340 222 -340 222 -306 c 0,6,7
 222 -252 222 -252 248 -204 c 128,-1,8
 274 -156 274 -156 324 -130 c 2,9,-1
 568 0 l 1,10,-1
 166 0 l 1,11,-1
 166 238 l 1,12,-1
 390 238 l 1,13,-1
 390 1250 l 1,14,-1
 166 1250 l 1,15,-1
 166 1484 l 1,16,-1
 860 1484 l 1,17,-1
 860 1250 l 1,18,-1
 642 1250 l 1,19,-1
 642 238 l 1,20,-1
 860 238 l 1,21,-1
 860 0 l 1,22,-1
 802 0 l 1,23,-1
 496 -164 l 2,24,25
 468 -180 468 -180 466 -206 c 0,26,27
 466 -222 466 -222 480 -236 c 128,-1,28
 494 -250 494 -250 518 -250 c 2,29,-1
 802 -250 l 1,30,-1
 802 -492 l 1,0,-1
EndSplineSet
Validated: 1
EndChar

StartChar: iogonek
Encoding: 303 303 232
Width: 1024
GlyphClass: 1
Flags: W
LayerCount: 2
Fore
SplineSet
802 -492 m 1,0,-1
 438 -492 l 2,1,2
 382 -492 382 -492 342 -475 c 128,-1,3
 302 -458 302 -458 275 -433 c 128,-1,4
 248 -408 248 -408 235 -374 c 128,-1,5
 222 -340 222 -340 222 -306 c 0,6,7
 222 -252 222 -252 248 -204 c 128,-1,8
 274 -156 274 -156 324 -130 c 2,9,-1
 568 0 l 1,10,-1
 186 0 l 1,11,-1
 186 238 l 1,12,-1
 408 238 l 1,13,-1
 408 782 l 1,14,-1
 186 782 l 1,15,-1
 186 1020 l 1,16,-1
 644 1020 l 1,17,-1
 644 238 l 1,18,-1
 838 238 l 1,19,-1
 838 0 l 1,20,-1
 802 0 l 1,21,-1
 496 -164 l 2,22,23
 468 -180 468 -180 466 -206 c 0,24,25
 466 -222 466 -222 480 -236 c 128,-1,26
 494 -250 494 -250 518 -250 c 2,27,-1
 802 -250 l 1,28,-1
 802 -492 l 1,0,-1
658 1342 m 0,29,30
 658 1278 658 1278 624 1230 c 128,-1,31
 590 1182 590 1182 526 1182 c 0,32,33
 460 1182 460 1182 426 1230 c 128,-1,34
 392 1278 392 1278 392 1342 c 0,35,36
 392 1410 392 1410 426 1458 c 128,-1,37
 460 1506 460 1506 526 1506 c 0,38,39
 586 1506 586 1506 622 1457 c 128,-1,40
 658 1408 658 1408 658 1342 c 0,29,30
EndSplineSet
Validated: 1
EndChar

StartChar: dotlessi
Encoding: 305 305 234
Width: 1024
GlyphClass: 1
Flags: W
LayerCount: 2
Fore
SplineSet
838 0 m 1,0,-1
 186 0 l 1,1,-1
 186 238 l 1,2,-1
 408 238 l 1,3,-1
 408 782 l 1,4,-1
 186 782 l 1,5,-1
 186 1020 l 1,6,-1
 644 1020 l 1,7,-1
 644 238 l 1,8,-1
 838 238 l 1,9,-1
 838 0 l 1,0,-1
EndSplineSet
Validated: 1
EndChar

StartChar: IJ
Encoding: 306 306 235
Width: 1024
GlyphClass: 1
Flags: W
LayerCount: 2
Fore
SplineSet
56 0 m 1,0,-1
 56 1490 l 1,1,-1
 310 1490 l 1,2,-1
 310 0 l 1,3,-1
 56 0 l 1,0,-1
968 514 m 2,4,5
 968 272 968 272 860 136 c 128,-1,6
 752 0 752 0 532 0 c 2,7,-1
 372 0 l 1,8,-1
 372 250 l 1,9,-1
 498 250 l 2,10,11
 534 250 534 250 571 262 c 128,-1,12
 608 274 608 274 638 303 c 128,-1,13
 668 332 668 332 685 381 c 128,-1,14
 702 430 702 430 702 502 c 2,15,-1
 702 1250 l 1,16,-1
 562 1250 l 1,17,-1
 562 1484 l 1,18,-1
 968 1484 l 1,19,-1
 968 514 l 2,4,5
EndSplineSet
Validated: 1
EndChar

StartChar: ij
Encoding: 307 307 236
Width: 1024
GlyphClass: 1
Flags: W
LayerCount: 2
Fore
SplineSet
166 0 m 1,0,-1
 166 782 l 1,1,-1
 48 782 l 1,2,-1
 48 1020 l 1,3,-1
 402 1020 l 1,4,-1
 402 0 l 1,5,-1
 166 0 l 1,0,-1
416 1342 m 0,6,7
 416 1278 416 1278 382 1230 c 128,-1,8
 348 1182 348 1182 284 1182 c 0,9,10
 218 1182 218 1182 184 1230 c 128,-1,11
 150 1278 150 1278 150 1342 c 0,12,13
 150 1410 150 1410 185 1458 c 128,-1,14
 220 1506 220 1506 284 1506 c 0,15,16
 344 1506 344 1506 380 1457 c 128,-1,17
 416 1408 416 1408 416 1342 c 0,6,7
962 -16 m 2,18,19
 958 -408 958 -408 658 -408 c 2,20,-1
 352 -408 l 1,21,-1
 352 -160 l 1,22,-1
 628 -160 l 2,23,24
 724 -160 724 -160 724 -16 c 2,25,-1
 724 782 l 1,26,-1
 536 782 l 1,27,-1
 536 1020 l 1,28,-1
 962 1020 l 1,29,-1
 962 -16 l 2,18,19
976 1342 m 0,30,31
 976 1278 976 1278 943 1230 c 128,-1,32
 910 1182 910 1182 844 1182 c 0,33,34
 780 1182 780 1182 745 1230 c 128,-1,35
 710 1278 710 1278 710 1342 c 0,36,37
 710 1410 710 1410 745 1458 c 128,-1,38
 780 1506 780 1506 844 1506 c 0,39,40
 906 1506 906 1506 941 1457 c 128,-1,41
 976 1408 976 1408 976 1342 c 0,30,31
EndSplineSet
Validated: 1
EndChar

StartChar: Lslash
Encoding: 321 321 247
Width: 1024
GlyphClass: 1
Flags: W
LayerCount: 2
Fore
SplineSet
696 1064 m 1,0,-1
 400 866 l 1,1,-1
 400 250 l 1,2,-1
 916 250 l 1,3,-1
 916 0 l 1,4,-1
 138 0 l 1,5,-1
 138 1484 l 1,6,-1
 400 1484 l 1,7,-1
 400 1104 l 1,8,-1
 696 1302 l 1,9,-1
 696 1064 l 1,0,-1
EndSplineSet
Validated: 1
EndChar

StartChar: lslash
Encoding: 322 322 248
Width: 1024
GlyphClass: 1
Flags: W
LayerCount: 2
Fore
SplineSet
904 802 m 1,0,-1
 676 652 l 1,1,-1
 676 0 l 1,2,-1
 438 0 l 1,3,-1
 438 496 l 1,4,-1
 196 336 l 1,5,-1
 196 574 l 1,6,-1
 438 734 l 1,7,-1
 438 1250 l 1,8,-1
 222 1250 l 1,9,-1
 222 1484 l 1,10,-1
 676 1484 l 1,11,-1
 676 890 l 1,12,-1
 904 1042 l 1,13,-1
 904 802 l 1,0,-1
EndSplineSet
Validated: 1
EndChar

StartChar: Eng
Encoding: 330 330 255
Width: 1024
GlyphClass: 1
Flags: W
LayerCount: 2
Fore
SplineSet
932 -16 m 2,0,1
 928 -408 928 -408 626 -408 c 2,2,-1
 408 -408 l 1,3,-1
 408 -160 l 1,4,-1
 598 -160 l 2,5,6
 696 -160 696 -160 696 -16 c 2,7,-1
 696 -2 l 1,8,-1
 334 868 l 1,9,-1
 334 0 l 1,10,-1
 92 0 l 1,11,-1
 92 1484 l 1,12,-1
 396 1484 l 1,13,-1
 696 616 l 1,14,-1
 696 1484 l 1,15,-1
 932 1484 l 1,16,-1
 932 -16 l 2,0,1
EndSplineSet
Validated: 1
EndChar

StartChar: eng
Encoding: 331 331 256
Width: 1024
GlyphClass: 1
Flags: W
LayerCount: 2
Fore
SplineSet
930 -16 m 2,0,1
 926 -408 926 -408 624 -408 c 2,2,-1
 422 -408 l 1,3,-1
 422 -160 l 1,4,-1
 596 -160 l 2,5,6
 692 -160 692 -160 692 -16 c 2,7,-1
 692 618 l 2,8,9
 692 716 692 716 651 769 c 128,-1,10
 610 822 610 822 526 822 c 0,11,12
 440 822 440 822 398 770 c 128,-1,13
 356 718 356 718 356 620 c 2,14,-1
 356 0 l 1,15,-1
 118 0 l 1,16,-1
 118 1020 l 1,17,-1
 356 1020 l 1,18,-1
 356 808 l 1,19,20
 410 934 410 934 493 988 c 128,-1,21
 576 1042 576 1042 672 1042 c 0,22,23
 802 1042 802 1042 866 958 c 128,-1,24
 930 874 930 874 930 722 c 2,25,-1
 930 -16 l 2,0,1
EndSplineSet
Validated: 1
EndChar

StartChar: OE
Encoding: 338 338 263
Width: 1024
GlyphClass: 1
Flags: W
LayerCount: 2
Fore
SplineSet
398 0 m 2,0,1
 214 0 214 0 129 92 c 128,-1,2
 44 184 44 184 44 406 c 2,3,-1
 44 1104 l 2,4,5
 44 1302 44 1302 125 1393 c 128,-1,6
 206 1484 206 1484 398 1484 c 2,7,-1
 984 1484 l 1,8,-1
 984 1250 l 1,9,-1
 712 1250 l 1,10,-1
 712 870 l 1,11,-1
 984 870 l 1,12,-1
 984 630 l 1,13,-1
 712 630 l 1,14,-1
 712 250 l 1,15,-1
 984 250 l 1,16,-1
 984 0 l 1,17,-1
 398 0 l 2,0,1
498 1122 m 2,18,19
 498 1204 498 1204 474 1232 c 128,-1,20
 450 1260 450 1260 398 1260 c 0,21,22
 344 1260 344 1260 319 1230 c 128,-1,23
 294 1200 294 1200 294 1120 c 2,24,-1
 294 396 l 2,25,26
 294 310 294 310 319 271 c 128,-1,27
 344 232 344 232 398 232 c 256,28,29
 452 232 452 232 475 271 c 128,-1,30
 498 310 498 310 498 396 c 2,31,-1
 498 1122 l 2,18,19
EndSplineSet
Validated: 1
EndChar

StartChar: oe
Encoding: 339 339 264
Width: 1024
GlyphClass: 1
Flags: W
LayerCount: 2
Fore
SplineSet
700 -20 m 0,0,1
 628 -20 628 -20 574 19 c 128,-1,2
 520 58 520 58 498 132 c 1,3,4
 472 60 472 60 417 20 c 128,-1,5
 362 -20 362 -20 292 -20 c 0,6,7
 228 -20 228 -20 180 9 c 128,-1,8
 132 38 132 38 98 102 c 128,-1,9
 64 166 64 166 45 266 c 128,-1,10
 26 366 26 366 26 510 c 0,11,12
 26 780 26 780 103 911 c 128,-1,13
 180 1042 180 1042 316 1042 c 0,14,15
 382 1042 382 1042 423 1007 c 128,-1,16
 464 972 464 972 498 908 c 1,17,18
 538 974 538 974 592 1008 c 128,-1,19
 646 1042 646 1042 718 1042 c 0,20,21
 784 1042 784 1042 836 1009 c 128,-1,22
 888 976 888 976 924 906 c 128,-1,23
 960 836 960 836 980 725 c 128,-1,24
 1000 614 1000 614 1000 458 c 1,25,-1
 592 458 l 1,26,27
 592 310 592 310 623 246 c 128,-1,28
 654 182 654 182 700 182 c 0,29,30
 734 182 734 182 756 207 c 128,-1,31
 778 232 778 232 794 294 c 1,32,-1
 970 240 l 1,33,34
 954 192 954 192 933 146 c 128,-1,35
 912 100 912 100 880 63 c 128,-1,36
 848 26 848 26 805 3 c 128,-1,37
 762 -20 762 -20 700 -20 c 0,0,1
424 510 m 0,38,39
 424 848 424 848 316 848 c 0,40,41
 210 848 210 848 208 508 c 0,42,43
 208 168 208 168 316 168 c 128,-1,44
 424 168 424 168 424 510 c 0,38,39
814 564 m 1,45,46
 810 706 810 706 784 764 c 128,-1,47
 758 822 758 822 710 822 c 0,48,49
 660 822 660 822 628 763 c 128,-1,50
 596 704 596 704 590 564 c 1,51,-1
 814 564 l 1,45,46
EndSplineSet
Validated: 1
EndChar

StartChar: Tbar
Encoding: 358 358 281
Width: 1024
GlyphClass: 1
Flags: W
LayerCount: 2
Fore
SplineSet
828 802 m 1,0,-1
 646 802 l 1,1,-1
 646 0 l 1,2,-1
 378 0 l 1,3,-1
 378 802 l 1,4,-1
 194 802 l 1,5,-1
 194 1020 l 1,6,-1
 378 1020 l 1,7,-1
 378 1234 l 1,8,-1
 56 1234 l 1,9,-1
 56 1484 l 1,10,-1
 968 1484 l 1,11,-1
 968 1234 l 1,12,-1
 646 1234 l 1,13,-1
 646 1020 l 1,14,-1
 828 1020 l 1,15,-1
 828 802 l 1,0,-1
EndSplineSet
Validated: 1
EndChar

StartChar: tbar
Encoding: 359 359 282
Width: 1024
GlyphClass: 1
Flags: W
LayerCount: 2
Fore
SplineSet
770 442 m 1,0,-1
 562 442 l 1,1,-1
 562 334 l 2,2,3
 562 288 562 288 579 264 c 128,-1,4
 596 240 596 240 644 240 c 2,5,-1
 884 240 l 1,6,-1
 884 0 l 1,7,-1
 588 0 l 2,8,9
 446 0 446 0 386 68 c 128,-1,10
 326 136 326 136 326 274 c 2,11,-1
 326 442 l 1,12,-1
 116 442 l 1,13,-1
 116 660 l 1,14,-1
 326 660 l 1,15,-1
 326 800 l 1,16,-1
 104 800 l 1,17,-1
 104 1020 l 1,18,-1
 326 1020 l 1,19,-1
 326 1300 l 1,20,-1
 562 1300 l 1,21,-1
 562 1020 l 1,22,-1
 796 1020 l 1,23,-1
 796 800 l 1,24,-1
 562 800 l 1,25,-1
 562 660 l 1,26,-1
 770 660 l 1,27,-1
 770 442 l 1,0,-1
EndSplineSet
Validated: 1
EndChar

StartChar: Uogonek
Encoding: 370 370 293
Width: 1024
GlyphClass: 1
Flags: W
LayerCount: 2
Fore
SplineSet
762 -492 m 1,0,-1
 398 -492 l 2,1,2
 340 -492 340 -492 299 -475 c 128,-1,3
 258 -458 258 -458 231 -433 c 128,-1,4
 204 -408 204 -408 192 -374 c 128,-1,5
 180 -340 180 -340 180 -306 c 0,6,7
 180 -252 180 -252 208 -206 c 128,-1,8
 236 -160 236 -160 280 -130 c 2,9,-1
 446 -16 l 1,10,11
 270 0 270 0 174 108 c 128,-1,12
 78 216 78 216 78 422 c 2,13,-1
 78 1484 l 1,14,-1
 332 1484 l 1,15,-1
 332 436 l 2,16,17
 332 326 332 326 385 268 c 128,-1,18
 438 210 438 210 514 210 c 0,19,20
 588 210 588 210 642 268 c 128,-1,21
 696 326 696 326 696 436 c 2,22,-1
 696 1484 l 1,23,-1
 946 1484 l 1,24,-1
 946 422 l 2,25,26
 946 280 946 280 903 189 c 128,-1,27
 860 98 860 98 780 46 c 2,28,-1
 452 -164 l 2,29,30
 426 -178 426 -178 426 -206 c 0,31,32
 426 -222 426 -222 438 -236 c 128,-1,33
 450 -250 450 -250 478 -250 c 2,34,-1
 762 -250 l 1,35,-1
 762 -492 l 1,0,-1
EndSplineSet
Validated: 1
EndChar

StartChar: uogonek
Encoding: 371 371 294
Width: 1024
GlyphClass: 1
Flags: W
LayerCount: 2
Fore
SplineSet
742 -492 m 1,0,-1
 376 -492 l 2,1,2
 318 -492 318 -492 278 -475 c 128,-1,3
 238 -458 238 -458 211 -433 c 128,-1,4
 184 -408 184 -408 172 -374 c 128,-1,5
 160 -340 160 -340 160 -306 c 0,6,7
 160 -252 160 -252 186 -204 c 128,-1,8
 212 -156 212 -156 260 -130 c 2,9,-1
 434 -14 l 1,10,11
 278 6 278 6 188 107 c 128,-1,12
 98 208 98 208 98 376 c 2,13,-1
 98 1020 l 1,14,-1
 336 1020 l 1,15,-1
 336 396 l 2,16,17
 336 344 336 344 351 309 c 128,-1,18
 366 274 366 274 391 252 c 128,-1,19
 416 230 416 230 448 219 c 128,-1,20
 480 208 480 208 514 208 c 0,21,22
 546 208 546 208 578 219 c 128,-1,23
 610 230 610 230 635 252 c 128,-1,24
 660 274 660 274 675 309 c 128,-1,25
 690 344 690 344 690 396 c 2,26,-1
 690 1020 l 1,27,-1
 928 1020 l 1,28,-1
 928 376 l 2,29,30
 928 262 928 262 886 178 c 128,-1,31
 844 94 844 94 766 46 c 2,32,-1
 432 -164 l 2,33,34
 406 -178 406 -178 406 -206 c 0,35,36
 406 -222 406 -222 418 -236 c 128,-1,37
 430 -250 430 -250 454 -250 c 2,38,-1
 742 -250 l 1,39,-1
 742 -492 l 1,0,-1
EndSplineSet
Validated: 1
EndChar

StartChar: florin
Encoding: 402 402 306
Width: 1024
GlyphClass: 1
Flags: W
LayerCount: 2
Fore
SplineSet
606 656 m 1,0,-1
 606 0 l 2,1,2
 606 -130 606 -130 535 -196 c 128,-1,3
 464 -262 464 -262 308 -262 c 0,4,5
 296 -262 296 -262 279 -262 c 128,-1,6
 262 -262 262 -262 246 -260 c 1,7,-1
 246 -82 l 1,8,-1
 266 -82 l 2,9,10
 342 -82 342 -82 380 -38 c 128,-1,11
 418 6 418 6 418 84 c 2,12,-1
 418 656 l 1,13,-1
 262 656 l 1,14,-1
 262 820 l 1,15,-1
 418 820 l 1,16,-1
 418 1244 l 2,17,18
 418 1370 418 1370 490 1438 c 128,-1,19
 562 1506 562 1506 718 1506 c 0,20,21
 730 1506 730 1506 746 1506 c 128,-1,22
 762 1506 762 1506 778 1504 c 1,23,-1
 778 1326 l 1,24,-1
 758 1326 l 2,25,26
 682 1326 682 1326 644 1281 c 128,-1,27
 606 1236 606 1236 606 1158 c 2,28,-1
 606 820 l 1,29,-1
 762 820 l 1,30,-1
 762 656 l 1,31,-1
 606 656 l 1,0,-1
EndSplineSet
Validated: 1
EndChar

StartChar: circumflex
Encoding: 710 710 311
Width: 1024
GlyphClass: 1
Flags: W
LayerCount: 2
Fore
SplineSet
346 1504 m 5,0,-1
 680 1504 l 5,1,-1
 906 1156 l 5,2,-1
 690 1156 l 5,3,-1
 510 1376 l 5,4,-1
 334 1156 l 5,5,-1
 120 1156 l 5,6,-1
 346 1504 l 5,0,-1
EndSplineSet
EndChar

StartChar: caron
Encoding: 711 711 312
Width: 1024
GlyphClass: 1
Flags: W
LayerCount: 2
Fore
SplineSet
680 1156 m 1,0,-1
 346 1156 l 1,1,-1
 120 1504 l 1,2,-1
 336 1504 l 1,3,-1
 516 1282 l 1,4,-1
 692 1504 l 1,5,-1
 906 1504 l 1,6,-1
 680 1156 l 1,0,-1
EndSplineSet
Validated: 1
EndChar

StartChar: breve
Encoding: 728 728 313
Width: 1024
GlyphClass: 1
Flags: W
LayerCount: 2
Fore
SplineSet
928 1364 m 2,0,1
 928 1248 928 1248 815 1184 c 128,-1,2
 702 1120 702 1120 514 1120 c 0,3,4
 324 1120 324 1120 211 1184 c 128,-1,5
 98 1248 98 1248 98 1364 c 2,6,-1
 98 1504 l 1,7,-1
 272 1504 l 1,8,-1
 272 1376 l 2,9,10
 272 1346 272 1346 293 1324 c 128,-1,11
 314 1302 314 1302 347 1288 c 128,-1,12
 380 1274 380 1274 423 1268 c 128,-1,13
 466 1262 466 1262 514 1262 c 0,14,15
 560 1262 560 1262 602 1268 c 128,-1,16
 644 1274 644 1274 677 1288 c 128,-1,17
 710 1302 710 1302 731 1324 c 128,-1,18
 752 1346 752 1346 752 1376 c 2,19,-1
 752 1504 l 1,20,-1
 928 1504 l 1,21,-1
 928 1364 l 2,0,1
EndSplineSet
Validated: 1
EndChar

StartChar: dotaccent
Encoding: 729 729 314
Width: 1024
GlyphClass: 1
Flags: W
LayerCount: 2
Fore
SplineSet
646 1294 m 0,0,1
 646 1228 646 1228 612 1181 c 128,-1,2
 578 1134 578 1134 514 1134 c 0,3,4
 448 1134 448 1134 413 1181 c 128,-1,5
 378 1228 378 1228 378 1294 c 256,6,7
 378 1360 378 1360 413 1409 c 128,-1,8
 448 1458 448 1458 514 1458 c 0,9,10
 574 1458 574 1458 610 1408 c 128,-1,11
 646 1358 646 1358 646 1294 c 0,0,1
EndSplineSet
Validated: 1
EndChar

StartChar: ring
Encoding: 730 730 315
Width: 1024
GlyphClass: 1
Flags: W
LayerCount: 2
Fore
SplineSet
512 1504 m 256,0,1
 572 1504 572 1504 624 1488 c 128,-1,2
 676 1472 676 1472 716 1443 c 128,-1,3
 756 1414 756 1414 778 1369 c 128,-1,4
 800 1324 800 1324 800 1264 c 256,5,6
 800 1204 800 1204 778 1159 c 128,-1,7
 756 1114 756 1114 716 1084 c 128,-1,8
 676 1054 676 1054 624 1040 c 128,-1,9
 572 1026 572 1026 512 1026 c 256,10,11
 452 1026 452 1026 400 1040 c 128,-1,12
 348 1054 348 1054 308 1084 c 128,-1,13
 268 1114 268 1114 245 1159 c 128,-1,14
 222 1204 222 1204 222 1264 c 256,15,16
 222 1324 222 1324 245 1369 c 128,-1,17
 268 1414 268 1414 308 1443 c 128,-1,18
 348 1472 348 1472 400 1488 c 128,-1,19
 452 1504 452 1504 512 1504 c 256,0,1
512 1380 m 0,20,21
 448 1380 448 1380 413 1353 c 128,-1,22
 378 1326 378 1326 378 1264 c 0,23,24
 378 1200 378 1200 413 1175 c 128,-1,25
 448 1150 448 1150 512 1150 c 0,26,27
 574 1150 574 1150 610 1175 c 128,-1,28
 646 1200 646 1200 646 1264 c 0,29,30
 646 1326 646 1326 610 1353 c 128,-1,31
 574 1380 574 1380 512 1380 c 0,20,21
EndSplineSet
Validated: 1
EndChar

StartChar: ogonek
Encoding: 731 731 316
Width: 1024
GlyphClass: 1
Flags: W
LayerCount: 2
Fore
SplineSet
790 -492 m 1,0,-1
 426 -492 l 2,1,2
 368 -492 368 -492 327 -475 c 128,-1,3
 286 -458 286 -458 260 -433 c 128,-1,4
 234 -408 234 -408 221 -374 c 128,-1,5
 208 -340 208 -340 208 -306 c 0,6,7
 208 -252 208 -252 235 -204 c 128,-1,8
 262 -156 262 -156 312 -130 c 2,9,-1
 556 0 l 1,10,-1
 790 0 l 1,11,-1
 484 -164 l 2,12,13
 456 -178 456 -178 454 -206 c 0,14,15
 454 -222 454 -222 467 -236 c 128,-1,16
 480 -250 480 -250 506 -250 c 2,17,-1
 790 -250 l 1,18,-1
 790 -492 l 1,0,-1
EndSplineSet
Validated: 1
EndChar

StartChar: tilde
Encoding: 732 732 317
Width: 1024
GlyphClass: 1
Flags: W
LayerCount: 2
Fore
SplineSet
46 1300 m 5,0,1
 92 1360 92 1360 149 1388 c 132,-1,2
 206 1416 206 1416 272 1416 c 4,3,4
 308 1416 308 1416 374 1396 c 132,-1,5
 440 1376 440 1376 513 1354 c 132,-1,6
 586 1332 586 1332 652 1312 c 132,-1,7
 718 1292 718 1292 756 1292 c 4,8,9
 816 1292 816 1292 864 1315 c 132,-1,10
 912 1338 912 1338 978 1410 c 5,11,-1
 978 1244 l 5,12,13
 934 1184 934 1184 876 1155 c 132,-1,14
 818 1126 818 1126 752 1126 c 4,15,16
 716 1126 716 1126 650 1146 c 132,-1,17
 584 1166 584 1166 511 1189 c 132,-1,18
 438 1212 438 1212 372 1232 c 132,-1,19
 306 1252 306 1252 268 1252 c 4,20,21
 240 1252 240 1252 214 1247 c 132,-1,22
 188 1242 188 1242 162 1228 c 132,-1,23
 136 1214 136 1214 108 1191 c 132,-1,24
 80 1168 80 1168 46 1132 c 5,25,-1
 46 1300 l 5,0,1
EndSplineSet
Validated: 1
EndChar

StartChar: hungarumlaut
Encoding: 733 733 318
Width: 1024
GlyphClass: 1
Flags: W
LayerCount: 2
Fore
SplineSet
696 1140 m 1,0,-1
 484 1140 l 1,1,-1
 692 1504 l 1,2,-1
 972 1504 l 1,3,-1
 696 1140 l 1,0,-1
262 1140 m 1,4,-1
 50 1140 l 1,5,-1
 258 1504 l 1,6,-1
 536 1504 l 1,7,-1
 262 1140 l 1,4,-1
EndSplineSet
Validated: 1
EndChar

StartChar: Delta
Encoding: 916 916 319
Width: 1024
GlyphClass: 1
Flags: W
LayerCount: 2
Fore
SplineSet
66 0 m 1,0,-1
 378 1484 l 1,1,-1
 644 1484 l 1,2,-1
 958 0 l 1,3,-1
 66 0 l 1,0,-1
372 232 m 1,4,-1
 632 232 l 1,5,-1
 506 942 l 1,6,-1
 372 232 l 1,4,-1
EndSplineSet
Validated: 1
EndChar

StartChar: Omega
Encoding: 937 937 320
Width: 1024
GlyphClass: 1
Flags: W
LayerCount: 2
Fore
SplineSet
432 0 m 1,0,-1
 58 0 l 1,1,-1
 58 250 l 1,2,-1
 326 250 l 1,3,-1
 326 364 l 1,4,5
 210 412 210 412 148 524 c 128,-1,6
 86 636 86 636 86 804 c 2,7,-1
 86 1030 l 2,8,9
 86 1258 86 1258 197 1382 c 128,-1,10
 308 1506 308 1506 514 1506 c 0,11,12
 718 1506 718 1506 829 1382 c 128,-1,13
 940 1258 940 1258 940 1030 c 2,14,-1
 940 804 l 2,15,16
 940 636 940 636 880 524 c 128,-1,17
 820 412 820 412 702 364 c 1,18,-1
 702 250 l 1,19,-1
 968 250 l 1,20,-1
 968 0 l 1,21,-1
 594 0 l 1,22,-1
 594 506 l 1,23,-1
 596 506 l 1,24,25
 624 522 624 522 657 575 c 128,-1,26
 690 628 690 628 690 724 c 2,27,-1
 690 1072 l 2,28,29
 690 1176 690 1176 639 1228 c 128,-1,30
 588 1280 588 1280 514 1280 c 0,31,32
 438 1280 438 1280 388 1228 c 128,-1,33
 338 1176 338 1176 338 1072 c 2,34,-1
 338 724 l 2,35,36
 338 628 338 628 370 575 c 128,-1,37
 402 522 402 522 430 506 c 1,38,-1
 432 506 l 1,39,-1
 432 0 l 1,0,-1
EndSplineSet
Validated: 1
EndChar

StartChar: mu
Encoding: 956 956 321
Width: 1024
GlyphClass: 1
Flags: W
LayerCount: 2
Fore
SplineSet
930 300 m 2,0,1
 930 148 930 148 865 64 c 128,-1,2
 800 -20 800 -20 672 -20 c 0,3,4
 576 -20 576 -20 493 32 c 128,-1,5
 410 84 410 84 356 210 c 1,6,-1
 356 -408 l 1,7,-1
 118 -408 l 1,8,-1
 118 1020 l 1,9,-1
 356 1020 l 1,10,-1
 356 400 l 2,11,12
 356 302 356 302 398 250 c 128,-1,13
 440 198 440 198 526 198 c 0,14,15
 610 198 610 198 651 251 c 128,-1,16
 692 304 692 304 692 402 c 2,17,-1
 692 1020 l 1,18,-1
 930 1020 l 1,19,-1
 930 300 l 2,0,1
EndSplineSet
Validated: 1
EndChar

StartChar: pi
Encoding: 960 960 322
Width: 1024
GlyphClass: 1
Flags: W
LayerCount: 2
Fore
SplineSet
998 0 m 1,0,-1
 868 0 l 2,1,2
 726 0 726 0 665 68 c 128,-1,3
 604 136 604 136 604 274 c 2,4,-1
 604 800 l 1,5,-1
 334 800 l 1,6,-1
 334 16 l 1,7,-1
 98 16 l 1,8,-1
 98 1020 l 1,9,-1
 840 1020 l 1,10,-1
 840 334 l 2,11,12
 840 288 840 288 858 264 c 128,-1,13
 876 240 876 240 924 240 c 2,14,-1
 998 240 l 1,15,-1
 998 0 l 1,0,-1
EndSplineSet
Validated: 1
EndChar

StartChar: endash
Encoding: 8211 8211 331
Width: 1024
GlyphClass: 1
Flags: W
LayerCount: 2
Fore
SplineSet
870 644 m 1,0,-1
 154 644 l 1,1,-1
 154 862 l 1,2,-1
 870 862 l 1,3,-1
 870 644 l 1,0,-1
EndSplineSet
Validated: 1
EndChar

StartChar: emdash
Encoding: 8212 8212 332
Width: 1024
GlyphClass: 1
Flags: W
LayerCount: 2
Fore
SplineSet
1024 644 m 1,0,-1
 0 644 l 1,1,-1
 0 862 l 1,2,-1
 1024 862 l 1,3,-1
 1024 644 l 1,0,-1
EndSplineSet
Validated: 1
EndChar

StartChar: quoteleft
Encoding: 8216 8216 333
Width: 1024
GlyphClass: 1
Flags: W
LayerCount: 2
Fore
SplineSet
580 1506 m 1,0,-1
 658 954 l 1,1,-1
 486 914 l 1,2,-1
 366 1452 l 1,3,-1
 580 1506 l 1,0,-1
EndSplineSet
Validated: 1
EndChar

StartChar: quoteright
Encoding: 8217 8217 334
Width: 1024
GlyphClass: 1
Flags: W
LayerCount: 2
Fore
SplineSet
642 1452 m 1,0,-1
 524 914 l 1,1,-1
 350 954 l 1,2,-1
 428 1506 l 1,3,-1
 642 1452 l 1,0,-1
EndSplineSet
Validated: 1
EndChar

StartChar: quotesinglbase
Encoding: 8218 8218 335
Width: 1024
GlyphClass: 1
Flags: W
LayerCount: 2
Fore
SplineSet
642 258 m 1,0,-1
 524 -278 l 1,1,-1
 350 -238 l 1,2,-1
 428 314 l 1,3,-1
 642 258 l 1,0,-1
EndSplineSet
Validated: 1
EndChar

StartChar: quotedblleft
Encoding: 8220 8220 336
Width: 1024
GlyphClass: 1
Flags: W
LayerCount: 2
Fore
SplineSet
794 1506 m 1,0,-1
 874 954 l 1,1,-1
 700 914 l 1,2,-1
 582 1452 l 1,3,-1
 794 1506 l 1,0,-1
364 1506 m 1,4,-1
 442 954 l 1,5,-1
 268 914 l 1,6,-1
 152 1452 l 1,7,-1
 364 1506 l 1,4,-1
EndSplineSet
Validated: 1
EndChar

StartChar: quotedblright
Encoding: 8221 8221 337
Width: 1024
GlyphClass: 1
Flags: W
LayerCount: 2
Fore
SplineSet
442 1452 m 1,0,-1
 326 914 l 1,1,-1
 152 954 l 1,2,-1
 230 1506 l 1,3,-1
 442 1452 l 1,0,-1
874 1452 m 1,4,-1
 756 914 l 1,5,-1
 582 954 l 1,6,-1
 660 1506 l 1,7,-1
 874 1452 l 1,4,-1
EndSplineSet
Validated: 1
EndChar

StartChar: quotedblbase
Encoding: 8222 8222 338
Width: 1024
GlyphClass: 1
Flags: W
LayerCount: 2
Fore
SplineSet
442 258 m 1,0,-1
 326 -278 l 1,1,-1
 152 -238 l 1,2,-1
 230 314 l 1,3,-1
 442 258 l 1,0,-1
874 258 m 1,4,-1
 756 -278 l 1,5,-1
 582 -238 l 1,6,-1
 660 314 l 1,7,-1
 874 258 l 1,4,-1
EndSplineSet
Validated: 1
EndChar

StartChar: dagger
Encoding: 8224 8224 339
Width: 1024
GlyphClass: 1
Flags: W
LayerCount: 2
Fore
SplineSet
430 0 m 1,0,-1
 430 948 l 1,1,-1
 56 948 l 1,2,-1
 56 1112 l 1,3,-1
 430 1112 l 1,4,-1
 430 1484 l 1,5,-1
 594 1484 l 1,6,-1
 594 1112 l 1,7,-1
 968 1112 l 1,8,-1
 968 948 l 1,9,-1
 594 948 l 1,10,-1
 594 0 l 1,11,-1
 430 0 l 1,0,-1
EndSplineSet
Validated: 1
EndChar

StartChar: daggerdbl
Encoding: 8225 8225 340
Width: 1024
GlyphClass: 1
Flags: W
LayerCount: 2
Fore
SplineSet
430 0 m 1,0,-1
 430 372 l 1,1,-1
 56 372 l 1,2,-1
 56 536 l 1,3,-1
 430 536 l 1,4,-1
 430 948 l 1,5,-1
 56 948 l 1,6,-1
 56 1112 l 1,7,-1
 430 1112 l 1,8,-1
 430 1484 l 1,9,-1
 594 1484 l 1,10,-1
 594 1112 l 1,11,-1
 968 1112 l 1,12,-1
 968 948 l 1,13,-1
 594 948 l 1,14,-1
 594 536 l 1,15,-1
 968 536 l 1,16,-1
 968 372 l 1,17,-1
 594 372 l 1,18,-1
 594 0 l 1,19,-1
 430 0 l 1,0,-1
EndSplineSet
Validated: 1
EndChar

StartChar: bullet
Encoding: 8226 8226 341
Width: 1024
GlyphClass: 1
Flags: W
LayerCount: 2
Fore
SplineSet
140 758 m 0,0,1
 140 834 140 834 169 902 c 128,-1,2
 198 970 198 970 249 1021 c 128,-1,3
 300 1072 300 1072 367 1101 c 128,-1,4
 434 1130 434 1130 512 1130 c 0,5,6
 588 1130 588 1130 656 1101 c 128,-1,7
 724 1072 724 1072 775 1021 c 128,-1,8
 826 970 826 970 855 902 c 128,-1,9
 884 834 884 834 884 758 c 0,10,11
 884 680 884 680 855 612 c 128,-1,12
 826 544 826 544 775 494 c 128,-1,13
 724 444 724 444 656 415 c 128,-1,14
 588 386 588 386 512 386 c 0,15,16
 434 386 434 386 367 415 c 128,-1,17
 300 444 300 444 249 494 c 128,-1,18
 198 544 198 544 169 612 c 128,-1,19
 140 680 140 680 140 758 c 0,0,1
EndSplineSet
Validated: 1
EndChar

StartChar: perthousand
Encoding: 8240 8240 343
Width: 1024
GlyphClass: 1
Flags: W
LayerCount: 2
Fore
SplineSet
300 892 m 2,0,1
 300 796 300 796 267 735 c 128,-1,2
 234 674 234 674 150 674 c 256,3,4
 66 674 66 674 34 735 c 128,-1,5
 2 796 2 796 2 890 c 2,6,-1
 2 1302 l 2,7,8
 2 1398 2 1398 34 1458 c 128,-1,9
 66 1518 66 1518 150 1518 c 256,10,11
 234 1518 234 1518 267 1456 c 128,-1,12
 300 1394 300 1394 300 1302 c 2,13,-1
 300 892 l 2,0,1
106 894 m 2,14,15
 106 816 106 816 150 818 c 0,16,17
 172 818 172 818 183 836 c 128,-1,18
 194 854 194 854 194 900 c 2,19,-1
 194 1294 l 2,20,21
 194 1372 194 1372 150 1372 c 128,-1,22
 106 1372 106 1372 106 1298 c 2,23,-1
 106 894 l 2,14,15
690 1484 m 1,24,-1
 120 0 l 1,25,-1
 14 0 l 1,26,-1
 584 1484 l 1,27,-1
 690 1484 l 1,24,-1
698 186 m 2,28,29
 698 90 698 90 666 29 c 128,-1,30
 634 -32 634 -32 550 -32 c 256,31,32
 466 -32 466 -32 434 29 c 128,-1,33
 402 90 402 90 402 184 c 2,34,-1
 402 596 l 2,35,36
 402 692 402 692 434 752 c 128,-1,37
 466 812 466 812 550 812 c 256,38,39
 634 812 634 812 666 750 c 128,-1,40
 698 688 698 688 698 596 c 2,41,-1
 698 186 l 2,28,29
506 188 m 2,42,43
 506 112 506 112 550 112 c 0,44,45
 572 112 572 112 583 131 c 128,-1,46
 594 150 594 150 594 192 c 2,47,-1
 594 588 l 2,48,49
 594 668 594 668 550 668 c 0,50,51
 504 668 504 668 506 592 c 2,52,-1
 506 188 l 2,42,43
1026 186 m 2,53,54
 1026 90 1026 90 994 29 c 128,-1,55
 962 -32 962 -32 878 -32 c 256,56,57
 794 -32 794 -32 763 29 c 128,-1,58
 732 90 732 90 732 184 c 2,59,-1
 732 596 l 2,60,61
 732 692 732 692 763 752 c 128,-1,62
 794 812 794 812 878 812 c 256,63,64
 962 812 962 812 994 750 c 128,-1,65
 1026 688 1026 688 1026 596 c 2,66,-1
 1026 186 l 2,53,54
834 188 m 2,67,68
 834 112 834 112 878 112 c 0,69,70
 900 112 900 112 912 131 c 128,-1,71
 924 150 924 150 924 192 c 2,72,-1
 924 588 l 2,73,74
 924 668 924 668 878 668 c 256,75,76
 832 668 832 668 834 592 c 2,77,-1
 834 188 l 2,67,68
EndSplineSet
Validated: 33
EndChar

StartChar: guilsinglleft
Encoding: 8249 8249 344
Width: 1024
GlyphClass: 1
Flags: W
LayerCount: 2
Fore
SplineSet
338 528 m 1,0,-1
 338 862 l 1,1,-1
 686 1088 l 1,2,-1
 686 872 l 1,3,-1
 462 692 l 1,4,-1
 686 516 l 1,5,-1
 686 304 l 1,6,-1
 338 528 l 1,0,-1
EndSplineSet
Validated: 1
EndChar

StartChar: guilsinglright
Encoding: 8250 8250 345
Width: 1024
GlyphClass: 1
Flags: W
LayerCount: 2
Fore
SplineSet
338 304 m 1,0,-1
 338 516 l 1,1,-1
 560 692 l 1,2,-1
 338 872 l 1,3,-1
 338 1088 l 1,4,-1
 686 862 l 1,5,-1
 686 528 l 1,6,-1
 338 304 l 1,0,-1
EndSplineSet
Validated: 1
EndChar

StartChar: fraction
Encoding: 8260 8260 346
Width: 1024
GlyphClass: 1
Flags: W
LayerCount: 2
Fore
SplineSet
1024 1484 m 1,0,-1
 162 0 l 1,1,-1
 0 0 l 1,2,-1
 864 1484 l 1,3,-1
 1024 1484 l 1,0,-1
EndSplineSet
Validated: 1
EndChar

StartChar: zeroinferior
Encoding: 8320 8320 354
Width: 1024
GlyphClass: 1
Flags: W
LayerCount: 2
Fore
SplineSet
738 186 m 2,0,1
 738 90 738 90 688 29 c 128,-1,2
 638 -32 638 -32 512 -32 c 0,3,4
 388 -32 388 -32 338 29 c 128,-1,5
 288 90 288 90 288 184 c 2,6,-1
 288 596 l 2,7,8
 288 692 288 692 338 752 c 128,-1,9
 388 812 388 812 512 812 c 0,10,11
 638 812 638 812 688 750 c 128,-1,12
 738 688 738 688 738 596 c 2,13,-1
 738 186 l 2,0,1
444 188 m 2,14,15
 444 112 444 112 512 112 c 0,16,17
 546 112 546 112 563 131 c 128,-1,18
 580 150 580 150 580 192 c 2,19,-1
 580 588 l 2,20,21
 580 668 580 668 512 668 c 256,22,23
 444 668 444 668 444 592 c 2,24,-1
 444 188 l 2,14,15
EndSplineSet
Validated: 1
EndChar

StartChar: oneinferior
Encoding: 8321 8321 355
Width: 1024
GlyphClass: 1
Flags: W
LayerCount: 2
Fore
SplineSet
652 -20 m 1,0,-1
 502 -20 l 1,1,-1
 502 568 l 1,2,-1
 372 494 l 1,3,-1
 372 664 l 1,4,-1
 652 820 l 1,5,-1
 652 -20 l 1,0,-1
EndSplineSet
Validated: 1
EndChar

StartChar: twoinferior
Encoding: 8322 8322 356
Width: 1024
GlyphClass: 1
Flags: W
LayerCount: 2
Fore
SplineSet
742 572 m 0,0,1
 742 524 742 524 727 482 c 128,-1,2
 712 440 712 440 690 400 c 2,3,-1
 542 154 l 1,4,-1
 736 154 l 1,5,-1
 736 -20 l 1,6,-1
 280 -20 l 1,7,-1
 548 462 l 2,8,9
 584 530 584 530 586 566 c 0,10,11
 586 616 586 616 565 635 c 128,-1,12
 544 654 544 654 512 654 c 0,13,14
 440 654 440 654 438 538 c 1,15,-1
 286 538 l 1,16,17
 300 810 300 810 512 812 c 0,18,19
 616 812 616 812 679 745 c 128,-1,20
 742 678 742 678 742 572 c 0,0,1
EndSplineSet
Validated: 1
EndChar

StartChar: threeinferior
Encoding: 8323 8323 357
Width: 1024
GlyphClass: 1
Flags: W
LayerCount: 2
Fore
SplineSet
758 226 m 0,0,1
 758 110 758 110 691 39 c 128,-1,2
 624 -32 624 -32 514 -32 c 0,3,4
 398 -32 398 -32 332 42 c 128,-1,5
 266 116 266 116 266 240 c 1,6,-1
 418 240 l 1,7,8
 418 120 418 120 508 118 c 0,9,10
 552 118 552 118 577 150 c 128,-1,11
 602 182 602 182 602 232 c 0,12,13
 602 286 602 286 571 312 c 128,-1,14
 540 338 540 338 504 342 c 1,15,-1
 504 464 l 1,16,17
 538 466 538 466 567 493 c 128,-1,18
 596 520 596 520 596 568 c 0,19,20
 596 620 596 620 573 645 c 128,-1,21
 550 670 550 670 514 670 c 0,22,23
 442 670 442 670 426 582 c 1,24,-1
 290 582 l 1,25,26
 298 684 298 684 355 748 c 128,-1,27
 412 812 412 812 522 812 c 0,28,29
 568 812 568 812 608 794 c 128,-1,30
 648 776 648 776 676 745 c 128,-1,31
 704 714 704 714 721 671 c 128,-1,32
 738 628 738 628 738 578 c 0,33,34
 738 512 738 512 721 473 c 128,-1,35
 704 434 704 434 666 410 c 1,36,37
 710 384 710 384 734 341 c 128,-1,38
 758 298 758 298 758 226 c 0,0,1
EndSplineSet
Validated: 1
EndChar

StartChar: fourinferior
Encoding: 8324 8324 358
Width: 1024
GlyphClass: 1
Flags: W
LayerCount: 2
Fore
SplineSet
764 154 m 1,0,-1
 682 154 l 1,1,-1
 682 -20 l 1,2,-1
 530 -20 l 1,3,-1
 530 154 l 1,4,-1
 258 154 l 1,5,-1
 258 306 l 1,6,-1
 490 798 l 1,7,-1
 682 798 l 1,8,-1
 682 304 l 1,9,-1
 764 304 l 1,10,-1
 764 154 l 1,0,-1
538 304 m 1,11,-1
 538 634 l 1,12,-1
 380 304 l 1,13,-1
 538 304 l 1,11,-1
EndSplineSet
Validated: 1
EndChar

StartChar: fiveinferior
Encoding: 8325 8325 359
Width: 1024
GlyphClass: 1
Flags: W
LayerCount: 2
Fore
SplineSet
752 252 m 0,0,1
 752 192 752 192 733 141 c 128,-1,2
 714 90 714 90 681 51 c 128,-1,3
 648 12 648 12 599 -10 c 128,-1,4
 550 -32 550 -32 494 -32 c 0,5,6
 332 -32 332 -32 270 152 c 1,7,-1
 406 224 l 1,8,9
 430 138 430 138 502 138 c 0,10,11
 542 138 542 138 568 166 c 128,-1,12
 594 194 594 194 594 246 c 0,13,14
 594 304 594 304 569 332 c 128,-1,15
 544 360 544 360 504 360 c 0,16,17
 478 360 478 360 458 345 c 128,-1,18
 438 330 438 330 428 310 c 1,19,-1
 296 310 l 1,20,-1
 296 798 l 1,21,-1
 716 798 l 1,22,-1
 716 636 l 1,23,-1
 432 636 l 1,24,-1
 432 486 l 1,25,26
 458 498 458 498 484 504 c 128,-1,27
 510 510 510 510 530 510 c 0,28,29
 636 510 636 510 694 438 c 128,-1,30
 752 366 752 366 752 252 c 0,0,1
EndSplineSet
Validated: 1
EndChar

StartChar: sixinferior
Encoding: 8326 8326 360
Width: 1024
GlyphClass: 1
Flags: W
LayerCount: 2
Fore
SplineSet
754 236 m 0,0,1
 754 106 754 106 683 37 c 128,-1,2
 612 -32 612 -32 510 -32 c 0,3,4
 458 -32 458 -32 414 -12 c 128,-1,5
 370 8 370 8 339 45 c 128,-1,6
 308 82 308 82 289 131 c 128,-1,7
 270 180 270 180 270 238 c 0,8,9
 270 304 270 304 292 366 c 128,-1,10
 314 428 314 428 354 502 c 2,11,-1
 520 798 l 1,12,-1
 694 798 l 1,13,-1
 516 486 l 1,14,15
 526 488 526 488 546 488 c 0,16,17
 642 488 642 488 698 420 c 128,-1,18
 754 352 754 352 754 236 c 0,0,1
596 238 m 256,19,20
 596 286 596 286 572 315 c 128,-1,21
 548 344 548 344 510 344 c 0,22,23
 474 344 474 344 450 313 c 128,-1,24
 426 282 426 282 426 236 c 128,-1,25
 426 190 426 190 450 160 c 128,-1,26
 474 130 474 130 510 130 c 0,27,28
 548 130 548 130 572 160 c 128,-1,29
 596 190 596 190 596 238 c 256,19,20
EndSplineSet
Validated: 1
EndChar

StartChar: seveninferior
Encoding: 8327 8327 361
Width: 1024
GlyphClass: 1
Flags: W
LayerCount: 2
Fore
SplineSet
766 798 m 1,0,-1
 488 -20 l 1,1,-1
 292 -20 l 1,2,-1
 542 636 l 1,3,-1
 256 636 l 1,4,-1
 256 798 l 1,5,-1
 766 798 l 1,0,-1
EndSplineSet
Validated: 1
EndChar

StartChar: eightinferior
Encoding: 8328 8328 362
Width: 1024
GlyphClass: 1
Flags: W
LayerCount: 2
Fore
SplineSet
758 226 m 0,0,1
 758 106 758 106 700 37 c 128,-1,2
 642 -32 642 -32 512 -32 c 0,3,4
 386 -32 386 -32 325 37 c 128,-1,5
 264 106 264 106 264 226 c 0,6,7
 264 294 264 294 298 342 c 128,-1,8
 332 390 332 390 368 412 c 1,9,10
 330 440 330 440 313 480 c 128,-1,11
 296 520 296 520 296 578 c 0,12,13
 296 678 296 678 350 745 c 128,-1,14
 404 812 404 812 512 812 c 0,15,16
 568 812 568 812 609 793 c 128,-1,17
 650 774 650 774 677 741 c 128,-1,18
 704 708 704 708 718 666 c 128,-1,19
 732 624 732 624 732 578 c 0,20,21
 732 466 732 466 658 410 c 1,22,23
 704 384 704 384 731 338 c 128,-1,24
 758 292 758 292 758 226 c 0,0,1
592 570 m 0,25,26
 592 608 592 608 572 640 c 128,-1,27
 552 672 552 672 512 672 c 256,28,29
 472 672 472 672 452 640 c 128,-1,30
 432 608 432 608 432 570 c 256,31,32
 432 532 432 532 453 499 c 128,-1,33
 474 466 474 466 514 466 c 256,34,35
 554 466 554 466 573 496 c 128,-1,36
 592 526 592 526 592 570 c 0,25,26
606 230 m 0,37,38
 606 280 606 280 583 311 c 128,-1,39
 560 342 560 342 512 342 c 256,40,41
 464 342 464 342 441 310 c 128,-1,42
 418 278 418 278 418 230 c 128,-1,43
 418 182 418 182 442 150 c 128,-1,44
 466 118 466 118 514 118 c 0,45,46
 560 118 560 118 583 152 c 128,-1,47
 606 186 606 186 606 230 c 0,37,38
EndSplineSet
Validated: 1
EndChar

StartChar: nineinferior
Encoding: 8329 8329 363
Width: 1024
GlyphClass: 1
Flags: W
LayerCount: 2
Fore
SplineSet
270 542 m 0,0,1
 270 606 270 606 290 656 c 128,-1,2
 310 706 310 706 342 741 c 128,-1,3
 374 776 374 776 419 794 c 128,-1,4
 464 812 464 812 514 812 c 0,5,6
 566 812 566 812 609 791 c 128,-1,7
 652 770 652 770 684 734 c 128,-1,8
 716 698 716 698 735 648 c 128,-1,9
 754 598 754 598 754 540 c 0,10,11
 754 474 754 474 734 412 c 128,-1,12
 714 350 714 350 674 276 c 2,13,-1
 504 -20 l 1,14,-1
 332 -20 l 1,15,-1
 504 294 l 1,16,-1
 480 294 l 2,17,18
 382 294 382 294 326 360 c 128,-1,19
 270 426 270 426 270 542 c 0,0,1
426 540 m 0,20,21
 426 492 426 492 451 464 c 128,-1,22
 476 436 476 436 514 436 c 0,23,24
 550 436 550 436 573 467 c 128,-1,25
 596 498 596 498 596 542 c 0,26,27
 596 590 596 590 573 621 c 128,-1,28
 550 652 550 652 514 652 c 0,29,30
 476 652 476 652 451 621 c 128,-1,31
 426 590 426 590 426 540 c 0,20,21
EndSplineSet
Validated: 1
EndChar

StartChar: Euro
Encoding: 8364 8364 364
Width: 1024
GlyphClass: 1
Flags: W
LayerCount: 2
Fore
SplineSet
566 210 m 0,0,1
 594 210 594 210 620 225 c 128,-1,2
 646 240 646 240 666 262 c 1,3,-1
 862 118 l 1,4,5
 828 64 828 64 756 22 c 128,-1,6
 684 -20 684 -20 566 -20 c 0,7,8
 466 -20 466 -20 389 9 c 128,-1,9
 312 38 312 38 259 93 c 128,-1,10
 206 148 206 148 179 224 c 128,-1,11
 152 300 152 300 152 392 c 2,12,-1
 152 562 l 1,13,-1
 66 562 l 1,14,-1
 108 668 l 1,15,-1
 152 668 l 1,16,-1
 152 852 l 1,17,-1
 66 852 l 1,18,-1
 108 958 l 1,19,-1
 152 958 l 1,20,-1
 152 1062 l 2,21,22
 152 1284 152 1284 258 1395 c 128,-1,23
 364 1506 364 1506 566 1506 c 0,24,25
 704 1506 704 1506 796 1448 c 1,26,-1
 708 1136 l 1,27,28
 688 1200 688 1200 658 1232 c 128,-1,29
 628 1264 628 1264 566 1264 c 0,30,31
 490 1264 490 1264 447 1210 c 128,-1,32
 404 1156 404 1156 404 1060 c 2,33,-1
 404 958 l 1,34,-1
 654 958 l 1,35,-1
 620 852 l 1,36,-1
 404 852 l 1,37,-1
 404 668 l 1,38,-1
 568 668 l 1,39,-1
 536 562 l 1,40,-1
 404 562 l 1,41,-1
 404 398 l 2,42,43
 404 370 404 370 415 337 c 128,-1,44
 426 304 426 304 446 276 c 128,-1,45
 466 248 466 248 498 229 c 128,-1,46
 530 210 530 210 566 210 c 0,0,1
EndSplineSet
Validated: 1
EndChar

StartChar: uni20B9
Encoding: 8377 8377 365
Width: 1024
GlyphClass: 1
Flags: W
LayerCount: 2
Fore
SplineSet
124 1484 m 1,0,-1
 986 1484 l 1,1,-1
 904 1248 l 1,2,-1
 710 1248 l 1,3,4
 748 1220 748 1220 768 1172 c 128,-1,5
 788 1124 788 1124 794 1080 c 1,6,-1
 986 1080 l 1,7,-1
 904 840 l 1,8,-1
 786 840 l 1,9,10
 760 716 760 716 686 634 c 128,-1,11
 612 552 612 552 508 524 c 1,12,-1
 832 0 l 1,13,-1
 502 0 l 1,14,-1
 224 472 l 1,15,-1
 224 652 l 1,16,-1
 340 652 l 2,17,18
 412 652 412 652 467 695 c 128,-1,19
 522 738 522 738 540 840 c 1,20,-1
 40 840 l 1,21,-1
 124 1080 l 1,22,-1
 532 1080 l 1,23,24
 510 1164 510 1164 455 1204 c 128,-1,25
 400 1244 400 1244 322 1248 c 2,26,-1
 40 1248 l 1,27,-1
 124 1484 l 1,0,-1
EndSplineSet
Validated: 1
EndChar

StartChar: uni2117
Encoding: 8471 8471 366
Width: 1024
GlyphClass: 1
Flags: W
LayerCount: 2
Fore
SplineSet
990 452 m 2,0,1
 990 226 990 226 867 103 c 128,-1,2
 744 -20 744 -20 514 -20 c 0,3,4
 276 -20 276 -20 155 109 c 128,-1,5
 34 238 34 238 34 452 c 2,6,-1
 34 1030 l 2,7,8
 34 1248 34 1248 155 1377 c 128,-1,9
 276 1506 276 1506 514 1506 c 0,10,11
 744 1506 744 1506 867 1382 c 128,-1,12
 990 1258 990 1258 990 1030 c 2,13,-1
 990 452 l 2,0,1
866 1030 m 2,14,15
 866 1198 866 1198 775 1289 c 128,-1,16
 684 1380 684 1380 514 1380 c 0,17,18
 336 1380 336 1380 248 1286 c 128,-1,19
 160 1192 160 1192 160 1030 c 2,20,-1
 160 452 l 2,21,22
 160 292 160 292 248 198 c 128,-1,23
 336 104 336 104 514 104 c 0,24,25
 684 104 684 104 775 195 c 128,-1,26
 866 286 866 286 866 452 c 2,27,-1
 866 1030 l 2,14,15
740 872 m 0,28,29
 740 750 740 750 686 687 c 128,-1,30
 632 624 632 624 518 624 c 2,31,-1
 440 624 l 1,32,-1
 440 372 l 1,33,-1
 312 372 l 1,34,-1
 312 1114 l 1,35,-1
 520 1114 l 2,36,37
 628 1114 628 1114 684 1047 c 128,-1,38
 740 980 740 980 740 872 c 0,28,29
604 874 m 0,39,40
 604 992 604 992 504 994 c 2,41,-1
 440 994 l 1,42,-1
 440 750 l 1,43,-1
 504 750 l 2,44,45
 604 750 604 750 604 874 c 0,39,40
EndSplineSet
Validated: 1
EndChar

StartChar: trademark
Encoding: 8482 8482 367
Width: 1024
GlyphClass: 1
Flags: W
LayerCount: 2
Fore
SplineSet
456 1378 m 1,0,-1
 322 1378 l 1,1,-1
 322 868 l 1,2,-1
 190 868 l 1,3,-1
 190 1378 l 1,4,-1
 52 1378 l 1,5,-1
 52 1484 l 1,6,-1
 456 1484 l 1,7,-1
 456 1378 l 1,0,-1
968 868 m 1,8,-1
 854 868 l 1,9,-1
 854 1226 l 1,10,-1
 758 974 l 1,11,-1
 664 1226 l 1,12,-1
 664 868 l 1,13,-1
 546 868 l 1,14,-1
 546 1484 l 1,15,-1
 678 1484 l 1,16,-1
 758 1248 l 1,17,-1
 846 1484 l 1,18,-1
 968 1484 l 1,19,-1
 968 868 l 1,8,-1
EndSplineSet
Validated: 1
EndChar

StartChar: partialdiff
Encoding: 8706 8706 374
Width: 1024
GlyphClass: 1
Flags: W
LayerCount: 2
Fore
SplineSet
74 320 m 0,0,1
 74 416 74 416 107 518 c 128,-1,2
 140 620 140 620 201 705 c 128,-1,3
 262 790 262 790 351 845 c 128,-1,4
 440 900 440 900 556 900 c 0,5,6
 600 900 600 900 650 888 c 1,7,-1
 448 1484 l 1,8,-1
 724 1484 l 1,9,-1
 904 938 l 2,10,11
 932 846 932 846 947 770 c 128,-1,12
 962 694 962 694 962 620 c 0,13,14
 962 486 962 486 916 371 c 128,-1,15
 870 256 870 256 794 168 c 128,-1,16
 718 80 718 80 619 30 c 128,-1,17
 520 -20 520 -20 414 -20 c 0,18,19
 262 -20 262 -20 168 67 c 128,-1,20
 74 154 74 154 74 320 c 0,0,1
572 680 m 0,21,22
 518 680 518 680 474 654 c 128,-1,23
 430 628 430 628 397 587 c 128,-1,24
 364 546 364 546 347 494 c 128,-1,25
 330 442 330 442 330 392 c 0,26,27
 330 320 330 320 367 276 c 128,-1,28
 404 232 404 232 468 232 c 0,29,30
 514 232 514 232 557 256 c 128,-1,31
 600 280 600 280 633 320 c 128,-1,32
 666 360 666 360 686 412 c 128,-1,33
 706 464 706 464 706 522 c 0,34,35
 706 590 706 590 671 635 c 128,-1,36
 636 680 636 680 572 680 c 0,21,22
EndSplineSet
Validated: 1
EndChar

StartChar: product
Encoding: 8719 8719 375
Width: 1024
GlyphClass: 1
Flags: W
LayerCount: 2
Fore
SplineSet
906 1452 m 1,0,-1
 906 -346 l 1,1,-1
 742 -346 l 1,2,-1
 742 1452 l 1,3,-1
 284 1452 l 1,4,-1
 284 -346 l 1,5,-1
 120 -346 l 1,6,-1
 120 1452 l 1,7,-1
 14 1452 l 1,8,-1
 14 1616 l 1,9,-1
 1010 1616 l 1,10,-1
 1010 1452 l 1,11,-1
 906 1452 l 1,0,-1
EndSplineSet
Validated: 1
EndChar

StartChar: summation
Encoding: 8721 8721 376
Width: 1024
GlyphClass: 1
Flags: W
LayerCount: 2
Fore
SplineSet
70 -326 m 1,0,-1
 502 580 l 1,1,-1
 70 1484 l 1,2,-1
 952 1484 l 1,3,-1
 952 1308 l 1,4,-1
 350 1308 l 1,5,-1
 700 580 l 1,6,-1
 350 -150 l 1,7,-1
 952 -150 l 1,8,-1
 952 -326 l 1,9,-1
 70 -326 l 1,0,-1
EndSplineSet
Validated: 1
EndChar

StartChar: minus
Encoding: 8722 8722 377
Width: 1024
GlyphClass: 1
Flags: W
LayerCount: 2
Fore
SplineSet
56 656 m 1,0,-1
 56 820 l 1,1,-1
 968 820 l 1,2,-1
 968 656 l 1,3,-1
 56 656 l 1,0,-1
EndSplineSet
Validated: 1
EndChar

StartChar: radical
Encoding: 8730 8730 378
Width: 1024
GlyphClass: 1
Flags: W
LayerCount: 2
Fore
SplineSet
846 1484 m 1,0,-1
 1026 1484 l 1,1,-1
 614 0 l 1,2,-1
 418 0 l 1,3,-1
 236 502 l 1,4,-1
 18 502 l 1,5,-1
 18 666 l 1,6,-1
 350 666 l 1,7,-1
 514 186 l 1,8,-1
 846 1484 l 1,0,-1
EndSplineSet
Validated: 1
EndChar

StartChar: infinity
Encoding: 8734 8734 379
Width: 1024
GlyphClass: 1
Flags: W
LayerCount: 2
Fore
SplineSet
302 1082 m 0,0,1
 376 1082 376 1082 428 1048 c 128,-1,2
 480 1014 480 1014 514 948 c 1,3,4
 552 1020 552 1020 601 1051 c 128,-1,5
 650 1082 650 1082 724 1082 c 0,6,7
 846 1082 846 1082 929 992 c 128,-1,8
 1012 902 1012 902 1012 722 c 0,9,10
 1012 632 1012 632 989 566 c 128,-1,11
 966 500 966 500 926 456 c 128,-1,12
 886 412 886 412 834 389 c 128,-1,13
 782 366 782 366 724 366 c 0,14,15
 576 366 576 366 512 500 c 1,16,17
 472 428 472 428 423 397 c 128,-1,18
 374 366 374 366 302 366 c 0,19,20
 178 366 178 366 94 456 c 128,-1,21
 10 546 10 546 10 722 c 0,22,23
 10 812 10 812 34 880 c 128,-1,24
 58 948 58 948 98 992 c 128,-1,25
 138 1036 138 1036 190 1059 c 128,-1,26
 242 1082 242 1082 302 1082 c 0,0,1
712 562 m 0,27,28
 768 562 768 562 814 602 c 128,-1,29
 860 642 860 642 860 722 c 128,-1,30
 860 802 860 802 814 843 c 128,-1,31
 768 884 768 884 712 884 c 0,32,33
 652 884 652 884 609 841 c 128,-1,34
 566 798 566 798 566 720 c 0,35,36
 566 640 566 640 606 601 c 128,-1,37
 646 562 646 562 712 562 c 0,27,28
312 886 m 0,38,39
 254 886 254 886 209 845 c 128,-1,40
 164 804 164 804 164 722 c 0,41,42
 164 642 164 642 209 603 c 128,-1,43
 254 564 254 564 312 564 c 0,44,45
 372 564 372 564 414 606 c 128,-1,46
 456 648 456 648 456 728 c 0,47,48
 456 806 456 806 417 846 c 128,-1,49
 378 886 378 886 312 886 c 0,38,39
EndSplineSet
Validated: 1
EndChar

StartChar: integral
Encoding: 8747 8747 380
Width: 1024
GlyphClass: 1
Flags: W
LayerCount: 2
Fore
SplineSet
606 -146 m 2,0,1
 606 -276 606 -276 535 -342 c 128,-1,2
 464 -408 464 -408 308 -408 c 0,3,4
 296 -408 296 -408 279 -408 c 128,-1,5
 262 -408 262 -408 246 -406 c 1,6,-1
 246 -228 l 1,7,-1
 266 -228 l 2,8,9
 342 -228 342 -228 380 -184 c 128,-1,10
 418 -140 418 -140 418 -60 c 2,11,-1
 418 1412 l 2,12,13
 418 1542 418 1542 490 1609 c 128,-1,14
 562 1676 562 1676 718 1676 c 0,15,16
 730 1676 730 1676 746 1676 c 128,-1,17
 762 1676 762 1676 778 1674 c 1,18,-1
 778 1496 l 1,19,-1
 758 1496 l 2,20,21
 682 1496 682 1496 644 1451 c 128,-1,22
 606 1406 606 1406 606 1328 c 2,23,-1
 606 -146 l 2,0,1
EndSplineSet
Validated: 1
EndChar

StartChar: notequal
Encoding: 8800 8800 382
Width: 1024
GlyphClass: 1
Flags: W
LayerCount: 2
Fore
SplineSet
676 884 m 1,0,-1
 506 592 l 1,1,-1
 968 592 l 1,2,-1
 968 428 l 1,3,-1
 410 428 l 1,4,-1
 162 0 l 1,5,-1
 0 0 l 1,6,-1
 248 428 l 1,7,-1
 56 428 l 1,8,-1
 56 592 l 1,9,-1
 344 592 l 1,10,-1
 514 884 l 1,11,-1
 56 884 l 1,12,-1
 56 1048 l 1,13,-1
 608 1048 l 1,14,-1
 864 1484 l 1,15,-1
 1024 1484 l 1,16,-1
 770 1048 l 1,17,-1
 968 1048 l 1,18,-1
 968 884 l 1,19,-1
 676 884 l 1,0,-1
EndSplineSet
Validated: 1
EndChar

StartChar: lozenge
Encoding: 9674 9674 385
Width: 1024
GlyphClass: 1
Flags: W
LayerCount: 2
Fore
SplineSet
944 734 m 1,0,-1
 606 68 l 1,1,-1
 418 68 l 1,2,-1
 80 734 l 1,3,-1
 418 1396 l 1,4,-1
 606 1396 l 1,5,-1
 944 734 l 1,0,-1
260 734 m 1,6,-1
 512 236 l 1,7,-1
 762 734 l 1,8,-1
 512 1230 l 1,9,-1
 260 734 l 1,6,-1
EndSplineSet
Validated: 1
EndChar

StartChar: .ttfautohint
Encoding: 65539 -1 386
Width: 1024
GlyphClass: 1
Flags: W
LayerCount: 2
Fore
SplineSet
0 0 m 1024,0,-1
EndSplineSet
Validated: 1
EndChar

StartChar: uni00AD
Encoding: 173 173 387
Width: 1024
Flags: W
LayerCount: 2
Fore
SplineSet
140 1046 m 5,0,-1
 140 1210 l 5,1,-1
 886 1210 l 5,2,-1
 886 1046 l 5,3,-1
 140 1046 l 5,0,-1
EndSplineSet
EndChar

StartChar: Gcircumflex
Encoding: 284 284 389
Width: 1024
Flags: W
LayerCount: 2
Fore
SplineSet
346 1935 m 5
 680 1935 l 5
 906 1587 l 5
 690 1587 l 5
 510 1807 l 5
 334 1587 l 5
 120 1587 l 5
 346 1935 l 5
EndSplineSet
Refer: 43 71 N 1 0 0 1 0 0 3
EndChar

StartChar: gcircumflex
Encoding: 285 285 390
Width: 1024
Flags: W
LayerCount: 2
Fore
SplineSet
346 1504 m 5
 680 1504 l 5
 906 1156 l 5
 690 1156 l 5
 510 1376 l 5
 334 1156 l 5
 120 1156 l 5
 346 1504 l 5
EndSplineSet
Refer: 75 103 N 1 0 0 1 0 0 3
EndChar

StartChar: Hcircumflex
Encoding: 292 292 391
Width: 1024
Flags: WO
LayerCount: 2
Fore
SplineSet
920 0 m 1,0,-1
 654 0 l 1,1,-1
 654 626 l 1,2,-1
 366 626 l 1,3,-1
 366 0 l 1,4,-1
 104 0 l 1,5,-1
 104 1484 l 1,6,-1
 366 1484 l 1,7,-1
 366 880 l 1,8,-1
 654 880 l 1,9,-1
 654 1484 l 1,10,-1
 920 1484 l 1,11,-1
 920 0 l 1,0,-1
346 2015 m 1,12,-1
 680 2015 l 1,13,-1
 906 1667 l 1,14,-1
 690 1667 l 1,15,-1
 510 1887 l 1,16,-1
 334 1667 l 1,17,-1
 120 1667 l 1,18,-1
 346 2015 l 1,12,-1
EndSplineSet
EndChar

StartChar: hcircumflex
Encoding: 293 293 392
Width: 1024
Flags: W
LayerCount: 2
Fore
SplineSet
930 0 m 1
 692 0 l 1
 692 618 l 2
 692 716 692 716 651 769 c 0
 610 822 610 822 526 822 c 0
 440 822 440 822 398 770 c 0
 356 718 356 718 356 620 c 2
 356 0 l 1
 118 0 l 1
 118 1364 l 1
 356 1364 l 1
 356 808 l 1
 410 934 410 934 493 988 c 0
 576 1042 576 1042 672 1042 c 0
 802 1042 802 1042 866 958 c 0
 930 874 930 874 930 722 c 2
 930 0 l 1
EndSplineSet
Refer: 312 711 N 1 0 0 1 0 352 2
EndChar

StartChar: ccircumflex
Encoding: 265 265 396
Width: 1024
Flags: W
LayerCount: 2
Fore
SplineSet
346 1504 m 1
 680 1504 l 1
 906 1156 l 1
 690 1156 l 1
 510 1376 l 1
 334 1156 l 1
 120 1156 l 1
 346 1504 l 1
EndSplineSet
Refer: 71 99 S 1 0 0 1 0 0 3
EndChar

StartChar: itilde
Encoding: 297 297 398
Width: 1024
Flags: W
LayerCount: 2
Fore
SplineSet
159 1243 m 1
 187 1283 187 1283 220 1302 c 0
 254 1321 254 1321 294 1320 c 0
 315 1320 315 1320 355 1307 c 0
 394 1294 394 1294 439 1279 c 0
 483 1264 483 1264 522 1250 c 0
 561 1237 561 1237 584 1237 c 0
 620 1237 620 1237 649 1252 c 0
 678 1267 678 1267 717 1316 c 1
 717 1189 l 1
 690 1148 690 1148 656 1129 c 0
 621 1110 621 1110 581 1110 c 0
 560 1110 560 1110 521 1123 c 0
 482 1136 482 1136 438 1152 c 0
 394 1167 394 1167 354 1180 c 0
 315 1194 315 1194 293 1194 c 0
 276 1194 276 1194 260 1191 c 0
 240 1186 240 1186 228 1178 c 0
 213 1168 213 1168 197 1154 c 0
 180 1139 180 1139 159 1114 c 1
 159 1243 l 1
EndSplineSet
Refer: 386 -1 N 1 0 0 1 140 0 0
Refer: 234 305 S 0.95 0 0 0.95 0 1 3
EndChar

StartChar: jcircumflex
Encoding: 309 309 399
Width: 1024
Flags: W
LayerCount: 2
Fore
SplineSet
739 1298 m 1,0,-1
 952 1298 l 1,1,-1
 1097 1075 l 1,2,-1
 959 1075 l 1,3,-1
 844 1216 l 1,4,-1
 732 1075 l 1,5,-1
 594 1075 l 1,6,-1
 739 1298 l 1,0,-1
439 103 m 2,7,8
 439 -178 439 -178 219 -178 c 2,9,-1
 0 -178 l 1,10,-1
 0 0 l 1,11,-1
 199 0 l 2,12,13
 268 0 268 0 268 103 c 2,14,-1
 268 678 l 1,15,-1
 58 678 l 1,16,-1
 58 849 l 1,17,-1
 439 849 l 1,18,-1
 439 103 l 2,7,8
449 1081.5 m 128,-1,20
 449 1035 449 1035 424.5 1000.5 c 128,-1,21
 400 966 400 966 354 966 c 128,-1,22
 308 966 308 966 282.5 1000.5 c 128,-1,23
 257 1035 257 1035 257 1082 c 0,24,25
 257 1130 257 1130 282.5 1164.5 c 128,-1,26
 308 1199 308 1199 355 1199 c 0,27,28
 399 1199 399 1199 424 1163.5 c 128,-1,29
 449 1128 449 1128 449 1081.5 c 128,-1,20
EndSplineSet
EndChar

StartChar: kgreenlandic
Encoding: 312 312 401
Width: 1024
Flags: W
LayerCount: 2
Fore
SplineSet
934 0 m 1,0,-1
 636 0 l 1,1,-1
 350 492 l 1,2,-1
 350 0 l 1,3,-1
 112 0 l 1,4,-1
 112 1045 l 1,5,-1
 350 1045 l 1,6,-1
 350 590 l 1,7,-1
 632 1040 l 1,8,-1
 890 1040 l 1,9,-1
 586 572 l 1,10,-1
 934 0 l 1,0,-1
EndSplineSet
EndChar
